SignikaNegative-Semibold.ufo
<glyph name="exclam" format="2">
  <advance width="592"/>
  <unicode hex="0021"/>
  <outline>
    <contour>
      <point x="195" y="400" type="curve"/>
      <point x="226" y="391"/>
      <point x="266" y="389"/>
      <point x="290" y="389" type="curve" smooth="yes"/>
      <point x="317" y="389"/>
      <point x="352" y="391"/>
      <point x="384" y="400" type="curve"/>
      <point x="401" y="662"/>
      <point x="429" y="923"/>
      <point x="429" y="1185" type="curve" smooth="yes"/>
      <point x="429" y="1364" type="line"/>
      <point x="360" y="1384"/>
      <point x="220" y="1384"/>
      <point x="151" y="1365" type="curve"/>
      <point x="151" y="1187" type="line" smooth="yes"/>
      <point x="151" y="923"/>
      <point x="177" y="663"/>
    </contour>
    <contour>
      <point x="290" y="242" type="curve" smooth="yes"/>
      <point x="243" y="242"/>
      <point x="195" y="232"/>
      <point x="163" y="214" type="curve"/>
      <point x="152" y="193"/>
      <point x="145" y="142"/>
      <point x="145" y="111" type="curve" smooth="yes"/>
      <point x="145" y="79"/>
      <point x="152" y="29"/>
      <point x="163" y="8" type="curve"/>
      <point x="195" y="-9"/>
      <point x="243" y="-20"/>
      <point x="290" y="-20" type="curve" smooth="yes"/>
      <point x="336" y="-20"/>
      <point x="386" y="-9"/>
      <point x="416" y="8" type="curve"/>
      <point x="429" y="29"/>
      <point x="436" y="79"/>
      <point x="436" y="111" type="curve" smooth="yes"/>
      <point x="436" y="142"/>
      <point x="429" y="193"/>
      <point x="416" y="214" type="curve"/>
      <point x="386" y="232"/>
      <point x="336" y="242"/>
    </contour>
  </outline>
</glyph>
<glyph name="numbersign" format="2">
  <advance width="1347"/>
  <unicode hex="0023"/>
  <outline>
    <contour>
      <point x="196" y="26" type="curve"/>
      <point x="479" y="1287" type="line"/>
      <point x="507" y="1299"/>
      <point x="549" y="1305"/>
      <point x="590" y="1305" type="curve" smooth="yes"/>
      <point x="633" y="1305"/>
      <point x="673" y="1299"/>
      <point x="699" y="1287" type="curve"/>
      <point x="416" y="26" type="line"/>
      <point x="390" y="13"/>
      <point x="347" y="8"/>
      <point x="305" y="8" type="curve" smooth="yes"/>
      <point x="263" y="8"/>
      <point x="221" y="13"/>
    </contour>
    <contour>
      <point x="662" y="26" type="curve"/>
      <point x="945" y="1287" type="line"/>
      <point x="973" y="1299"/>
      <point x="1015" y="1305"/>
      <point x="1056" y="1305" type="curve" smooth="yes"/>
      <point x="1099" y="1305"/>
      <point x="1139" y="1299"/>
      <point x="1165" y="1287" type="curve"/>
      <point x="882" y="26" type="line"/>
      <point x="855" y="13"/>
      <point x="813" y="8"/>
      <point x="771" y="8" type="curve" smooth="yes"/>
      <point x="729" y="8"/>
      <point x="687" y="13"/>
    </contour>
    <contour>
      <point x="1196" y="292" type="curve"/>
      <point x="57" y="292" type="line"/>
      <point x="47" y="320"/>
      <point x="43" y="356"/>
      <point x="43" y="392" type="curve" smooth="yes"/>
      <point x="43" y="428"/>
      <point x="47" y="464"/>
      <point x="57" y="492" type="curve"/>
      <point x="1196" y="492" type="line"/>
      <point x="1206" y="464"/>
      <point x="1212" y="428"/>
      <point x="1212" y="392" type="curve" smooth="yes"/>
      <point x="1212" y="356"/>
      <point x="1206" y="320"/>
    </contour>
    <contour>
      <point x="1296" y="821" type="curve"/>
      <point x="157" y="821" type="line"/>
      <point x="147" y="849"/>
      <point x="142" y="885"/>
      <point x="142" y="921" type="curve" smooth="yes"/>
      <point x="142" y="957"/>
      <point x="147" y="993"/>
      <point x="157" y="1021" type="curve"/>
      <point x="1296" y="1021" type="line"/>
      <point x="1306" y="993"/>
      <point x="1311" y="957"/>
      <point x="1311" y="921" type="curve" smooth="yes"/>
      <point x="1311" y="885"/>
      <point x="1306" y="849"/>
    </contour>
  </outline>
</glyph>
<glyph name="dollar" format="2">
  <advance width="1080"/>
  <unicode hex="0024"/>
  <outline>
    <contour>
      <point x="517" y="49" type="curve" smooth="yes"/>
      <point x="769" y="49"/>
      <point x="937" y="184"/>
      <point x="937" y="383" type="curve" smooth="yes"/>
      <point x="937" y="556"/>
      <point x="835" y="664"/>
      <point x="679" y="722" type="curve" smooth="yes"/>
      <point x="503" y="786" type="line" smooth="yes"/>
      <point x="427" y="814"/>
      <point x="379" y="843"/>
      <point x="379" y="910" type="curve" smooth="yes"/>
      <point x="379" y="978"/>
      <point x="436" y="1021"/>
      <point x="531" y="1021" type="curve" smooth="yes"/>
      <point x="620" y="1021"/>
      <point x="720" y="991"/>
      <point x="816" y="941" type="curve"/>
      <point x="867" y="985"/>
      <point x="903" y="1062"/>
      <point x="903" y="1131" type="curve"/>
      <point x="801" y="1183"/>
      <point x="671" y="1224"/>
      <point x="508" y="1224" type="curve" smooth="yes"/>
      <point x="286" y="1224"/>
      <point x="123" y="1084"/>
      <point x="123" y="883" type="curve" smooth="yes"/>
      <point x="123" y="730"/>
      <point x="227" y="636"/>
      <point x="371" y="583" type="curve" smooth="yes"/>
      <point x="555" y="517" type="line" smooth="yes"/>
      <point x="646" y="484"/>
      <point x="680" y="432"/>
      <point x="679" y="372" type="curve" smooth="yes"/>
      <point x="678" y="295"/>
      <point x="610" y="251"/>
      <point x="512" y="251" type="curve" smooth="yes"/>
      <point x="404" y="252"/>
      <point x="277" y="303"/>
      <point x="184" y="362" type="curve"/>
      <point x="135" y="331"/>
      <point x="91" y="238"/>
      <point x="90" y="173" type="curve"/>
      <point x="172" y="116"/>
      <point x="345" y="49"/>
    </contour>
    <contour>
      <point x="505" y="-126" type="curve" smooth="yes"/>
      <point x="540" y="-126"/>
      <point x="574" y="-123"/>
      <point x="598" y="-116" type="curve"/>
      <point x="598" y="125" type="line"/>
      <point x="410" y="125" type="line"/>
      <point x="410" y="-116" type="line"/>
      <point x="434" y="-123"/>
      <point x="469" y="-126"/>
    </contour>
    <contour>
      <point x="429" y="1143" type="line"/>
      <point x="617" y="1143" type="line"/>
      <point x="617" y="1389" type="line"/>
      <point x="592" y="1395"/>
      <point x="556" y="1398"/>
      <point x="523" y="1398" type="curve" smooth="yes"/>
      <point x="491" y="1398"/>
      <point x="455" y="1395"/>
      <point x="429" y="1389" type="curve"/>
    </contour>
  </outline>
</glyph>
<glyph name="percent" format="2">
  <advance width="1879"/>
  <unicode hex="0025"/>
  <outline>
    <contour>
      <point x="1786" y="395" type="curve" smooth="yes"/>
      <point x="1786" y="643"/>
      <point x="1695" y="813"/>
      <point x="1459" y="813" type="curve" smooth="yes"/>
      <point x="1223" y="813"/>
      <point x="1133" y="644"/>
      <point x="1133" y="395" type="curve" smooth="yes"/>
      <point x="1133" y="148"/>
      <point x="1220" y="-25"/>
      <point x="1459" y="-25" type="curve" smooth="yes"/>
      <point x="1695" y="-25"/>
      <point x="1786" y="144"/>
    </contour>
    <contour>
      <point x="1339" y="395" type="curve" smooth="yes"/>
      <point x="1339" y="535"/>
      <point x="1357" y="656"/>
      <point x="1460" y="656" type="curve" smooth="yes"/>
      <point x="1562" y="656"/>
      <point x="1580" y="535"/>
      <point x="1580" y="395" type="curve" smooth="yes"/>
      <point x="1580" y="254"/>
      <point x="1562" y="132"/>
      <point x="1460" y="132" type="curve" smooth="yes"/>
      <point x="1357" y="132"/>
      <point x="1339" y="254"/>
    </contour>
    <contour>
      <point x="747" y="874" type="curve" smooth="yes"/>
      <point x="747" y="1122"/>
      <point x="656" y="1293"/>
      <point x="420" y="1293" type="curve" smooth="yes"/>
      <point x="184" y="1293"/>
      <point x="94" y="1124"/>
      <point x="94" y="874" type="curve" smooth="yes"/>
      <point x="94" y="627"/>
      <point x="181" y="454"/>
      <point x="420" y="454" type="curve" smooth="yes"/>
      <point x="656" y="454"/>
      <point x="747" y="623"/>
    </contour>
    <contour>
      <point x="300" y="874" type="curve" smooth="yes"/>
      <point x="300" y="1014"/>
      <point x="318" y="1135"/>
      <point x="421" y="1135" type="curve" smooth="yes"/>
      <point x="523" y="1135"/>
      <point x="541" y="1014"/>
      <point x="541" y="874" type="curve" smooth="yes"/>
      <point x="541" y="734"/>
      <point x="523" y="612"/>
      <point x="421" y="612" type="curve" smooth="yes"/>
      <point x="318" y="612"/>
      <point x="300" y="734"/>
    </contour>
    <component base="fraction" xOffset="718"/>
  </outline>
</glyph>
<glyph name="ampersand" format="2">
  <advance width="1271"/>
  <unicode hex="0026"/>
  <outline>
    <contour>
      <point x="1016" y="827" type="curve" smooth="yes"/>
      <point x="640" y="827" type="line" smooth="yes"/>
      <point x="483" y="827"/>
      <point x="412" y="896"/>
      <point x="412" y="1015" type="curve" smooth="yes"/>
      <point x="412" y="1118"/>
      <point x="481" y="1194"/>
      <point x="609" y="1194" type="curve" smooth="yes"/>
      <point x="713" y="1194"/>
      <point x="810" y="1169"/>
      <point x="899" y="1141" type="curve" smooth="yes"/>
      <point x="942" y="1187"/>
      <point x="967" y="1267"/>
      <point x="965" y="1331" type="curve"/>
      <point x="866" y="1366"/>
      <point x="720" y="1393"/>
      <point x="576" y="1393" type="curve" smooth="yes"/>
      <point x="311" y="1393"/>
      <point x="150" y="1240"/>
      <point x="150" y="1033" type="curve" smooth="yes"/>
      <point x="150" y="858"/>
      <point x="278" y="719"/>
      <point x="439" y="715" type="curve"/>
      <point x="439" y="745" type="line"/>
      <point x="269" y="743"/>
      <point x="92" y="585"/>
      <point x="92" y="359" type="curve" smooth="yes"/>
      <point x="92" y="144"/>
      <point x="226" y="-27"/>
      <point x="478" y="-27" type="curve" smooth="yes"/>
      <point x="598" y="-27"/>
      <point x="712" y="16"/>
      <point x="795" y="81" type="curve"/>
      <point x="813" y="-2" type="line"/>
      <point x="841" y="-10"/>
      <point x="884" y="-14"/>
      <point x="927" y="-14" type="curve" smooth="yes"/>
      <point x="972" y="-14"/>
      <point x="1013" y="-10"/>
      <point x="1042" y="0" type="curve"/>
      <point x="1034" y="92"/>
      <point x="1029" y="218"/>
      <point x="1029" y="309" type="curve" smooth="yes"/>
      <point x="1029" y="492" type="line" smooth="yes"/>
      <point x="1029" y="553"/>
      <point x="1027" y="653"/>
      <point x="1022" y="730" type="curve"/>
      <point x="791" y="730" type="line"/>
      <point x="786" y="653"/>
      <point x="784" y="553"/>
      <point x="784" y="491" type="curve" smooth="yes"/>
      <point x="784" y="256" type="line"/>
      <point x="733" y="213"/>
      <point x="646" y="170"/>
      <point x="543" y="170" type="curve" smooth="yes"/>
      <point x="432" y="170"/>
      <point x="354" y="240"/>
      <point x="354" y="377" type="curve" smooth="yes"/>
      <point x="354" y="508"/>
      <point x="435" y="615"/>
      <point x="619" y="615" type="curve" smooth="yes"/>
      <point x="1083" y="615" type="line" smooth="yes"/>
      <point x="1183" y="615"/>
      <point x="1248" y="651"/>
      <point x="1248" y="744" type="curve" smooth="yes"/>
      <point x="1248" y="788"/>
      <point x="1236" y="835"/>
      <point x="1215" y="861" type="curve"/>
      <point x="1164" y="838"/>
      <point x="1090" y="827"/>
    </contour>
  </outline>
</glyph>
<glyph name="quotesingle" format="2">
  <advance width="445"/>
  <unicode hex="0027"/>
  <outline>
    <contour>
      <point x="88" y="1418" type="curve" smooth="yes"/>
      <point x="88" y="1381"/>
      <point x="120" y="1179"/>
      <point x="153" y="983" type="curve"/>
      <point x="182" y="966"/>
      <point x="248" y="966"/>
      <point x="275" y="983" type="curve"/>
      <point x="309" y="1178"/>
      <point x="340" y="1381"/>
      <point x="340" y="1418" type="curve" smooth="yes"/>
      <point x="340" y="1454"/>
      <point x="335" y="1490"/>
      <point x="328" y="1523" type="curve"/>
      <point x="298" y="1541"/>
      <point x="258" y="1553"/>
      <point x="214" y="1553" type="curve" smooth="yes"/>
      <point x="169" y="1553"/>
      <point x="132" y="1541"/>
      <point x="100" y="1523" type="curve"/>
      <point x="93" y="1490"/>
      <point x="88" y="1454"/>
    </contour>
  </outline>
</glyph>
<glyph name="parenleft" format="2">
  <advance width="697"/>
  <unicode hex="0028"/>
  <outline>
    <contour>
      <point x="384" y="547" type="curve" smooth="yes"/>
      <point x="384" y="849"/>
      <point x="471" y="1180"/>
      <point x="663" y="1437" type="curve"/>
      <point x="631" y="1506"/>
      <point x="575" y="1550"/>
      <point x="517" y="1569" type="curve"/>
      <point x="257" y="1318"/>
      <point x="122" y="900"/>
      <point x="122" y="547" type="curve" smooth="yes"/>
      <point x="122" y="195"/>
      <point x="257" y="-224"/>
      <point x="517" y="-474" type="curve"/>
      <point x="575" y="-455"/>
      <point x="631" y="-411"/>
      <point x="663" y="-342" type="curve"/>
      <point x="471" y="-85"/>
      <point x="384" y="245"/>
    </contour>
  </outline>
</glyph>
<glyph name="parenright" format="2">
  <advance width="697"/>
  <unicode hex="0029"/>
  <outline>
    <contour>
      <point x="313" y="547" type="curve" smooth="yes"/>
      <point x="313" y="849"/>
      <point x="226" y="1180"/>
      <point x="34" y="1437" type="curve"/>
      <point x="66" y="1506"/>
      <point x="122" y="1550"/>
      <point x="180" y="1569" type="curve"/>
      <point x="439" y="1318"/>
      <point x="575" y="900"/>
      <point x="575" y="547" type="curve" smooth="yes"/>
      <point x="575" y="195"/>
      <point x="439" y="-224"/>
      <point x="180" y="-474" type="curve"/>
      <point x="122" y="-455"/>
      <point x="66" y="-411"/>
      <point x="34" y="-342" type="curve"/>
      <point x="226" y="-85"/>
      <point x="313" y="245"/>
    </contour>
  </outline>
</glyph>
<glyph name="asterisk" format="2">
  <advance width="1021"/>
  <unicode hex="002A"/>
  <outline>
    <contour>
      <point x="406" y="1461" type="curve"/>
      <point x="410" y="1342" type="line" smooth="yes"/>
      <point x="413" y="1252"/>
      <point x="445" y="1152"/>
      <point x="468" y="1067" type="curve"/>
      <point x="480" y="1052"/>
      <point x="496" y="1045"/>
      <point x="510" y="1045" type="curve" smooth="yes"/>
      <point x="525" y="1045"/>
      <point x="540" y="1053"/>
      <point x="552" y="1067" type="curve"/>
      <point x="574" y="1152"/>
      <point x="608" y="1252"/>
      <point x="610" y="1342" type="curve" smooth="yes"/>
      <point x="614" y="1461" type="line"/>
      <point x="564" y="1481"/>
      <point x="454" y="1481"/>
    </contour>
    <contour>
      <point x="83" y="1075" type="curve"/>
      <point x="196" y="1042" type="line" smooth="yes"/>
      <point x="283" y="1016"/>
      <point x="388" y="1016"/>
      <point x="476" y="1013" type="curve"/>
      <point x="495" y="1018"/>
      <point x="505" y="1030"/>
      <point x="510" y="1045" type="curve" smooth="yes"/>
      <point x="515" y="1059"/>
      <point x="512" y="1076"/>
      <point x="502" y="1092" type="curve"/>
      <point x="429" y="1138"/>
      <point x="343" y="1202"/>
      <point x="258" y="1233" type="curve" smooth="yes"/>
      <point x="147" y="1272" type="line"/>
      <point x="111" y="1231"/>
      <point x="78" y="1127"/>
    </contour>
    <contour>
      <point x="349" y="648" type="curve"/>
      <point x="415" y="746" type="line" smooth="yes"/>
      <point x="467" y="821"/>
      <point x="500" y="919"/>
      <point x="531" y="1003" type="curve"/>
      <point x="531" y="1021"/>
      <point x="523" y="1035"/>
      <point x="510" y="1045" type="curve" smooth="yes"/>
      <point x="498" y="1054"/>
      <point x="481" y="1056"/>
      <point x="462" y="1051" type="curve"/>
      <point x="396" y="997"/>
      <point x="309" y="935"/>
      <point x="254" y="862" type="curve" smooth="yes"/>
      <point x="181" y="770" type="line"/>
      <point x="210" y="722"/>
      <point x="298" y="660"/>
    </contour>
    <contour>
      <point x="837" y="769" type="curve"/>
      <point x="766" y="861" type="line" smooth="yes"/>
      <point x="710" y="934"/>
      <point x="627" y="997"/>
      <point x="557" y="1051" type="curve"/>
      <point x="539" y="1057"/>
      <point x="523" y="1054"/>
      <point x="510" y="1045" type="curve" smooth="yes"/>
      <point x="498" y="1035"/>
      <point x="490" y="1021"/>
      <point x="489" y="1002" type="curve"/>
      <point x="521" y="920"/>
      <point x="552" y="820"/>
      <point x="604" y="745" type="curve" smooth="yes"/>
      <point x="670" y="647" type="line"/>
      <point x="725" y="660"/>
      <point x="811" y="724"/>
    </contour>
    <contour>
      <point x="874" y="1270" type="curve"/>
      <point x="763" y="1230" type="line" smooth="yes"/>
      <point x="677" y="1200"/>
      <point x="592" y="1141"/>
      <point x="518" y="1091" type="curve"/>
      <point x="508" y="1076"/>
      <point x="505" y="1059"/>
      <point x="510" y="1045" type="curve" smooth="yes"/>
      <point x="515" y="1030"/>
      <point x="527" y="1019"/>
      <point x="545" y="1013" type="curve"/>
      <point x="631" y="1017"/>
      <point x="737" y="1016"/>
      <point x="824" y="1041" type="curve" smooth="yes"/>
      <point x="939" y="1074" type="line"/>
      <point x="943" y="1130"/>
      <point x="907" y="1232"/>
    </contour>
  </outline>
</glyph>
<glyph name="plus" format="2">
  <advance width="1080"/>
  <unicode hex="002B"/>
  <outline>
    <contour>
      <point x="120" y="734" type="curve"/>
      <point x="320" y="734" type="line" smooth="yes"/>
      <point x="361" y="734"/>
      <point x="401" y="732"/>
      <point x="441" y="732" type="curve" smooth="yes"/>
      <point x="639" y="732" type="line" smooth="yes"/>
      <point x="679" y="732"/>
      <point x="719" y="734"/>
      <point x="760" y="734" type="curve" smooth="yes"/>
      <point x="960" y="734" type="line"/>
      <point x="968" y="698"/>
      <point x="971" y="670"/>
      <point x="971" y="632" type="curve" smooth="yes"/>
      <point x="971" y="594"/>
      <point x="968" y="560"/>
      <point x="960" y="529" type="curve"/>
      <point x="760" y="529" type="line" smooth="yes"/>
      <point x="719" y="529"/>
      <point x="679" y="531"/>
      <point x="639" y="531" type="curve" smooth="yes"/>
      <point x="441" y="531" type="line" smooth="yes"/>
      <point x="401" y="531"/>
      <point x="361" y="529"/>
      <point x="320" y="529" type="curve" smooth="yes"/>
      <point x="120" y="529" type="line"/>
      <point x="112" y="559"/>
      <point x="109" y="594"/>
      <point x="109" y="632" type="curve" smooth="yes"/>
      <point x="109" y="670"/>
      <point x="112" y="702"/>
    </contour>
    <contour>
      <point x="431" y="846" type="curve" smooth="yes"/>
      <point x="431" y="1062" type="line"/>
      <point x="467" y="1070"/>
      <point x="502" y="1072"/>
      <point x="540" y="1072" type="curve" smooth="yes"/>
      <point x="578" y="1072"/>
      <point x="614" y="1070"/>
      <point x="649" y="1062" type="curve"/>
      <point x="649" y="846" type="line" smooth="yes"/>
      <point x="649" y="805"/>
      <point x="647" y="765"/>
      <point x="647" y="726" type="curve" smooth="yes"/>
      <point x="647" y="539" type="line" smooth="yes"/>
      <point x="647" y="499"/>
      <point x="649" y="460"/>
      <point x="649" y="419" type="curve" smooth="yes"/>
      <point x="649" y="202" type="line"/>
      <point x="614" y="194"/>
      <point x="580" y="192"/>
      <point x="542" y="192" type="curve" smooth="yes"/>
      <point x="504" y="192"/>
      <point x="467" y="194"/>
      <point x="431" y="202" type="curve"/>
      <point x="431" y="419" type="line" smooth="yes"/>
      <point x="431" y="460"/>
      <point x="433" y="499"/>
      <point x="433" y="539" type="curve" smooth="yes"/>
      <point x="433" y="726" type="line" smooth="yes"/>
      <point x="433" y="765"/>
      <point x="431" y="805"/>
    </contour>
  </outline>
</glyph>
<glyph name="comma" format="2">
  <advance width="558"/>
  <unicode hex="002C"/>
  <outline>
    <contour>
      <point x="416" y="226" type="curve"/>
      <point x="388" y="244"/>
      <point x="328" y="257"/>
      <point x="283" y="257" type="curve" smooth="yes"/>
      <point x="238" y="257"/>
      <point x="177" y="243"/>
      <point x="149" y="226" type="curve"/>
      <point x="136" y="206"/>
      <point x="128" y="152"/>
      <point x="128" y="117" type="curve" smooth="yes"/>
      <point x="128" y="81"/>
      <point x="137" y="34"/>
      <point x="149" y="13" type="curve"/>
      <point x="167" y="-2"/>
      <point x="203" y="-12"/>
      <point x="232" y="-17" type="curve"/>
      <point x="222" y="-107"/>
      <point x="150" y="-181"/>
      <point x="58" y="-218" type="curve"/>
      <point x="53" y="-263"/>
      <point x="76" y="-315"/>
      <point x="120" y="-337" type="curve"/>
      <point x="332" y="-267"/>
      <point x="439" y="-92"/>
      <point x="439" y="84" type="curve" smooth="yes"/>
      <point x="439" y="135"/>
      <point x="432" y="184"/>
    </contour>
  </outline>
</glyph>
<glyph name="hyphen" format="2">
  <advance width="720"/>
  <unicode hex="002D"/>
  <outline>
    <contour>
      <point x="99" y="433" type="curve"/>
      <point x="621" y="433" type="line"/>
      <point x="630" y="466"/>
      <point x="632" y="508"/>
      <point x="632" y="535" type="curve" smooth="yes"/>
      <point x="632" y="563"/>
      <point x="630" y="605"/>
      <point x="621" y="639" type="curve"/>
      <point x="99" y="639" type="line"/>
      <point x="90" y="605"/>
      <point x="88" y="563"/>
      <point x="88" y="535" type="curve" smooth="yes"/>
      <point x="88" y="508"/>
      <point x="90" y="466"/>
    </contour>
  </outline>
</glyph>
<glyph name="period" format="2">
  <advance width="544"/>
  <unicode hex="002E"/>
  <outline>
    <contour>
      <point x="116" y="120" type="curve" smooth="yes"/>
      <point x="116" y="96"/>
      <point x="122" y="40"/>
      <point x="136" y="12" type="curve"/>
      <point x="168" y="-7"/>
      <point x="226" y="-19"/>
      <point x="272" y="-19" type="curve" smooth="yes"/>
      <point x="317" y="-19"/>
      <point x="378" y="-7"/>
      <point x="408" y="12" type="curve"/>
      <point x="423" y="40"/>
      <point x="429" y="96"/>
      <point x="429" y="120" type="curve" smooth="yes"/>
      <point x="429" y="144"/>
      <point x="423" y="199"/>
      <point x="408" y="228" type="curve"/>
      <point x="377" y="246"/>
      <point x="317" y="258"/>
      <point x="272" y="258" type="curve" smooth="yes"/>
      <point x="226" y="258"/>
      <point x="168" y="246"/>
      <point x="136" y="228" type="curve"/>
      <point x="122" y="199"/>
      <point x="116" y="144"/>
    </contour>
  </outline>
</glyph>
<glyph name="slash" format="2">
  <advance width="867"/>
  <unicode hex="002F"/>
  <outline>
    <contour>
      <point x="640" y="1428" type="curve"/>
      <point x="9" y="-248" type="line"/>
      <point x="71" y="-295"/>
      <point x="150" y="-322"/>
      <point x="222" y="-328" type="curve"/>
      <point x="853" y="1347" type="line"/>
      <point x="792" y="1394"/>
      <point x="711" y="1420"/>
    </contour>
  </outline>
</glyph>
<glyph name="zero" format="2">
  <advance width="1080"/>
  <unicode hex="0030"/>
  <outline>
    <contour>
      <point x="90" y="633" type="curve" smooth="yes"/>
      <point x="90" y="401"/>
      <point x="112" y="222"/>
      <point x="234" y="91" type="curve" smooth="yes"/>
      <point x="307" y="21"/>
      <point x="393" y="-27"/>
      <point x="540" y="-27" type="curve" smooth="yes"/>
      <point x="689" y="-27"/>
      <point x="773" y="21"/>
      <point x="846" y="91" type="curve" smooth="yes"/>
      <point x="968" y="222"/>
      <point x="990" y="401"/>
      <point x="990" y="633" type="curve" smooth="yes"/>
      <point x="990" y="865"/>
      <point x="968" y="1044"/>
      <point x="846" y="1175" type="curve" smooth="yes"/>
      <point x="773" y="1245"/>
      <point x="689" y="1293"/>
      <point x="541" y="1293" type="curve" smooth="yes"/>
      <point x="393" y="1293"/>
      <point x="306" y="1245"/>
      <point x="234" y="1175" type="curve" smooth="yes"/>
      <point x="111" y="1044"/>
      <point x="90" y="865"/>
    </contour>
    <contour>
      <point x="347" y="633" type="curve" smooth="yes"/>
      <point x="347" y="841"/>
      <point x="365" y="964"/>
      <point x="407" y="1030" type="curve" smooth="yes"/>
      <point x="436" y="1079"/>
      <point x="483" y="1101"/>
      <point x="540" y="1101" type="curve" smooth="yes"/>
      <point x="598" y="1101"/>
      <point x="644" y="1079"/>
      <point x="673" y="1030" type="curve" smooth="yes"/>
      <point x="715" y="964"/>
      <point x="733" y="841"/>
      <point x="733" y="633" type="curve" smooth="yes"/>
      <point x="733" y="427"/>
      <point x="715" y="302"/>
      <point x="673" y="236" type="curve" smooth="yes"/>
      <point x="646" y="186"/>
      <point x="598" y="165"/>
      <point x="540" y="165" type="curve" smooth="yes"/>
      <point x="483" y="165"/>
      <point x="436" y="187"/>
      <point x="407" y="236" type="curve" smooth="yes"/>
      <point x="363" y="302"/>
      <point x="347" y="427"/>
    </contour>
  </outline>
</glyph>
<glyph name="one" format="2">
  <advance width="1080"/>
  <unicode hex="0031"/>
  <outline>
    <contour>
      <point x="719" y="343" type="curve" smooth="yes"/>
      <point x="719" y="1266" type="line"/>
      <point x="676" y="1274"/>
      <point x="638" y="1276"/>
      <point x="603" y="1276" type="curve" smooth="yes"/>
      <point x="568" y="1276"/>
      <point x="528" y="1274"/>
      <point x="485" y="1266" type="curve"/>
      <point x="490" y="1017" type="line" smooth="yes"/>
      <point x="492" y="935"/>
      <point x="477" y="766"/>
      <point x="477" y="694" type="curve" smooth="yes"/>
      <point x="477" y="343" type="line" smooth="yes"/>
      <point x="477" y="289"/>
      <point x="479" y="240"/>
      <point x="479" y="184" type="curve" smooth="yes"/>
      <point x="479" y="99" type="line"/>
      <point x="717" y="99" type="line"/>
      <point x="717" y="184" type="line" smooth="yes"/>
      <point x="717" y="240"/>
      <point x="719" y="289"/>
    </contour>
    <contour>
      <point x="359" y="205" type="curve" smooth="yes"/>
      <point x="184" y="205" type="line"/>
      <point x="176" y="174"/>
      <point x="172" y="137"/>
      <point x="172" y="103" type="curve" smooth="yes"/>
      <point x="172" y="69"/>
      <point x="176" y="34"/>
      <point x="184" y="0" type="curve"/>
      <point x="968" y="0" type="line"/>
      <point x="975" y="32"/>
      <point x="980" y="69"/>
      <point x="980" y="103" type="curve" smooth="yes"/>
      <point x="980" y="137"/>
      <point x="975" y="174"/>
      <point x="968" y="205" type="curve"/>
      <point x="842" y="205" type="line" smooth="yes"/>
      <point x="814" y="205"/>
      <point x="742" y="203"/>
      <point x="713" y="203" type="curve" smooth="yes"/>
      <point x="483" y="203" type="line" smooth="yes"/>
      <point x="454" y="203"/>
      <point x="387" y="205"/>
    </contour>
    <contour>
      <point x="104" y="874" type="curve"/>
      <point x="115" y="812"/>
      <point x="158" y="754"/>
      <point x="208" y="728" type="curve"/>
      <point x="352" y="791"/>
      <point x="517" y="919"/>
      <point x="573" y="1072" type="curve"/>
      <point x="485" y="1266" type="line"/>
      <point x="423" y="1132"/>
      <point x="300" y="996"/>
    </contour>
  </outline>
</glyph>
<glyph name="two" format="2">
  <advance width="1080"/>
  <unicode hex="0032"/>
  <outline>
    <contour>
      <point x="119" y="984" type="curve"/>
      <point x="151" y="934"/>
      <point x="236" y="907"/>
      <point x="296" y="905" type="curve"/>
      <point x="332" y="1003"/>
      <point x="406" y="1090"/>
      <point x="511" y="1090" type="curve" smooth="yes"/>
      <point x="614" y="1090"/>
      <point x="683" y="1019"/>
      <point x="683" y="916" type="curve" smooth="yes"/>
      <point x="683" y="822"/>
      <point x="630" y="756"/>
      <point x="551" y="687" type="curve" smooth="yes"/>
      <point x="347" y="513" type="line" smooth="yes"/>
      <point x="219" y="402"/>
      <point x="105" y="275"/>
      <point x="105" y="163" type="curve" smooth="yes"/>
      <point x="105" y="100"/>
      <point x="149" y="50"/>
      <point x="197" y="-1" type="curve"/>
      <point x="346" y="-1" type="line"/>
      <point x="353" y="172" type="line" smooth="yes"/>
      <point x="354" y="221"/>
      <point x="446" y="308"/>
      <point x="542" y="389" type="curve" smooth="yes"/>
      <point x="692" y="510" type="line" smooth="yes"/>
      <point x="822" y="620"/>
      <point x="937" y="727"/>
      <point x="937" y="911" type="curve" smooth="yes"/>
      <point x="937" y="1139"/>
      <point x="780" y="1293"/>
      <point x="535" y="1293" type="curve" smooth="yes"/>
      <point x="322" y="1293"/>
      <point x="174" y="1151"/>
    </contour>
    <contour>
      <point x="970" y="213" type="curve"/>
      <point x="638" y="213" type="line" smooth="yes"/>
      <point x="512" y="213"/>
      <point x="276" y="196"/>
      <point x="143" y="154" type="curve"/>
      <point x="213" y="-1" type="line"/>
      <point x="809" y="-1" type="line" smooth="yes"/>
      <point x="925" y="-1"/>
      <point x="970" y="48"/>
    </contour>
  </outline>
</glyph>
<glyph name="three" format="2">
  <advance width="1080"/>
  <unicode hex="0033"/>
  <outline>
    <contour>
      <point x="716" y="404" type="curve" smooth="yes"/>
      <point x="716" y="256"/>
      <point x="615" y="174"/>
      <point x="476" y="174" type="curve" smooth="yes"/>
      <point x="369" y="174"/>
      <point x="279" y="217"/>
      <point x="204" y="273" type="curve"/>
      <point x="153" y="234"/>
      <point x="109" y="168"/>
      <point x="98" y="110" type="curve"/>
      <point x="187" y="31"/>
      <point x="332" y="-27"/>
      <point x="508" y="-27" type="curve" smooth="yes"/>
      <point x="746" y="-27"/>
      <point x="973" y="117"/>
      <point x="973" y="395" type="curve" smooth="yes"/>
      <point x="973" y="643"/>
      <point x="796" y="765"/>
      <point x="579" y="765" type="curve" smooth="yes"/>
      <point x="453" y="765"/>
      <point x="366" y="740"/>
      <point x="289" y="707" type="curve"/>
      <point x="299" y="656"/>
      <point x="340" y="598"/>
      <point x="385" y="574" type="curve"/>
      <point x="422" y="593"/>
      <point x="469" y="603"/>
      <point x="510" y="603" type="curve" smooth="yes"/>
      <point x="632" y="603"/>
      <point x="716" y="531"/>
    </contour>
    <contour>
      <point x="685" y="820" type="curve" smooth="yes"/>
      <point x="874" y="1008" type="line" smooth="yes"/>
      <point x="909" y="1046"/>
      <point x="923" y="1078"/>
      <point x="923" y="1115" type="curve" smooth="yes"/>
      <point x="923" y="1148"/>
      <point x="910" y="1195"/>
      <point x="872" y="1266" type="curve"/>
      <point x="164" y="1266" type="line"/>
      <point x="147" y="1225"/>
      <point x="143" y="1181"/>
      <point x="143" y="1147" type="curve" smooth="yes"/>
      <point x="143" y="1126"/>
      <point x="145" y="1091"/>
      <point x="158" y="1055" type="curve"/>
      <point x="425" y="1055" type="line" smooth="yes"/>
      <point x="504" y="1055"/>
      <point x="595" y="1063"/>
      <point x="643" y="1076" type="curve"/>
      <point x="650" y="1065" type="line"/>
      <point x="616" y="1038"/>
      <point x="547" y="971"/>
      <point x="514" y="937" type="curve" smooth="yes"/>
      <point x="289" y="707" type="line"/>
      <point x="427" y="655" type="line"/>
      <point x="493" y="683"/>
      <point x="611" y="745"/>
    </contour>
  </outline>
</glyph>
<glyph name="four" format="2">
  <advance width="1080"/>
  <unicode hex="0034"/>
  <outline>
    <contour>
      <point x="128" y="255" type="curve"/>
      <point x="461" y="255" type="line" smooth="yes"/>
      <point x="502" y="255"/>
      <point x="544" y="258"/>
      <point x="584" y="258" type="curve" smooth="yes"/>
      <point x="820" y="258" type="line" smooth="yes"/>
      <point x="860" y="258"/>
      <point x="881" y="258"/>
      <point x="921" y="258" type="curve" smooth="yes"/>
      <point x="998" y="258" type="line"/>
      <point x="1009" y="296"/>
      <point x="1013" y="341"/>
      <point x="1013" y="373" type="curve" smooth="yes"/>
      <point x="1013" y="402"/>
      <point x="1012" y="434"/>
      <point x="1007" y="465" type="curve"/>
      <point x="921" y="465" type="line" smooth="yes"/>
      <point x="881" y="465"/>
      <point x="860" y="463"/>
      <point x="820" y="463" type="curve" smooth="yes"/>
      <point x="557" y="463" type="line" smooth="yes"/>
      <point x="519" y="463"/>
      <point x="393" y="459"/>
      <point x="315" y="452" type="curve"/>
      <point x="309" y="460" type="line"/>
      <point x="366" y="544"/>
      <point x="442" y="711"/>
      <point x="483" y="804" type="curve" smooth="yes"/>
      <point x="677" y="1231" type="line"/>
      <point x="634" y="1273"/>
      <point x="518" y="1294"/>
      <point x="448" y="1279" type="curve"/>
      <point x="112" y="534" type="line" smooth="yes"/>
      <point x="93" y="490"/>
      <point x="73" y="443"/>
      <point x="73" y="407" type="curve" smooth="yes"/>
      <point x="73" y="362"/>
      <point x="96" y="305"/>
    </contour>
    <contour>
      <point x="582" y="137" type="curve" smooth="yes"/>
      <point x="582" y="0" type="line"/>
      <point x="623" y="-7"/>
      <point x="664" y="-9"/>
      <point x="701" y="-9" type="curve" smooth="yes"/>
      <point x="740" y="-9"/>
      <point x="780" y="-7"/>
      <point x="822" y="0" type="curve"/>
      <point x="822" y="137" type="line" smooth="yes"/>
      <point x="822" y="178"/>
      <point x="820" y="219"/>
      <point x="820" y="258" type="curve" smooth="yes"/>
      <point x="820" y="463" type="line" smooth="yes"/>
      <point x="820" y="503"/>
      <point x="822" y="543"/>
      <point x="822" y="584" type="curve" smooth="yes"/>
      <point x="822" y="821" type="line"/>
      <point x="812" y="832" type="line"/>
      <point x="749" y="832" type="line" smooth="yes"/>
      <point x="644" y="832"/>
      <point x="582" y="759"/>
      <point x="582" y="639" type="curve" smooth="yes"/>
      <point x="582" y="517" type="line" smooth="yes"/>
      <point x="582" y="500"/>
      <point x="584" y="448"/>
      <point x="584" y="432" type="curve" smooth="yes"/>
      <point x="584" y="258" type="line" smooth="yes"/>
      <point x="584" y="219"/>
      <point x="582" y="178"/>
    </contour>
  </outline>
</glyph>
<glyph name="five" format="2">
  <advance width="1080"/>
  <unicode hex="0035"/>
  <outline>
    <contour>
      <point x="407" y="863" type="curve" smooth="yes"/>
      <point x="415" y="975" type="line" smooth="yes"/>
      <point x="418" y="1027"/>
      <point x="414" y="1156"/>
      <point x="405" y="1215" type="curve"/>
      <point x="186" y="1252" type="line"/>
      <point x="155" y="659" type="line"/>
      <point x="234" y="664"/>
      <point x="311" y="676"/>
      <point x="375" y="699" type="curve"/>
      <point x="393" y="751"/>
      <point x="402" y="807"/>
    </contour>
    <contour>
      <point x="107" y="104" type="curve"/>
      <point x="197" y="25"/>
      <point x="336" y="-27"/>
      <point x="492" y="-27" type="curve" smooth="yes"/>
      <point x="729" y="-27"/>
      <point x="965" y="118"/>
      <point x="965" y="435" type="curve" smooth="yes"/>
      <point x="965" y="685"/>
      <point x="806" y="844"/>
      <point x="550" y="844" type="curve" smooth="yes"/>
      <point x="375" y="844"/>
      <point x="234" y="740"/>
      <point x="155" y="659" type="curve"/>
      <point x="178" y="621"/>
      <point x="233" y="582"/>
      <point x="277" y="573" type="curve"/>
      <point x="339" y="624"/>
      <point x="410" y="651"/>
      <point x="481" y="651" type="curve" smooth="yes"/>
      <point x="593" y="651"/>
      <point x="709" y="592"/>
      <point x="709" y="422" type="curve" smooth="yes"/>
      <point x="709" y="254"/>
      <point x="598" y="175"/>
      <point x="473" y="175" type="curve" smooth="yes"/>
      <point x="372" y="175"/>
      <point x="290" y="212"/>
      <point x="210" y="268" type="curve"/>
      <point x="160" y="232"/>
      <point x="116" y="153"/>
    </contour>
    <contour>
      <point x="897" y="1266" type="curve"/>
      <point x="201" y="1266" type="line"/>
      <point x="186" y="1252" type="line"/>
      <point x="195" y="1069" type="line"/>
      <point x="238" y="1064"/>
      <point x="368" y="1057"/>
      <point x="468" y="1057" type="curve" smooth="yes"/>
      <point x="807" y="1057" type="line" smooth="yes"/>
      <point x="876" y="1057"/>
      <point x="914" y="1094"/>
      <point x="914" y="1164" type="curve" smooth="yes"/>
      <point x="914" y="1189"/>
      <point x="911" y="1227"/>
    </contour>
  </outline>
</glyph>
<glyph name="six" format="2">
  <advance width="1080"/>
  <unicode hex="0036"/>
  <outline>
    <contour>
      <point x="553" y="-27" type="curve" smooth="yes"/>
      <point x="799" y="-27"/>
      <point x="991" y="145"/>
      <point x="991" y="422" type="curve" smooth="yes"/>
      <point x="991" y="717"/>
      <point x="844" y="848"/>
      <point x="627" y="848" type="curve" smooth="yes"/>
      <point x="446" y="848"/>
      <point x="304" y="731"/>
      <point x="244" y="605" type="curve"/>
      <point x="289" y="475" type="line"/>
      <point x="357" y="580"/>
      <point x="462" y="644"/>
      <point x="563" y="644" type="curve" smooth="yes"/>
      <point x="669" y="644"/>
      <point x="741" y="583"/>
      <point x="741" y="407" type="curve" smooth="yes"/>
      <point x="741" y="261"/>
      <point x="681" y="160"/>
      <point x="556" y="160" type="curve" smooth="yes"/>
      <point x="496" y="160"/>
      <point x="455" y="189"/>
      <point x="426" y="225" type="curve" smooth="yes"/>
      <point x="376" y="291"/>
      <point x="355" y="411"/>
      <point x="355" y="525" type="curve" smooth="yes"/>
      <point x="355" y="711" type="line" smooth="yes"/>
      <point x="355" y="932"/>
      <point x="434" y="1097"/>
      <point x="641" y="1097" type="curve" smooth="yes"/>
      <point x="724" y="1097"/>
      <point x="791" y="1076"/>
      <point x="843" y="1054" type="curve"/>
      <point x="892" y="1093"/>
      <point x="922" y="1164"/>
      <point x="927" y="1228" type="curve"/>
      <point x="853" y="1268"/>
      <point x="746" y="1293"/>
      <point x="623" y="1293" type="curve" smooth="yes"/>
      <point x="283" y="1293"/>
      <point x="96" y="1038"/>
      <point x="96" y="628" type="curve" smooth="yes"/>
      <point x="96" y="262"/>
      <point x="197" y="155"/>
      <point x="233" y="110" type="curve" smooth="yes"/>
      <point x="270" y="64"/>
      <point x="364" y="-27"/>
    </contour>
  </outline>
</glyph>
<glyph name="seven" format="2">
  <advance width="1080"/>
  <unicode hex="0037"/>
  <outline>
    <contour>
      <point x="943" y="1266" type="curve"/>
      <point x="140" y="1266" type="line"/>
      <point x="126" y="1230"/>
      <point x="118" y="1185"/>
      <point x="118" y="1140" type="curve" smooth="yes"/>
      <point x="118" y="1112"/>
      <point x="122" y="1080"/>
      <point x="129" y="1055" type="curve"/>
      <point x="453" y="1055" type="line" smooth="yes"/>
      <point x="507" y="1055"/>
      <point x="687" y="1061"/>
      <point x="747" y="1076" type="curve"/>
      <point x="755" y="1066" type="line"/>
      <point x="507" y="821"/>
      <point x="338" y="446"/>
      <point x="306" y="88" type="curve" smooth="yes"/>
      <point x="298" y="0" type="line"/>
      <point x="335" y="-7"/>
      <point x="381" y="-10"/>
      <point x="426" y="-10" type="curve" smooth="yes"/>
      <point x="473" y="-10"/>
      <point x="519" y="-7"/>
      <point x="551" y="0" type="curve"/>
      <point x="559" y="80" type="line" smooth="yes"/>
      <point x="592" y="436"/>
      <point x="690" y="666"/>
      <point x="949" y="1011" type="curve" smooth="yes"/>
      <point x="976" y="1048"/>
      <point x="989" y="1085"/>
      <point x="989" y="1113" type="curve" smooth="yes"/>
      <point x="989" y="1155"/>
      <point x="965" y="1220"/>
    </contour>
  </outline>
</glyph>
<glyph name="eight" format="2">
  <advance width="1080"/>
  <unicode hex="0038"/>
  <outline>
    <contour>
      <point x="84" y="320" type="curve" smooth="yes"/>
      <point x="84" y="100"/>
      <point x="261" y="-27"/>
      <point x="529" y="-27" type="curve" smooth="yes"/>
      <point x="784" y="-27"/>
      <point x="995" y="108"/>
      <point x="995" y="335" type="curve" smooth="yes"/>
      <point x="995" y="557"/>
      <point x="827" y="679"/>
      <point x="609" y="751" type="curve" smooth="yes"/>
      <point x="569" y="765" type="line" smooth="yes"/>
      <point x="443" y="804"/>
      <point x="363" y="860"/>
      <point x="363" y="956" type="curve" smooth="yes"/>
      <point x="363" y="1050"/>
      <point x="439" y="1114"/>
      <point x="538" y="1114" type="curve" smooth="yes"/>
      <point x="642" y="1114"/>
      <point x="717" y="1050"/>
      <point x="717" y="951" type="curve" smooth="yes"/>
      <point x="717" y="848"/>
      <point x="643" y="760"/>
      <point x="510" y="716" type="curve"/>
      <point x="675" y="645" type="line"/>
      <point x="819" y="687"/>
      <point x="959" y="799"/>
      <point x="959" y="961" type="curve" smooth="yes"/>
      <point x="959" y="1155"/>
      <point x="791" y="1293"/>
      <point x="539" y="1293" type="curve" smooth="yes"/>
      <point x="298" y="1293"/>
      <point x="118" y="1149"/>
      <point x="118" y="954" type="curve" smooth="yes"/>
      <point x="118" y="760"/>
      <point x="264" y="655"/>
      <point x="483" y="578" type="curve" smooth="yes"/>
      <point x="524" y="563" type="line" smooth="yes"/>
      <point x="647" y="522"/>
      <point x="741" y="449"/>
      <point x="741" y="337" type="curve" smooth="yes"/>
      <point x="741" y="226"/>
      <point x="657" y="148"/>
      <point x="538" y="148" type="curve" smooth="yes"/>
      <point x="421" y="148"/>
      <point x="335" y="220"/>
      <point x="335" y="337" type="curve" smooth="yes"/>
      <point x="335" y="451"/>
      <point x="410" y="567"/>
      <point x="578" y="627" type="curve"/>
      <point x="406" y="697" type="line"/>
      <point x="246" y="646"/>
      <point x="84" y="506"/>
    </contour>
  </outline>
</glyph>
<glyph name="nine" format="2">
  <advance width="1080"/>
  <unicode hex="0039"/>
  <outline>
    <contour>
      <point x="527" y="1293" type="curve" smooth="yes"/>
      <point x="281" y="1293"/>
      <point x="89" y="1121"/>
      <point x="89" y="844" type="curve" smooth="yes"/>
      <point x="89" y="549"/>
      <point x="236" y="418"/>
      <point x="453" y="418" type="curve" smooth="yes"/>
      <point x="634" y="418"/>
      <point x="776" y="535"/>
      <point x="836" y="661" type="curve"/>
      <point x="791" y="791" type="line"/>
      <point x="723" y="686"/>
      <point x="618" y="622"/>
      <point x="517" y="622" type="curve" smooth="yes"/>
      <point x="411" y="622"/>
      <point x="339" y="683"/>
      <point x="339" y="859" type="curve" smooth="yes"/>
      <point x="339" y="1005"/>
      <point x="399" y="1106"/>
      <point x="524" y="1106" type="curve" smooth="yes"/>
      <point x="584" y="1106"/>
      <point x="625" y="1077"/>
      <point x="654" y="1041" type="curve" smooth="yes"/>
      <point x="705" y="976"/>
      <point x="725" y="855"/>
      <point x="725" y="741" type="curve" smooth="yes"/>
      <point x="725" y="555" type="line" smooth="yes"/>
      <point x="725" y="334"/>
      <point x="646" y="169"/>
      <point x="439" y="169" type="curve" smooth="yes"/>
      <point x="356" y="169"/>
      <point x="289" y="190"/>
      <point x="237" y="212" type="curve"/>
      <point x="188" y="173"/>
      <point x="158" y="102"/>
      <point x="153" y="38" type="curve"/>
      <point x="227" y="-2"/>
      <point x="334" y="-27"/>
      <point x="457" y="-27" type="curve" smooth="yes"/>
      <point x="797" y="-27"/>
      <point x="984" y="228"/>
      <point x="984" y="638" type="curve" smooth="yes"/>
      <point x="984" y="1004"/>
      <point x="883" y="1111"/>
      <point x="847" y="1156" type="curve" smooth="yes"/>
      <point x="811" y="1203"/>
      <point x="716" y="1293"/>
    </contour>
  </outline>
</glyph>
<glyph name="less" format="2">
  <advance width="1080"/>
  <unicode hex="003C"/>
  <outline>
    <contour>
      <point x="843" y="1126" type="curve"/>
      <point x="115" y="726" type="line"/>
      <point x="98" y="668"/>
      <point x="101" y="590"/>
      <point x="115" y="534" type="curve"/>
      <point x="842" y="133" type="line"/>
      <point x="900" y="167"/>
      <point x="950" y="248"/>
      <point x="957" y="328" type="curve"/>
      <point x="523" y="554" type="line" smooth="yes"/>
      <point x="485" y="574"/>
      <point x="404" y="610"/>
      <point x="367" y="624" type="curve"/>
      <point x="367" y="638" type="line"/>
      <point x="404" y="652"/>
      <point x="485" y="687"/>
      <point x="523" y="707" type="curve" smooth="yes"/>
      <point x="957" y="933" type="line"/>
      <point x="952" y="1013"/>
      <point x="903" y="1091"/>
    </contour>
  </outline>
</glyph>
<glyph name="equal" format="2">
  <advance width="1080"/>
  <unicode hex="003D"/>
  <outline>
    <contour>
      <point x="120" y="325" type="curve"/>
      <point x="960" y="325" type="line"/>
      <point x="969" y="358"/>
      <point x="971" y="399"/>
      <point x="971" y="427" type="curve" smooth="yes"/>
      <point x="971" y="455"/>
      <point x="969" y="497"/>
      <point x="960" y="530" type="curve"/>
      <point x="120" y="530" type="line"/>
      <point x="111" y="497"/>
      <point x="109" y="455"/>
      <point x="109" y="427" type="curve" smooth="yes"/>
      <point x="109" y="399"/>
      <point x="111" y="358"/>
    </contour>
    <contour>
      <point x="120" y="738" type="curve"/>
      <point x="960" y="738" type="line"/>
      <point x="969" y="771"/>
      <point x="971" y="812"/>
      <point x="971" y="840" type="curve" smooth="yes"/>
      <point x="971" y="868"/>
      <point x="969" y="910"/>
      <point x="960" y="943" type="curve"/>
      <point x="120" y="943" type="line"/>
      <point x="111" y="910"/>
      <point x="109" y="868"/>
      <point x="109" y="840" type="curve" smooth="yes"/>
      <point x="109" y="812"/>
      <point x="111" y="771"/>
    </contour>
  </outline>
</glyph>
<glyph name="greater" format="2">
  <advance width="1072"/>
  <unicode hex="003E"/>
  <outline>
    <contour>
      <point x="232" y="136" type="curve"/>
      <point x="960" y="536" type="line"/>
      <point x="978" y="595"/>
      <point x="975" y="672"/>
      <point x="960" y="728" type="curve"/>
      <point x="234" y="1129" type="line"/>
      <point x="176" y="1095"/>
      <point x="126" y="1014"/>
      <point x="119" y="934" type="curve"/>
      <point x="552" y="708" type="line" smooth="yes"/>
      <point x="591" y="688"/>
      <point x="672" y="653"/>
      <point x="709" y="639" type="curve"/>
      <point x="709" y="624" type="line"/>
      <point x="672" y="610"/>
      <point x="591" y="575"/>
      <point x="552" y="555" type="curve" smooth="yes"/>
      <point x="119" y="329" type="line"/>
      <point x="124" y="249"/>
      <point x="172" y="171"/>
    </contour>
  </outline>
</glyph>
<glyph name="question" format="2">
  <advance width="811"/>
  <unicode hex="003F"/>
  <outline>
    <contour>
      <point x="14" y="1287" type="curve"/>
      <point x="18" y="1222"/>
      <point x="59" y="1141"/>
      <point x="104" y="1106" type="curve"/>
      <point x="180" y="1145"/>
      <point x="265" y="1178"/>
      <point x="352" y="1178" type="curve" smooth="yes"/>
      <point x="469" y="1178"/>
      <point x="534" y="1114"/>
      <point x="534" y="1018" type="curve" smooth="yes"/>
      <point x="534" y="911"/>
      <point x="443" y="838"/>
      <point x="314" y="774" type="curve" smooth="yes"/>
      <point x="211" y="725" type="line"/>
      <point x="191" y="699" type="line"/>
      <point x="205" y="401" type="line"/>
      <point x="235" y="392"/>
      <point x="272" y="389"/>
      <point x="302" y="389" type="curve" smooth="yes"/>
      <point x="333" y="389"/>
      <point x="365" y="392"/>
      <point x="393" y="401" type="curve"/>
      <point x="411" y="585" type="line"/>
      <point x="534" y="652" type="line" smooth="yes"/>
      <point x="682" y="733"/>
      <point x="795" y="853"/>
      <point x="795" y="1044" type="curve" smooth="yes"/>
      <point x="795" y="1251"/>
      <point x="653" y="1394"/>
      <point x="408" y="1394" type="curve" smooth="yes"/>
      <point x="261" y="1394"/>
      <point x="124" y="1349"/>
    </contour>
    <contour>
      <point x="301" y="239" type="curve" smooth="yes"/>
      <point x="255" y="239"/>
      <point x="206" y="228"/>
      <point x="174" y="210" type="curve"/>
      <point x="163" y="190"/>
      <point x="156" y="138"/>
      <point x="156" y="107" type="curve" smooth="yes"/>
      <point x="156" y="76"/>
      <point x="163" y="26"/>
      <point x="174" y="5" type="curve"/>
      <point x="206" y="-13"/>
      <point x="255" y="-23"/>
      <point x="301" y="-23" type="curve" smooth="yes"/>
      <point x="347" y="-23"/>
      <point x="398" y="-13"/>
      <point x="428" y="5" type="curve"/>
      <point x="441" y="26"/>
      <point x="448" y="76"/>
      <point x="448" y="107" type="curve" smooth="yes"/>
      <point x="448" y="138"/>
      <point x="441" y="190"/>
      <point x="428" y="210" type="curve"/>
      <point x="398" y="228"/>
      <point x="347" y="239"/>
    </contour>
  </outline>
</glyph>
<glyph name="at" format="2">
  <advance width="1921"/>
  <unicode hex="0040"/>
  <outline>
    <contour>
      <point x="1350" y="320" type="curve" smooth="yes"/>
      <point x="1350" y="824" type="line"/>
      <point x="1272" y="900"/>
      <point x="1134" y="966"/>
      <point x="987" y="966" type="curve" smooth="yes"/>
      <point x="718" y="966"/>
      <point x="570" y="745"/>
      <point x="570" y="453" type="curve" smooth="yes"/>
      <point x="570" y="184"/>
      <point x="686" y="4"/>
      <point x="892" y="4" type="curve" smooth="yes"/>
      <point x="1052" y="4"/>
      <point x="1205" y="140"/>
      <point x="1255" y="256" type="curve"/>
      <point x="1167" y="371" type="line"/>
      <point x="1130" y="282"/>
      <point x="1031" y="193"/>
      <point x="947" y="193" type="curve" smooth="yes"/>
      <point x="846" y="193"/>
      <point x="809" y="292"/>
      <point x="809" y="462" type="curve" smooth="yes"/>
      <point x="809" y="641"/>
      <point x="859" y="790"/>
      <point x="987" y="790" type="curve" smooth="yes"/>
      <point x="1042" y="790"/>
      <point x="1087" y="770"/>
      <point x="1118" y="741" type="curve"/>
      <point x="1118" y="299" type="line" smooth="yes"/>
      <point x="1118" y="136"/>
      <point x="1238" y="12"/>
      <point x="1423" y="12" type="curve" smooth="yes"/>
      <point x="1633" y="12"/>
      <point x="1846" y="196"/>
      <point x="1846" y="585" type="curve" smooth="yes"/>
      <point x="1846" y="1069"/>
      <point x="1486" y="1361"/>
      <point x="993" y="1361" type="curve" smooth="yes"/>
      <point x="469" y="1361"/>
      <point x="92" y="976"/>
      <point x="92" y="448" type="curve" smooth="yes"/>
      <point x="92" y="-114"/>
      <point x="431" y="-388"/>
      <point x="904" y="-388" type="curve" smooth="yes"/>
      <point x="1066" y="-388"/>
      <point x="1251" y="-350"/>
      <point x="1386" y="-294" type="curve"/>
      <point x="1386" y="-238"/>
      <point x="1362" y="-165"/>
      <point x="1322" y="-123" type="curve"/>
      <point x="1198" y="-172"/>
      <point x="1063" y="-198"/>
      <point x="922" y="-198" type="curve" smooth="yes"/>
      <point x="569" y="-198"/>
      <point x="339" y="20"/>
      <point x="339" y="448" type="curve" smooth="yes"/>
      <point x="339" y="869"/>
      <point x="597" y="1178"/>
      <point x="993" y="1178" type="curve" smooth="yes"/>
      <point x="1362" y="1178"/>
      <point x="1602" y="950"/>
      <point x="1602" y="592" type="curve" smooth="yes"/>
      <point x="1602" y="294"/>
      <point x="1516" y="195"/>
      <point x="1428" y="195" type="curve" smooth="yes"/>
      <point x="1374" y="195"/>
      <point x="1350" y="230"/>
    </contour>
  </outline>
</glyph>
<glyph name="A" format="2">
  <advance width="1244"/>
  <unicode hex="0041"/>
  <anchor x="626" y="0" name="bottom"/>
  <anchor x="1212" y="16" name="ogonek"/>
  <anchor x="625" y="1464" name="top"/>
  <outline>
    <contour>
      <point x="479" y="1366" type="curve"/>
      <point x="31" y="18" type="line"/>
      <point x="40" y="5" type="line"/>
      <point x="71" y="-5"/>
      <point x="121" y="-11"/>
      <point x="163" y="-11" type="curve" smooth="yes"/>
      <point x="202" y="-11"/>
      <point x="240" y="-9"/>
      <point x="272" y="-2" type="curve"/>
      <point x="520" y="799" type="line" smooth="yes"/>
      <point x="545" y="886"/>
      <point x="585" y="1026"/>
      <point x="605" y="1124" type="curve"/>
      <point x="617" y="1124" type="line"/>
      <point x="646" y="1008"/>
      <point x="689" y="858"/>
      <point x="723" y="743" type="curve" smooth="yes"/>
      <point x="914" y="121" type="line" smooth="yes"/>
      <point x="945" y="13"/>
      <point x="985" y="-15"/>
      <point x="1065" y="-15" type="curve" smooth="yes"/>
      <point x="1116" y="-15"/>
      <point x="1177" y="-5"/>
      <point x="1212" y="16" type="curve"/>
      <point x="771" y="1365" type="line"/>
      <point x="733" y="1372"/>
      <point x="666" y="1375"/>
      <point x="626" y="1375" type="curve" smooth="yes"/>
      <point x="584" y="1375"/>
      <point x="519" y="1372"/>
    </contour>
    <contour>
      <point x="472" y="313" type="curve" smooth="yes"/>
      <point x="750" y="313" type="line" smooth="yes"/>
      <point x="772" y="313"/>
      <point x="849" y="315"/>
      <point x="873" y="315" type="curve" smooth="yes"/>
      <point x="998" y="315" type="line"/>
      <point x="932" y="517" type="line"/>
      <point x="818" y="517" type="line" smooth="yes"/>
      <point x="795" y="517"/>
      <point x="726" y="519"/>
      <point x="704" y="519" type="curve" smooth="yes"/>
      <point x="525" y="519" type="line" smooth="yes"/>
      <point x="503" y="519"/>
      <point x="436" y="517"/>
      <point x="413" y="517" type="curve" smooth="yes"/>
      <point x="303" y="517" type="line"/>
      <point x="224" y="315" type="line"/>
      <point x="350" y="315" type="line" smooth="yes"/>
      <point x="373" y="315"/>
      <point x="449" y="313"/>
    </contour>
  </outline>
</glyph>
<glyph name="B" format="2">
  <advance width="1218"/>
  <unicode hex="0042"/>
  <anchor x="595" y="0" name="bottom"/>
  <anchor x="571" y="1464" name="top"/>
  <outline>
    <contour>
      <point x="183" y="1368" type="curve"/>
      <point x="170" y="1355" type="line"/>
      <point x="170" y="11" type="line"/>
      <point x="183" y="-2" type="line"/>
      <point x="342" y="-5"/>
      <point x="485" y="-9"/>
      <point x="644" y="-9" type="curve" smooth="yes"/>
      <point x="967" y="-9"/>
      <point x="1130" y="142"/>
      <point x="1130" y="386" type="curve" smooth="yes"/>
      <point x="1130" y="583"/>
      <point x="975" y="741"/>
      <point x="810" y="747" type="curve"/>
      <point x="810" y="717" type="line"/>
      <point x="956" y="734"/>
      <point x="1066" y="863"/>
      <point x="1066" y="1013" type="curve" smooth="yes"/>
      <point x="1066" y="1249"/>
      <point x="905" y="1375"/>
      <point x="616" y="1375" type="curve" smooth="yes"/>
      <point x="480" y="1375"/>
      <point x="335" y="1371"/>
    </contour>
    <contour>
      <point x="421" y="175" type="curve"/>
      <point x="421" y="1190" type="line"/>
      <point x="480" y="1188"/>
      <point x="561" y="1188"/>
      <point x="608" y="1188" type="curve" smooth="yes"/>
      <point x="775" y="1188"/>
      <point x="813" y="1091"/>
      <point x="813" y="1001" type="curve" smooth="yes"/>
      <point x="813" y="912"/>
      <point x="773" y="811"/>
      <point x="605" y="811" type="curve" smooth="yes"/>
      <point x="323" y="811" type="line"/>
      <point x="323" y="623" type="line"/>
      <point x="627" y="623" type="line" smooth="yes"/>
      <point x="820" y="623"/>
      <point x="872" y="494"/>
      <point x="872" y="399" type="curve" smooth="yes"/>
      <point x="872" y="304"/>
      <point x="831" y="177"/>
      <point x="635" y="177" type="curve" smooth="yes"/>
      <point x="573" y="177"/>
      <point x="498" y="176"/>
    </contour>
  </outline>
</glyph>
<glyph name="C" format="2">
  <advance width="1212"/>
  <unicode hex="0043"/>
  <anchor x="646" y="0" name="bottom"/>
  <anchor x="646" y="1466" name="top"/>
  <outline>
    <contour>
      <point x="899" y="866" type="curve"/>
      <point x="934" y="857"/>
      <point x="962" y="852"/>
      <point x="1000" y="852" type="curve" smooth="yes"/>
      <point x="1097" y="852"/>
      <point x="1145" y="901"/>
      <point x="1145" y="994" type="curve" smooth="yes"/>
      <point x="1145" y="1209"/>
      <point x="952" y="1395"/>
      <point x="650" y="1395" type="curve" smooth="yes"/>
      <point x="346" y="1395"/>
      <point x="88" y="1177"/>
      <point x="88" y="677" type="curve" smooth="yes"/>
      <point x="88" y="327"/>
      <point x="223" y="-27"/>
      <point x="621" y="-27" type="curve" smooth="yes"/>
      <point x="832" y="-27"/>
      <point x="1025" y="66"/>
      <point x="1137" y="177" type="curve"/>
      <point x="1124" y="237"/>
      <point x="1068" y="307"/>
      <point x="1016" y="342" type="curve"/>
      <point x="909" y="256"/>
      <point x="795" y="194"/>
      <point x="665" y="194" type="curve" smooth="yes"/>
      <point x="470" y="194"/>
      <point x="356" y="363"/>
      <point x="356" y="676" type="curve" smooth="yes"/>
      <point x="356" y="1011"/>
      <point x="448" y="1190"/>
      <point x="643" y="1190" type="curve" smooth="yes"/>
      <point x="844" y="1190"/>
      <point x="902" y="1023"/>
    </contour>
  </outline>
</glyph>
<glyph name="D" format="2">
  <advance width="1311"/>
  <unicode hex="0044"/>
  <guideline x="626" y="596" angle="90.0"/>
  <anchor x="620" y="0" name="bottom"/>
  <anchor x="626" y="1464" name="top"/>
  <outline>
    <contour>
      <point x="1220" y="683" type="curve" smooth="yes"/>
      <point x="1220" y="915"/>
      <point x="1186" y="1127"/>
      <point x="1003" y="1275" type="curve" smooth="yes"/>
      <point x="915" y="1347"/>
      <point x="756" y="1375"/>
      <point x="648" y="1375" type="curve" smooth="yes"/>
      <point x="481" y="1375"/>
      <point x="356" y="1374"/>
      <point x="183" y="1368" type="curve"/>
      <point x="170" y="1355" type="line"/>
      <point x="170" y="11" type="line"/>
      <point x="183" y="-2" type="line"/>
      <point x="357" y="-6"/>
      <point x="481" y="-10"/>
      <point x="648" y="-10" type="curve" smooth="yes"/>
      <point x="756" y="-10"/>
      <point x="914" y="19"/>
      <point x="1003" y="91" type="curve" smooth="yes"/>
      <point x="1188" y="239"/>
      <point x="1220" y="449"/>
    </contour>
    <contour>
      <point x="957" y="683" type="curve" smooth="yes"/>
      <point x="957" y="459"/>
      <point x="918" y="191"/>
      <point x="647" y="191" type="curve" smooth="yes"/>
      <point x="569" y="191"/>
      <point x="507" y="192"/>
      <point x="424" y="191" type="curve"/>
      <point x="424" y="1176" type="line"/>
      <point x="507" y="1175"/>
      <point x="569" y="1174"/>
      <point x="647" y="1174" type="curve" smooth="yes"/>
      <point x="918" y="1174"/>
      <point x="957" y="908"/>
    </contour>
  </outline>
</glyph>
<glyph name="E" format="2">
  <advance width="1138"/>
  <unicode hex="0045"/>
  <anchor x="619" y="0" name="bottom"/>
  <anchor x="924" y="0" name="ogonek"/>
  <anchor x="598" y="1464" name="top"/>
  <outline>
    <contour>
      <point x="169" y="1353" type="line"/>
      <point x="169" y="149" type="line" smooth="yes"/>
      <point x="169" y="54"/>
      <point x="224" y="-3"/>
      <point x="314" y="-3" type="curve" smooth="yes"/>
      <point x="418" y="-3" type="line"/>
      <point x="418" y="208" type="line" smooth="yes"/>
      <point x="418" y="252"/>
      <point x="420" y="283"/>
      <point x="420" y="326" type="curve" smooth="yes"/>
      <point x="420" y="1016" type="line" smooth="yes"/>
      <point x="420" y="1070"/>
      <point x="418" y="1101"/>
      <point x="418" y="1157" type="curve" smooth="yes"/>
      <point x="418" y="1366" type="line"/>
      <point x="182" y="1366" type="line"/>
    </contour>
    <contour>
      <point x="896" y="793" type="curve"/>
      <point x="548" y="793" type="line" smooth="yes"/>
      <point x="501" y="793"/>
      <point x="393" y="791"/>
      <point x="332" y="790" type="curve"/>
      <point x="332" y="587" type="line"/>
      <point x="393" y="586"/>
      <point x="501" y="584"/>
      <point x="548" y="584" type="curve" smooth="yes"/>
      <point x="896" y="584" type="line"/>
      <point x="906" y="617"/>
      <point x="911" y="660"/>
      <point x="911" y="689" type="curve" smooth="yes"/>
      <point x="911" y="716"/>
      <point x="906" y="761"/>
    </contour>
    <contour>
      <point x="1009" y="1366" type="curve"/>
      <point x="332" y="1366" type="line"/>
      <point x="332" y="1155" type="line"/>
      <point x="393" y="1153"/>
      <point x="501" y="1152"/>
      <point x="548" y="1152" type="curve" smooth="yes"/>
      <point x="997" y="1152" type="line"/>
      <point x="1011" y="1190"/>
      <point x="1017" y="1237"/>
      <point x="1017" y="1265" type="curve" smooth="yes"/>
      <point x="1017" y="1294"/>
      <point x="1016" y="1328"/>
    </contour>
    <contour>
      <point x="1052" y="211" type="curve"/>
      <point x="556" y="211" type="line" smooth="yes"/>
      <point x="468" y="211"/>
      <point x="405" y="206"/>
      <point x="332" y="202" type="curve"/>
      <point x="332" y="-3" type="line"/>
      <point x="885" y="-3" type="line" smooth="yes"/>
      <point x="1016" y="-3"/>
      <point x="1052" y="64"/>
    </contour>
  </outline>
</glyph>
<glyph name="F" format="2">
  <advance width="1054"/>
  <unicode hex="0046"/>
  <anchor x="593" y="1464" name="top"/>
  <outline>
    <contour>
      <point x="425" y="0" type="curve"/>
      <point x="425" y="945" type="line" smooth="yes"/>
      <point x="425" y="1048"/>
      <point x="423" y="1158"/>
      <point x="423" y="1264" type="curve" smooth="yes"/>
      <point x="423" y="1366" type="line"/>
      <point x="183" y="1366" type="line"/>
      <point x="170" y="1354" type="line"/>
      <point x="170" y="0" type="line"/>
      <point x="211" y="-7"/>
      <point x="261" y="-9"/>
      <point x="299" y="-9" type="curve" smooth="yes"/>
      <point x="337" y="-9"/>
      <point x="383" y="-7"/>
    </contour>
    <contour>
      <point x="1000" y="1366" type="curve"/>
      <point x="321" y="1366" type="line"/>
      <point x="321" y="1153" type="line"/>
      <point x="402" y="1151"/>
      <point x="490" y="1149"/>
      <point x="595" y="1149" type="curve" smooth="yes"/>
      <point x="872" y="1149" type="line" smooth="yes"/>
      <point x="967" y="1149"/>
      <point x="1012" y="1184"/>
      <point x="1012" y="1267" type="curve" smooth="yes"/>
      <point x="1012" y="1297"/>
      <point x="1008" y="1338"/>
    </contour>
    <contour>
      <point x="888" y="790" type="curve"/>
      <point x="491" y="790" type="line" smooth="yes"/>
      <point x="439" y="790"/>
      <point x="375" y="788"/>
      <point x="328" y="787" type="curve"/>
      <point x="328" y="582" type="line"/>
      <point x="375" y="581"/>
      <point x="439" y="579"/>
      <point x="491" y="579" type="curve" smooth="yes"/>
      <point x="888" y="579" type="line"/>
      <point x="896" y="612"/>
      <point x="901" y="656"/>
      <point x="901" y="685" type="curve" smooth="yes"/>
      <point x="901" y="713"/>
      <point x="896" y="759"/>
    </contour>
  </outline>
</glyph>
<glyph name="G" format="2">
  <advance width="1295"/>
  <unicode hex="0047"/>
  <anchor x="682" y="0" name="bottom"/>
  <anchor x="694" y="1464" name="top"/>
  <outline>
    <contour>
      <point x="1174" y="1248" type="curve"/>
      <point x="1049" y="1336"/>
      <point x="874" y="1393"/>
      <point x="701" y="1393" type="curve" smooth="yes"/>
      <point x="392" y="1393"/>
      <point x="88" y="1173"/>
      <point x="88" y="674" type="curve" smooth="yes"/>
      <point x="88" y="277"/>
      <point x="255" y="-27"/>
      <point x="678" y="-27" type="curve" smooth="yes"/>
      <point x="868" y="-27"/>
      <point x="1059" y="14"/>
      <point x="1177" y="56" type="curve"/>
      <point x="1045" y="239" type="line"/>
      <point x="980" y="215"/>
      <point x="859" y="178"/>
      <point x="722" y="178" type="curve" smooth="yes"/>
      <point x="477" y="178"/>
      <point x="350" y="333"/>
      <point x="350" y="671" type="curve" smooth="yes"/>
      <point x="350" y="1038"/>
      <point x="501" y="1179"/>
      <point x="711" y="1179" type="curve" smooth="yes"/>
      <point x="832" y="1179"/>
      <point x="960" y="1131"/>
      <point x="1056" y="1062" type="curve"/>
      <point x="1108" y="1096"/>
      <point x="1166" y="1173"/>
    </contour>
    <contour>
      <point x="936" y="394" type="curve" smooth="yes"/>
      <point x="936" y="53" type="line"/>
      <point x="1177" y="56" type="line"/>
      <point x="1177" y="580" type="line"/>
      <point x="959" y="653" type="line"/>
      <point x="940" y="581"/>
      <point x="936" y="487"/>
    </contour>
    <contour>
      <point x="1002" y="741" type="curve" smooth="yes"/>
      <point x="692" y="741" type="line"/>
      <point x="682" y="710"/>
      <point x="673" y="668"/>
      <point x="673" y="634" type="curve" smooth="yes"/>
      <point x="673" y="546"/>
      <point x="726" y="525"/>
      <point x="798" y="525" type="curve" smooth="yes"/>
      <point x="1177" y="525" type="line"/>
      <point x="1177" y="580" type="line" smooth="yes"/>
      <point x="1177" y="679"/>
      <point x="1133" y="741"/>
    </contour>
  </outline>
</glyph>
<glyph name="H" format="2">
  <advance width="1358"/>
  <unicode hex="0048"/>
  <anchor x="679" y="0" name="bottom"/>
  <anchor x="679" y="1465" name="top"/>
  <outline>
    <contour>
      <point x="531" y="597" type="curve" smooth="yes"/>
      <point x="827" y="597" type="line"/>
      <point x="850" y="597"/>
      <point x="912" y="599"/>
      <point x="935" y="599" type="curve" smooth="yes"/>
      <point x="985" y="599"/>
      <point x="1038" y="597"/>
      <point x="1088" y="597" type="curve"/>
      <point x="1088" y="813" type="line"/>
      <point x="1038" y="813"/>
      <point x="985" y="811"/>
      <point x="935" y="811" type="curve" smooth="yes"/>
      <point x="912" y="811"/>
      <point x="850" y="813"/>
      <point x="827" y="813" type="curve" smooth="yes"/>
      <point x="531" y="813" type="line" smooth="yes"/>
      <point x="509" y="813"/>
      <point x="446" y="811"/>
      <point x="423" y="811" type="curve" smooth="yes"/>
      <point x="373" y="811"/>
      <point x="321" y="813"/>
      <point x="271" y="813" type="curve"/>
      <point x="271" y="597" type="line"/>
      <point x="321" y="597"/>
      <point x="373" y="599"/>
      <point x="423" y="599" type="curve" smooth="yes"/>
      <point x="446" y="599"/>
      <point x="509" y="597"/>
    </contour>
    <contour>
      <point x="425" y="0" type="curve"/>
      <point x="425" y="451" type="line" smooth="yes"/>
      <point x="425" y="507"/>
      <point x="423" y="545"/>
      <point x="423" y="599" type="curve" smooth="yes"/>
      <point x="423" y="811" type="line" smooth="yes"/>
      <point x="423" y="865"/>
      <point x="425" y="903"/>
      <point x="425" y="959" type="curve" smooth="yes"/>
      <point x="425" y="1366" type="line"/>
      <point x="384" y="1373"/>
      <point x="334" y="1375"/>
      <point x="297" y="1375" type="curve" smooth="yes"/>
      <point x="262" y="1375"/>
      <point x="209" y="1373"/>
      <point x="170" y="1366" type="curve"/>
      <point x="170" y="0" type="line"/>
      <point x="209" y="-7"/>
      <point x="262" y="-9"/>
      <point x="297" y="-9" type="curve" smooth="yes"/>
      <point x="334" y="-9"/>
      <point x="384" y="-7"/>
    </contour>
    <contour>
      <point x="933" y="451" type="curve" smooth="yes"/>
      <point x="933" y="0" type="line"/>
      <point x="975" y="-7"/>
      <point x="1025" y="-9"/>
      <point x="1062" y="-9" type="curve" smooth="yes"/>
      <point x="1101" y="-9"/>
      <point x="1146" y="-7"/>
      <point x="1188" y="0" type="curve"/>
      <point x="1188" y="1366" type="line"/>
      <point x="1149" y="1373"/>
      <point x="1095" y="1375"/>
      <point x="1060" y="1375" type="curve" smooth="yes"/>
      <point x="1024" y="1375"/>
      <point x="973" y="1373"/>
      <point x="933" y="1366" type="curve"/>
      <point x="933" y="959" type="line" smooth="yes"/>
      <point x="933" y="903"/>
      <point x="935" y="865"/>
      <point x="935" y="811" type="curve" smooth="yes"/>
      <point x="935" y="599" type="line" smooth="yes"/>
      <point x="935" y="545"/>
      <point x="933" y="507"/>
    </contour>
  </outline>
</glyph>
<glyph name="I" format="2">
  <advance width="606"/>
  <unicode hex="0049"/>
  <anchor x="302" y="0" name="bottom"/>
  <anchor x="430" y="0" name="ogonek"/>
  <anchor x="303" y="1465" name="top"/>
  <outline>
    <contour>
      <point x="176" y="1366" type="curve"/>
      <point x="176" y="0" type="line"/>
      <point x="214" y="-7"/>
      <point x="268" y="-9"/>
      <point x="302" y="-9" type="curve" smooth="yes"/>
      <point x="339" y="-9"/>
      <point x="390" y="-7"/>
      <point x="430" y="0" type="curve"/>
      <point x="430" y="1366" type="line"/>
      <point x="390" y="1373"/>
      <point x="339" y="1375"/>
      <point x="302" y="1375" type="curve" smooth="yes"/>
      <point x="268" y="1375"/>
      <point x="214" y="1373"/>
    </contour>
  </outline>
</glyph>
<glyph name="J" format="2">
  <advance width="914"/>
  <unicode hex="004A"/>
  <anchor x="641" y="1464" name="top"/>
  <outline>
    <contour>
      <point x="111" y="255" type="curve"/>
      <point x="64" y="203"/>
      <point x="31" y="133"/>
      <point x="20" y="65" type="curve"/>
      <point x="110" y="10"/>
      <point x="233" y="-20"/>
      <point x="337" y="-20" type="curve" smooth="yes"/>
      <point x="695" y="-20"/>
      <point x="768" y="207"/>
      <point x="768" y="508" type="curve" smooth="yes"/>
      <point x="768" y="1366" type="line"/>
      <point x="728" y="1373"/>
      <point x="677" y="1375"/>
      <point x="641" y="1375" type="curve" smooth="yes"/>
      <point x="606" y="1375"/>
      <point x="552" y="1373"/>
      <point x="513" y="1366" type="curve"/>
      <point x="513" y="478" type="line" smooth="yes"/>
      <point x="513" y="285"/>
      <point x="469" y="192"/>
      <point x="313" y="192" type="curve" smooth="yes"/>
      <point x="243" y="192"/>
      <point x="170" y="219"/>
    </contour>
  </outline>
</glyph>
<glyph name="K" format="2">
  <advance width="1212"/>
  <unicode hex="004B"/>
  <anchor x="638" y="0" name="bottom"/>
  <anchor x="631" y="1464" name="top"/>
  <outline>
    <contour>
      <point x="170" y="1366" type="curve"/>
      <point x="170" y="0" type="line"/>
      <point x="209" y="-7"/>
      <point x="262" y="-9"/>
      <point x="297" y="-9" type="curve" smooth="yes"/>
      <point x="334" y="-9"/>
      <point x="384" y="-7"/>
      <point x="425" y="0" type="curve"/>
      <point x="425" y="1366" type="line"/>
      <point x="384" y="1373"/>
      <point x="334" y="1375"/>
      <point x="297" y="1375" type="curve" smooth="yes"/>
      <point x="262" y="1375"/>
      <point x="209" y="1373"/>
    </contour>
    <contour>
      <point x="1186" y="64" type="curve"/>
      <point x="1147" y="99"/>
      <point x="1125" y="129"/>
      <point x="1091" y="226" type="curve" smooth="yes"/>
      <point x="993" y="499" type="line" smooth="yes"/>
      <point x="939" y="651"/>
      <point x="872" y="747"/>
      <point x="659" y="747" type="curve" smooth="yes"/>
      <point x="295" y="747" type="line"/>
      <point x="295" y="586" type="line"/>
      <point x="408" y="594"/>
      <point x="493" y="598"/>
      <point x="541" y="598" type="curve" smooth="yes"/>
      <point x="651" y="598"/>
      <point x="709" y="547"/>
      <point x="759" y="406" type="curve" smooth="yes"/>
      <point x="855" y="136" type="line" smooth="yes"/>
      <point x="888" y="36"/>
      <point x="920" y="-15"/>
      <point x="1016" y="-15" type="curve" smooth="yes"/>
      <point x="1081" y="-15"/>
      <point x="1153" y="14"/>
    </contour>
    <contour>
      <point x="825" y="1278" type="curve" smooth="yes"/>
      <point x="594" y="874" type="line" smooth="yes"/>
      <point x="570" y="828"/>
      <point x="557" y="813"/>
      <point x="512" y="813" type="curve" smooth="yes"/>
      <point x="446" y="812"/>
      <point x="363" y="810"/>
      <point x="295" y="808" type="curve"/>
      <point x="295" y="663" type="line"/>
      <point x="533" y="663" type="line" smooth="yes"/>
      <point x="692" y="663"/>
      <point x="786" y="736"/>
      <point x="852" y="855" type="curve" smooth="yes"/>
      <point x="1131" y="1348" type="line"/>
      <point x="1116" y="1367" type="line"/>
      <point x="1066" y="1371"/>
      <point x="1009" y="1375"/>
      <point x="967" y="1375" type="curve" smooth="yes"/>
      <point x="887" y="1375"/>
      <point x="860" y="1343"/>
    </contour>
  </outline>
</glyph>
<glyph name="L" format="2">
  <advance width="1032"/>
  <unicode hex="004C"/>
  <anchor x="573" y="0" name="bottom"/>
  <anchor x="1032" y="786" name="periodcentered"/>
  <anchor x="294" y="1458" name="top"/>
  <anchor x="492" y="886" name="topright"/>
  <outline>
    <contour>
      <point x="424" y="-3" type="line"/>
      <point x="424" y="1215" type="line" smooth="yes"/>
      <point x="424" y="1327"/>
      <point x="378" y="1377"/>
      <point x="277" y="1377" type="curve" smooth="yes"/>
      <point x="182" y="1377" type="line"/>
      <point x="169" y="1363" type="line"/>
      <point x="169" y="150" type="line" smooth="yes"/>
      <point x="169" y="53"/>
      <point x="228" y="-3"/>
      <point x="316" y="-3" type="curve" smooth="yes"/>
    </contour>
    <contour>
      <point x="983" y="217" type="curve"/>
      <point x="605" y="217" type="line" smooth="yes"/>
      <point x="483" y="217"/>
      <point x="326" y="206"/>
      <point x="183" y="182" type="curve"/>
      <point x="316" y="-3" type="line"/>
      <point x="811" y="-3" type="line" smooth="yes"/>
      <point x="935" y="-3"/>
      <point x="983" y="51"/>
    </contour>
  </outline>
</glyph>
<glyph name="M" format="2">
  <advance width="1635"/>
  <unicode hex="004D"/>
  <anchor x="818" y="0" name="bottom"/>
  <anchor x="818" y="1464" name="top"/>
  <outline>
    <contour>
      <point x="239" y="1365" type="curve"/>
      <point x="133" y="3" type="line"/>
      <point x="168" y="-6"/>
      <point x="219" y="-10"/>
      <point x="260" y="-10" type="curve" smooth="yes"/>
      <point x="299" y="-10"/>
      <point x="337" y="-8"/>
      <point x="374" y="-2" type="curve"/>
      <point x="415" y="662" type="line" smooth="yes"/>
      <point x="422" y="783"/>
      <point x="428" y="966"/>
      <point x="431" y="1089" type="curve"/>
      <point x="443" y="1089" type="line"/>
      <point x="688" y="206" type="line"/>
      <point x="725" y="200"/>
      <point x="781" y="196"/>
      <point x="817" y="196" type="curve" smooth="yes"/>
      <point x="853" y="196"/>
      <point x="909" y="200"/>
      <point x="947" y="206" type="curve"/>
      <point x="1192" y="1089" type="line"/>
      <point x="1204" y="1089" type="line"/>
      <point x="1206" y="966"/>
      <point x="1213" y="783"/>
      <point x="1220" y="662" type="curve" smooth="yes"/>
      <point x="1261" y="-2" type="line"/>
      <point x="1298" y="-8"/>
      <point x="1334" y="-10"/>
      <point x="1373" y="-10" type="curve" smooth="yes"/>
      <point x="1414" y="-10"/>
      <point x="1466" y="-6"/>
      <point x="1502" y="3" type="curve"/>
      <point x="1396" y="1365" type="line"/>
      <point x="1339" y="1374"/>
      <point x="1268" y="1377"/>
      <point x="1224" y="1377" type="curve" smooth="yes"/>
      <point x="1180" y="1377"/>
      <point x="1121" y="1374"/>
      <point x="1063" y="1365" type="curve"/>
      <point x="901" y="792" type="line" smooth="yes"/>
      <point x="885" y="735"/>
      <point x="836" y="530"/>
      <point x="824" y="456" type="curve"/>
      <point x="811" y="456" type="line"/>
      <point x="799" y="530"/>
      <point x="750" y="735"/>
      <point x="734" y="792" type="curve" smooth="yes"/>
      <point x="572" y="1365" type="line"/>
      <point x="517" y="1374"/>
      <point x="455" y="1377"/>
      <point x="411" y="1377" type="curve" smooth="yes"/>
      <point x="367" y="1377"/>
      <point x="294" y="1374"/>
    </contour>
  </outline>
</glyph>
<glyph name="N" format="2">
  <advance width="1372"/>
  <unicode hex="004E"/>
  <anchor x="686" y="0" name="bottom"/>
  <anchor x="692" y="1464" name="top"/>
  <outline>
    <contour>
      <point x="170" y="1363" type="curve"/>
      <point x="170" y="0" type="line"/>
      <point x="210" y="-7"/>
      <point x="259" y="-9"/>
      <point x="290" y="-9" type="curve" smooth="yes"/>
      <point x="323" y="-9"/>
      <point x="365" y="-7"/>
      <point x="407" y="0" type="curve"/>
      <point x="407" y="537" type="line" smooth="yes"/>
      <point x="407" y="692"/>
      <point x="398" y="917"/>
      <point x="387" y="1069" type="curve"/>
      <point x="405" y="1073" type="line"/>
      <point x="471" y="1366" type="line"/>
      <point x="418" y="1373"/>
      <point x="358" y="1375"/>
      <point x="321" y="1375" type="curve" smooth="yes"/>
      <point x="285" y="1375"/>
      <point x="210" y="1371"/>
    </contour>
    <contour>
      <point x="516" y="791" type="curve" smooth="yes"/>
      <point x="899" y="0" type="line"/>
      <point x="1107" y="145" type="line"/>
      <point x="980" y="281" type="line"/>
      <point x="945" y="360"/>
      <point x="900" y="466"/>
      <point x="849" y="576" type="curve" smooth="yes"/>
      <point x="471" y="1366" type="line"/>
      <point x="275" y="1211" type="line"/>
      <point x="394" y="1071" type="line"/>
      <point x="427" y="989"/>
      <point x="468" y="892"/>
    </contour>
    <contour>
      <point x="1202" y="1364" type="line"/>
      <point x="1189" y="1377" type="line"/>
      <point x="1107" y="1377" type="line" smooth="yes"/>
      <point x="1006" y="1377"/>
      <point x="967" y="1333"/>
      <point x="967" y="1220" type="curve" smooth="yes"/>
      <point x="967" y="820" type="line" smooth="yes"/>
      <point x="967" y="682"/>
      <point x="974" y="454"/>
      <point x="987" y="283" type="curve"/>
      <point x="967" y="279" type="line"/>
      <point x="899" y="0" type="line"/>
      <point x="951" y="-7"/>
      <point x="1008" y="-9"/>
      <point x="1049" y="-9" type="curve" smooth="yes"/>
      <point x="1089" y="-9"/>
      <point x="1161" y="-5"/>
      <point x="1202" y="3" type="curve"/>
    </contour>
  </outline>
</glyph>
<glyph name="O" format="2">
  <advance width="1322"/>
  <unicode hex="004F"/>
  <anchor x="661" y="0" name="bottom"/>
  <anchor x="860" y="3" name="ogonek"/>
  <anchor x="661" y="1464" name="top"/>
  <anchor x="1063" y="1340" name="topright"/>
  <outline>
    <contour>
      <point x="355" y="684" type="curve" smooth="yes"/>
      <point x="355" y="914"/>
      <point x="401" y="1194"/>
      <point x="661" y="1194" type="curve" smooth="yes"/>
      <point x="922" y="1194"/>
      <point x="967" y="914"/>
      <point x="967" y="684" type="curve" smooth="yes"/>
      <point x="967" y="454"/>
      <point x="922" y="172"/>
      <point x="661" y="172" type="curve" smooth="yes"/>
      <point x="401" y="172"/>
      <point x="355" y="454"/>
    </contour>
    <contour>
      <point x="88" y="684" type="curve" smooth="yes"/>
      <point x="88" y="273"/>
      <point x="269" y="-27"/>
      <point x="661" y="-27" type="curve" smooth="yes"/>
      <point x="1050" y="-27"/>
      <point x="1234" y="269"/>
      <point x="1234" y="684" type="curve" smooth="yes"/>
      <point x="1234" y="1094"/>
      <point x="1053" y="1393"/>
      <point x="661" y="1393" type="curve" smooth="yes"/>
      <point x="272" y="1393"/>
      <point x="88" y="1097"/>
    </contour>
  </outline>
</glyph>
<glyph name="P" format="2">
  <advance width="1152"/>
  <unicode hex="0050"/>
  <anchor x="591" y="1464" name="top"/>
  <outline>
    <contour>
      <point x="1086" y="918" type="curve" smooth="yes"/>
      <point x="1086" y="1227"/>
      <point x="888" y="1375"/>
      <point x="615" y="1375" type="curve" smooth="yes"/>
      <point x="473" y="1375"/>
      <point x="342" y="1371"/>
      <point x="183" y="1368" type="curve"/>
      <point x="170" y="1355" type="line"/>
      <point x="170" y="0" type="line"/>
      <point x="209" y="-7"/>
      <point x="262" y="-9"/>
      <point x="297" y="-9" type="curve" smooth="yes"/>
      <point x="334" y="-9"/>
      <point x="384" y="-7"/>
      <point x="425" y="0" type="curve"/>
      <point x="425" y="1178" type="line"/>
      <point x="486" y="1176"/>
      <point x="550" y="1176"/>
      <point x="601" y="1176" type="curve" smooth="yes"/>
      <point x="784" y="1176"/>
      <point x="823" y="1029"/>
      <point x="823" y="918" type="curve" smooth="yes"/>
      <point x="823" y="808"/>
      <point x="784" y="660"/>
      <point x="601" y="660" type="curve" smooth="yes"/>
      <point x="550" y="660"/>
      <point x="379" y="656"/>
      <point x="317" y="653" type="curve"/>
      <point x="317" y="461" type="line"/>
      <point x="615" y="461" type="line" smooth="yes"/>
      <point x="890" y="461"/>
      <point x="1086" y="618"/>
    </contour>
  </outline>
</glyph>
<glyph name="Q" format="2">
  <advance width="1317"/>
  <unicode hex="0051"/>
  <outline>
    <contour>
      <point x="351" y="684" type="curve" smooth="yes"/>
      <point x="351" y="917"/>
      <point x="397" y="1194"/>
      <point x="658" y="1194" type="curve" smooth="yes"/>
      <point x="920" y="1194"/>
      <point x="964" y="917"/>
      <point x="964" y="684" type="curve" smooth="yes"/>
      <point x="964" y="453"/>
      <point x="920" y="174"/>
      <point x="658" y="174" type="curve" smooth="yes"/>
      <point x="397" y="174"/>
      <point x="351" y="453"/>
    </contour>
    <contour>
      <point x="88" y="684" type="curve" smooth="yes"/>
      <point x="88" y="272"/>
      <point x="262" y="-27"/>
      <point x="662" y="-27" type="curve" smooth="yes"/>
      <point x="729" y="-27"/>
      <point x="770" y="-1"/>
      <point x="813" y="29" type="curve" smooth="yes"/>
      <point x="1103" y="32"/>
      <point x="1229" y="358"/>
      <point x="1229" y="683" type="curve" smooth="yes"/>
      <point x="1229" y="1093"/>
      <point x="1055" y="1393"/>
      <point x="658" y="1393" type="curve" smooth="yes"/>
      <point x="264" y="1393"/>
      <point x="88" y="1096"/>
    </contour>
    <contour>
      <point x="577" y="53" type="line"/>
      <point x="892" y="-204" type="line" smooth="yes"/>
      <point x="940" y="-243"/>
      <point x="993" y="-269"/>
      <point x="1069" y="-269" type="curve" smooth="yes"/>
      <point x="1153" y="-269"/>
      <point x="1232" y="-204"/>
      <point x="1235" y="-86" type="curve"/>
      <point x="1161" y="-85"/>
      <point x="1101" y="-65"/>
      <point x="983" y="19" type="curve" smooth="yes"/>
      <point x="822" y="133" type="line"/>
    </contour>
  </outline>
</glyph>
<glyph name="R" format="2">
  <advance width="1212"/>
  <unicode hex="0052"/>
  <anchor x="634" y="0" name="bottom"/>
  <anchor x="599" y="1464" name="top"/>
  <outline>
    <contour>
      <point x="1099" y="956" type="curve" smooth="yes"/>
      <point x="1099" y="1236"/>
      <point x="911" y="1375"/>
      <point x="633" y="1375" type="curve" smooth="yes"/>
      <point x="491" y="1375"/>
      <point x="342" y="1371"/>
      <point x="183" y="1368" type="curve"/>
      <point x="170" y="1355" type="line"/>
      <point x="170" y="0" type="line"/>
      <point x="209" y="-7"/>
      <point x="261" y="-9"/>
      <point x="295" y="-9" type="curve" smooth="yes"/>
      <point x="333" y="-9"/>
      <point x="382" y="-7"/>
      <point x="422" y="0" type="curve"/>
      <point x="422" y="1180" type="line"/>
      <point x="486" y="1178"/>
      <point x="565" y="1178"/>
      <point x="615" y="1178" type="curve" smooth="yes"/>
      <point x="794" y="1178"/>
      <point x="838" y="1071"/>
      <point x="838" y="956" type="curve" smooth="yes"/>
      <point x="838" y="845"/>
      <point x="794" y="734"/>
      <point x="615" y="734" type="curve" smooth="yes"/>
      <point x="551" y="734"/>
      <point x="402" y="729"/>
      <point x="319" y="725" type="curve"/>
      <point x="319" y="530" type="line"/>
      <point x="555" y="530" type="line" smooth="yes"/>
      <point x="672" y="530"/>
      <point x="714" y="465"/>
      <point x="744" y="382" type="curve" smooth="yes"/>
      <point x="833" y="136" type="line" smooth="yes"/>
      <point x="869" y="36"/>
      <point x="901" y="-15"/>
      <point x="995" y="-15" type="curve" smooth="yes"/>
      <point x="1060" y="-15"/>
      <point x="1132" y="15"/>
      <point x="1165" y="61" type="curve"/>
      <point x="1126" y="92"/>
      <point x="1098" y="134"/>
      <point x="1072" y="207" type="curve" smooth="yes"/>
      <point x="995" y="416" type="line" smooth="yes"/>
      <point x="965" y="498"/>
      <point x="917" y="566"/>
      <point x="848" y="591" type="curve"/>
      <point x="981" y="637"/>
      <point x="1099" y="768"/>
    </contour>
  </outline>
</glyph>
<glyph name="S" format="2">
  <advance width="1112"/>
  <unicode hex="0053"/>
  <anchor x="553" y="0" name="bottom"/>
  <anchor x="565" y="1464" name="top"/>
  <outline>
    <contour>
      <point x="49" y="121" type="curve"/>
      <point x="188" y="28"/>
      <point x="374" y="-27"/>
      <point x="539" y="-27" type="curve" smooth="yes"/>
      <point x="876" y="-27"/>
      <point x="1042" y="150"/>
      <point x="1042" y="384" type="curve" smooth="yes"/>
      <point x="1042" y="561"/>
      <point x="922" y="692"/>
      <point x="742" y="766" type="curve" smooth="yes"/>
      <point x="501" y="866" type="line" smooth="yes"/>
      <point x="406" y="906"/>
      <point x="353" y="952"/>
      <point x="353" y="1026" type="curve" smooth="yes"/>
      <point x="353" y="1111"/>
      <point x="426" y="1186"/>
      <point x="561" y="1186" type="curve" smooth="yes"/>
      <point x="666" y="1186"/>
      <point x="807" y="1141"/>
      <point x="911" y="1091" type="curve"/>
      <point x="962" y="1137"/>
      <point x="997" y="1213"/>
      <point x="1000" y="1286" type="curve"/>
      <point x="896" y="1338"/>
      <point x="734" y="1393"/>
      <point x="559" y="1393" type="curve" smooth="yes"/>
      <point x="289" y="1393"/>
      <point x="93" y="1225"/>
      <point x="93" y="994" type="curve" smooth="yes"/>
      <point x="93" y="816"/>
      <point x="205" y="709"/>
      <point x="373" y="638" type="curve" smooth="yes"/>
      <point x="614" y="538" type="line" smooth="yes"/>
      <point x="729" y="489"/>
      <point x="774" y="422"/>
      <point x="774" y="348" type="curve" smooth="yes"/>
      <point x="774" y="255"/>
      <point x="699" y="181"/>
      <point x="555" y="181" type="curve" smooth="yes"/>
      <point x="415" y="181"/>
      <point x="266" y="242"/>
      <point x="151" y="315" type="curve"/>
      <point x="101" y="272"/>
      <point x="55" y="194"/>
    </contour>
  </outline>
</glyph>
<glyph name="T" format="2">
  <advance width="998"/>
  <unicode hex="0054"/>
  <anchor x="501" y="0" name="bottom"/>
  <anchor x="500" y="1464" name="top"/>
  <outline>
    <contour>
      <point x="28" y="1153" type="curve"/>
      <point x="254" y="1153" type="line" smooth="yes"/>
      <point x="282" y="1153"/>
      <point x="345" y="1155"/>
      <point x="373" y="1155" type="curve" smooth="yes"/>
      <point x="628" y="1155" type="line" smooth="yes"/>
      <point x="657" y="1155"/>
      <point x="720" y="1153"/>
      <point x="748" y="1153" type="curve" smooth="yes"/>
      <point x="851" y="1153" type="line" smooth="yes"/>
      <point x="945" y="1153"/>
      <point x="988" y="1184"/>
      <point x="988" y="1267" type="curve" smooth="yes"/>
      <point x="988" y="1299"/>
      <point x="983" y="1339"/>
      <point x="975" y="1366" type="curve"/>
      <point x="28" y="1366" type="line"/>
      <point x="21" y="1328"/>
      <point x="19" y="1289"/>
      <point x="19" y="1259" type="curve" smooth="yes"/>
      <point x="19" y="1229"/>
      <point x="21" y="1190"/>
    </contour>
    <contour>
      <point x="373" y="1007" type="curve" smooth="yes"/>
      <point x="373" y="0" type="line"/>
      <point x="415" y="-7"/>
      <point x="464" y="-9"/>
      <point x="501" y="-9" type="curve" smooth="yes"/>
      <point x="538" y="-9"/>
      <point x="586" y="-7"/>
      <point x="628" y="0" type="curve"/>
      <point x="628" y="1007" type="line" smooth="yes"/>
      <point x="628" y="1061"/>
      <point x="627" y="1099"/>
      <point x="627" y="1155" type="curve" smooth="yes"/>
      <point x="627" y="1260" type="line"/>
      <point x="375" y="1260" type="line"/>
      <point x="375" y="1155" type="line" smooth="yes"/>
      <point x="375" y="1099"/>
      <point x="373" y="1061"/>
    </contour>
  </outline>
</glyph>
<glyph name="U" format="2">
  <advance width="1341"/>
  <unicode hex="0055"/>
  <anchor x="671" y="0" name="bottom"/>
  <anchor x="890" y="8" name="ogonek"/>
  <anchor x="667" y="1464" name="top"/>
  <anchor x="1190" y="1366" name="topright"/>
  <outline>
    <contour>
      <point x="1190" y="489" type="curve" smooth="yes"/>
      <point x="1190" y="1366" type="line"/>
      <point x="1150" y="1373"/>
      <point x="1094" y="1375"/>
      <point x="1059" y="1375" type="curve" smooth="yes"/>
      <point x="1023" y="1375"/>
      <point x="975" y="1373"/>
      <point x="935" y="1366" type="curve"/>
      <point x="935" y="488" type="line" smooth="yes"/>
      <point x="935" y="283"/>
      <point x="850" y="177"/>
      <point x="671" y="177" type="curve" smooth="yes"/>
      <point x="491" y="177"/>
      <point x="406" y="283"/>
      <point x="406" y="488" type="curve" smooth="yes"/>
      <point x="406" y="1215" type="line" smooth="yes"/>
      <point x="406" y="1327"/>
      <point x="361" y="1377"/>
      <point x="260" y="1377" type="curve" smooth="yes"/>
      <point x="165" y="1377" type="line"/>
      <point x="152" y="1363" type="line"/>
      <point x="152" y="489" type="line" smooth="yes"/>
      <point x="152" y="155"/>
      <point x="349" y="-27"/>
      <point x="670" y="-27" type="curve" smooth="yes"/>
      <point x="992" y="-27"/>
      <point x="1190" y="155"/>
    </contour>
  </outline>
</glyph>
<glyph name="V" format="2">
  <advance width="1174"/>
  <unicode hex="0056"/>
  <anchor x="587" y="0" name="bottom"/>
  <anchor x="595" y="1464" name="top"/>
  <outline>
    <contour>
      <point x="909" y="1366" type="curve"/>
      <point x="613" y="220" type="line"/>
      <point x="602" y="220"/>
      <point x="597" y="224"/>
      <point x="593" y="242" type="curve" smooth="yes"/>
      <point x="571" y="352"/>
      <point x="540" y="488"/>
      <point x="511" y="594" type="curve" smooth="yes"/>
      <point x="324" y="1256" type="line" smooth="yes"/>
      <point x="300" y="1346"/>
      <point x="259" y="1381"/>
      <point x="186" y="1381" type="curve" smooth="yes"/>
      <point x="131" y="1381"/>
      <point x="78" y="1365"/>
      <point x="32" y="1344" type="curve"/>
      <point x="386" y="108" type="line" smooth="yes"/>
      <point x="412" y="16"/>
      <point x="462" y="-10"/>
      <point x="560" y="-10" type="curve" smooth="yes"/>
      <point x="625" y="-10"/>
      <point x="698" y="-7"/>
      <point x="759" y="-1" type="curve"/>
      <point x="1147" y="1344" type="line"/>
      <point x="1136" y="1359" type="line"/>
      <point x="1103" y="1370"/>
      <point x="1054" y="1375"/>
      <point x="1020" y="1375" type="curve" smooth="yes"/>
      <point x="983" y="1375"/>
      <point x="945" y="1375"/>
    </contour>
  </outline>
</glyph>
<glyph name="W" format="2">
  <advance width="1742"/>
  <unicode hex="0057"/>
  <anchor x="875" y="0" name="bottom"/>
  <anchor x="875" y="1464" name="top"/>
  <outline>
    <contour>
      <point x="49" y="1352" type="curve"/>
      <point x="294" y="110" type="line" smooth="yes"/>
      <point x="315" y="4"/>
      <point x="378" y="-10"/>
      <point x="459" y="-10" type="curve" smooth="yes"/>
      <point x="527" y="-10"/>
      <point x="614" y="-6"/>
      <point x="675" y="1" type="curve"/>
      <point x="786" y="605" type="line" smooth="yes"/>
      <point x="812" y="748"/>
      <point x="841" y="933"/>
      <point x="864" y="1087" type="curve"/>
      <point x="879" y="1087" type="line"/>
      <point x="899" y="933"/>
      <point x="927" y="746"/>
      <point x="951" y="605" type="curve" smooth="yes"/>
      <point x="1036" y="109" type="line" smooth="yes"/>
      <point x="1052" y="4"/>
      <point x="1115" y="-10"/>
      <point x="1191" y="-10" type="curve" smooth="yes"/>
      <point x="1257" y="-10"/>
      <point x="1354" y="-6"/>
      <point x="1414" y="2" type="curve"/>
      <point x="1692" y="1344" type="line"/>
      <point x="1679" y="1359" type="line"/>
      <point x="1644" y="1370"/>
      <point x="1598" y="1375"/>
      <point x="1558" y="1375" type="curve" smooth="yes"/>
      <point x="1523" y="1375"/>
      <point x="1480" y="1373"/>
      <point x="1444" y="1366" type="curve"/>
      <point x="1305" y="630" type="line" smooth="yes"/>
      <point x="1284" y="512"/>
      <point x="1254" y="329"/>
      <point x="1239" y="211" type="curve"/>
      <point x="1228" y="211"/>
      <point x="1224" y="212"/>
      <point x="1220" y="236" type="curve" smooth="yes"/>
      <point x="1038" y="1338" type="line"/>
      <point x="993" y="1347"/>
      <point x="925" y="1350"/>
      <point x="875" y="1350" type="curve" smooth="yes"/>
      <point x="827" y="1350"/>
      <point x="761" y="1347"/>
      <point x="711" y="1338" type="curve"/>
      <point x="513" y="211" type="line"/>
      <point x="501" y="211"/>
      <point x="497" y="213"/>
      <point x="495" y="236" type="curve" smooth="yes"/>
      <point x="482" y="332"/>
      <point x="453" y="514"/>
      <point x="434" y="627" type="curve" smooth="yes"/>
      <point x="325" y="1243" type="line" smooth="yes"/>
      <point x="308" y="1349"/>
      <point x="273" y="1381"/>
      <point x="186" y="1381" type="curve" smooth="yes"/>
      <point x="140" y="1381"/>
      <point x="91" y="1370"/>
    </contour>
  </outline>
</glyph>
<glyph name="X" format="2">
  <advance width="1197"/>
  <unicode hex="0058"/>
  <anchor x="599" y="1464" name="top"/>
  <outline>
    <contour>
      <point x="70" y="1327" type="curve"/>
      <point x="839" y="85" type="line"/>
      <point x="887" y="9"/>
      <point x="933" y="-17"/>
      <point x="1001" y="-17" type="curve" smooth="yes"/>
      <point x="1054" y="-17"/>
      <point x="1117" y="4"/>
      <point x="1168" y="39" type="curve"/>
      <point x="398" y="1282" type="line" smooth="yes"/>
      <point x="350" y="1357"/>
      <point x="306" y="1383"/>
      <point x="237" y="1383" type="curve" smooth="yes"/>
      <point x="184" y="1383"/>
      <point x="122" y="1362"/>
    </contour>
    <contour>
      <point x="881" y="1366" type="curve"/>
      <point x="596" y="892" type="line"/>
      <point x="492" y="778" type="line"/>
      <point x="28" y="27" type="line"/>
      <point x="36" y="12" type="line"/>
      <point x="69" y="-1"/>
      <point x="121" y="-10"/>
      <point x="171" y="-10" type="curve" smooth="yes"/>
      <point x="213" y="-10"/>
      <point x="254" y="-6"/>
      <point x="279" y="0" type="curve"/>
      <point x="604" y="543" type="line"/>
      <point x="708" y="657" type="line"/>
      <point x="1127" y="1340" type="line"/>
      <point x="1120" y="1354" type="line"/>
      <point x="1088" y="1367"/>
      <point x="1036" y="1376"/>
      <point x="987" y="1376" type="curve" smooth="yes"/>
      <point x="945" y="1376"/>
      <point x="906" y="1372"/>
    </contour>
  </outline>
</glyph>
<glyph name="Y" format="2">
  <advance width="1037"/>
  <unicode hex="0059"/>
  <anchor x="520" y="0" name="bottom"/>
  <anchor x="525" y="1464" name="top"/>
  <outline>
    <contour>
      <point x="392" y="584" type="line"/>
      <point x="392" y="0" type="line"/>
      <point x="431" y="-7"/>
      <point x="485" y="-9"/>
      <point x="520" y="-9" type="curve" smooth="yes"/>
      <point x="557" y="-9"/>
      <point x="606" y="-7"/>
      <point x="647" y="0" type="curve"/>
      <point x="647" y="584" type="line"/>
    </contour>
    <contour>
      <point x="789" y="1366" type="curve"/>
      <point x="626" y="954" type="line" smooth="yes"/>
      <point x="598" y="884"/>
      <point x="557" y="771"/>
      <point x="533" y="683" type="curve"/>
      <point x="522" y="683" type="line"/>
      <point x="497" y="775"/>
      <point x="466" y="872"/>
      <point x="435" y="947" type="curve" smooth="yes"/>
      <point x="302" y="1275" type="line" smooth="yes"/>
      <point x="272" y="1349"/>
      <point x="238" y="1381"/>
      <point x="166" y="1381" type="curve" smooth="yes"/>
      <point x="115" y="1381"/>
      <point x="59" y="1365"/>
      <point x="9" y="1336" type="curve"/>
      <point x="412" y="390" type="line"/>
      <point x="630" y="390" type="line"/>
      <point x="1030" y="1343" type="line"/>
      <point x="1019" y="1358" type="line"/>
      <point x="984" y="1370"/>
      <point x="938" y="1376"/>
      <point x="895" y="1376" type="curve" smooth="yes"/>
      <point x="861" y="1376"/>
      <point x="824" y="1374"/>
    </contour>
  </outline>
</glyph>
<glyph name="Z" format="2">
  <advance width="1138"/>
  <unicode hex="005A"/>
  <anchor x="565" y="0" name="bottom"/>
  <anchor x="571" y="1464" name="top"/>
  <outline>
    <contour>
      <point x="601" y="959" type="curve" smooth="yes"/>
      <point x="120" y="259" type="line" smooth="yes"/>
      <point x="97" y="227"/>
      <point x="87" y="189"/>
      <point x="87" y="157" type="curve" smooth="yes"/>
      <point x="87" y="133"/>
      <point x="90" y="112"/>
      <point x="117" y="0" type="curve"/>
      <point x="879" y="0" type="line" smooth="yes"/>
      <point x="986" y="0"/>
      <point x="1051" y="47"/>
      <point x="1051" y="138" type="curve" smooth="yes"/>
      <point x="1051" y="179"/>
      <point x="1042" y="223"/>
      <point x="1032" y="257" type="curve"/>
      <point x="979" y="231"/>
      <point x="902" y="215"/>
      <point x="800" y="215" type="curve" smooth="yes"/>
      <point x="630" y="215" type="line" smooth="yes"/>
      <point x="558" y="215"/>
      <point x="451" y="210"/>
      <point x="366" y="203" type="curve"/>
      <point x="360" y="209" type="line"/>
      <point x="412" y="271"/>
      <point x="475" y="353"/>
      <point x="516" y="413" type="curve" smooth="yes"/>
      <point x="997" y="1110" type="line" smooth="yes"/>
      <point x="1020" y="1144"/>
      <point x="1028" y="1176"/>
      <point x="1028" y="1206" type="curve" smooth="yes"/>
      <point x="1028" y="1227"/>
      <point x="1025" y="1249"/>
      <point x="992" y="1366" type="curve"/>
      <point x="143" y="1366" type="line"/>
      <point x="132" y="1323"/>
      <point x="126" y="1285"/>
      <point x="126" y="1241" type="curve" smooth="yes"/>
      <point x="126" y="1213"/>
      <point x="128" y="1185"/>
      <point x="135" y="1155" type="curve"/>
      <point x="443" y="1155" type="line" smooth="yes"/>
      <point x="512" y="1155"/>
      <point x="678" y="1160"/>
      <point x="754" y="1171" type="curve"/>
      <point x="760" y="1165" type="line"/>
      <point x="706" y="1099"/>
      <point x="642" y="1018"/>
    </contour>
  </outline>
</glyph>
<glyph name="bracketleft" format="2">
  <advance width="727"/>
  <unicode hex="005B"/>
  <outline>
    <contour>
      <point x="198" y="1526" type="line"/>
      <point x="198" y="-396" type="line"/>
      <point x="442" y="-329" type="line"/>
      <point x="442" y="1441" type="line"/>
    </contour>
    <contour>
      <point x="213" y="-410" type="line"/>
      <point x="655" y="-394" type="line"/>
      <point x="661" y="-375"/>
      <point x="664" y="-343"/>
      <point x="664" y="-323" type="curve" smooth="yes"/>
      <point x="664" y="-285"/>
      <point x="653" y="-241"/>
      <point x="645" y="-220" type="curve"/>
      <point x="218" y="-208" type="line"/>
      <point x="198" y="-396" type="line"/>
    </contour>
    <contour>
      <point x="655" y="1524" type="curve"/>
      <point x="213" y="1541" type="line"/>
      <point x="198" y="1526" type="line"/>
      <point x="218" y="1339" type="line"/>
      <point x="645" y="1350" type="line"/>
      <point x="653" y="1372"/>
      <point x="664" y="1415"/>
      <point x="664" y="1454" type="curve" smooth="yes"/>
      <point x="664" y="1473"/>
      <point x="661" y="1506"/>
    </contour>
  </outline>
</glyph>
<glyph name="backslash" format="2">
  <advance width="867"/>
  <unicode hex="005C"/>
  <outline>
    <contour>
      <point x="645" y="-328" type="curve"/>
      <point x="14" y="1347" type="line"/>
      <point x="76" y="1395"/>
      <point x="155" y="1421"/>
      <point x="227" y="1428" type="curve"/>
      <point x="858" y="-248" type="line"/>
      <point x="797" y="-295"/>
      <point x="716" y="-321"/>
    </contour>
  </outline>
</glyph>
<glyph name="bracketright" format="2">
  <advance width="727"/>
  <unicode hex="005D"/>
  <outline>
    <contour>
      <point x="529" y="1526" type="line"/>
      <point x="529" y="-396" type="line"/>
      <point x="285" y="-329" type="line"/>
      <point x="285" y="1441" type="line"/>
    </contour>
    <contour>
      <point x="514" y="-410" type="line"/>
      <point x="72" y="-394" type="line"/>
      <point x="66" y="-375"/>
      <point x="63" y="-343"/>
      <point x="63" y="-323" type="curve" smooth="yes"/>
      <point x="63" y="-285"/>
      <point x="74" y="-241"/>
      <point x="82" y="-220" type="curve"/>
      <point x="509" y="-208" type="line"/>
      <point x="529" y="-396" type="line"/>
    </contour>
    <contour>
      <point x="72" y="1524" type="curve"/>
      <point x="514" y="1541" type="line"/>
      <point x="529" y="1526" type="line"/>
      <point x="509" y="1339" type="line"/>
      <point x="82" y="1350" type="line"/>
      <point x="74" y="1372"/>
      <point x="63" y="1415"/>
      <point x="63" y="1454" type="curve" smooth="yes"/>
      <point x="63" y="1473"/>
      <point x="66" y="1506"/>
    </contour>
  </outline>
</glyph>
<glyph name="asciicircum" format="2">
  <advance width="1060"/>
  <unicode hex="005E"/>
  <outline>
    <contour>
      <point x="984" y="612" type="curve"/>
      <point x="663" y="1296" type="line"/>
      <point x="633" y="1304"/>
      <point x="583" y="1307"/>
      <point x="532" y="1307" type="curve" smooth="yes"/>
      <point x="479" y="1307"/>
      <point x="427" y="1303"/>
      <point x="397" y="1296" type="curve"/>
      <point x="76" y="612" type="line"/>
      <point x="105" y="605"/>
      <point x="152" y="601"/>
      <point x="198" y="601" type="curve" smooth="yes"/>
      <point x="242" y="601"/>
      <point x="285" y="604"/>
      <point x="315" y="612" type="curve"/>
      <point x="453" y="919" type="line" smooth="yes"/>
      <point x="472" y="965"/>
      <point x="506" y="1061"/>
      <point x="523" y="1106" type="curve"/>
      <point x="537" y="1106" type="line"/>
      <point x="554" y="1061"/>
      <point x="588" y="965"/>
      <point x="607" y="919" type="curve" smooth="yes"/>
      <point x="745" y="612" type="line"/>
      <point x="775" y="604"/>
      <point x="818" y="601"/>
      <point x="862" y="601" type="curve" smooth="yes"/>
      <point x="908" y="601"/>
      <point x="955" y="605"/>
    </contour>
  </outline>
</glyph>
<glyph name="underscore" format="2">
  <advance width="1087"/>
  <unicode hex="005F"/>
  <outline>
    <contour>
      <point x="-1" y="-327" type="curve"/>
      <point x="1088" y="-327" type="line"/>
      <point x="1095" y="-297"/>
      <point x="1098" y="-270"/>
      <point x="1098" y="-233" type="curve"/>
      <point x="1098" y="-195"/>
      <point x="1095" y="-169"/>
      <point x="1088" y="-137" type="curve"/>
      <point x="-1" y="-137" type="line"/>
      <point x="-10" y="-169"/>
      <point x="-12" y="-210"/>
      <point x="-12" y="-233" type="curve" smooth="yes"/>
      <point x="-12" y="-258"/>
      <point x="-10" y="-297"/>
    </contour>
  </outline>
</glyph>
<glyph name="a" format="2">
  <advance width="1019"/>
  <unicode hex="0061"/>
  <anchor x="504" y="0" name="bottom"/>
  <anchor x="855" y="-15" name="ogonek"/>
  <anchor x="494" y="1084" name="top"/>
  <outline>
    <contour>
      <point x="76" y="271" type="curve" smooth="yes"/>
      <point x="76" y="127"/>
      <point x="173" y="-27"/>
      <point x="375" y="-27" type="curve" smooth="yes"/>
      <point x="551" y="-27"/>
      <point x="666" y="86"/>
      <point x="741" y="174" type="curve"/>
      <point x="704" y="347" type="line"/>
      <point x="637" y="228"/>
      <point x="529" y="162"/>
      <point x="438" y="162" type="curve" smooth="yes"/>
      <point x="363" y="162"/>
      <point x="320" y="216"/>
      <point x="320" y="288" type="curve" smooth="yes"/>
      <point x="320" y="383"/>
      <point x="376" y="443"/>
      <point x="485" y="443" type="curve" smooth="yes"/>
      <point x="553" y="443"/>
      <point x="648" y="441"/>
      <point x="714" y="426" type="curve"/>
      <point x="714" y="587" type="line"/>
      <point x="636" y="605"/>
      <point x="533" y="608"/>
      <point x="464" y="608" type="curve" smooth="yes"/>
      <point x="252" y="608"/>
      <point x="76" y="503"/>
    </contour>
    <contour>
      <point x="939" y="112" type="curve"/>
      <point x="896" y="148"/>
      <point x="883" y="199"/>
      <point x="883" y="268" type="curve" smooth="yes"/>
      <point x="883" y="676" type="line" smooth="yes"/>
      <point x="883" y="914"/>
      <point x="733" y="1014"/>
      <point x="545" y="1014" type="curve" smooth="yes"/>
      <point x="412" y="1014"/>
      <point x="235" y="974"/>
      <point x="113" y="923" type="curve"/>
      <point x="117" y="861"/>
      <point x="142" y="787"/>
      <point x="180" y="746" type="curve"/>
      <point x="284" y="784"/>
      <point x="392" y="818"/>
      <point x="487" y="818" type="curve" smooth="yes"/>
      <point x="585" y="818"/>
      <point x="637" y="770"/>
      <point x="637" y="660" type="curve" smooth="yes"/>
      <point x="637" y="219" type="line"/>
      <point x="649" y="114"/>
      <point x="709" y="1"/>
      <point x="855" y="-15" type="curve"/>
      <point x="891" y="9"/>
      <point x="928" y="68"/>
    </contour>
  </outline>
</glyph>
<glyph name="b" format="2">
  <advance width="1061"/>
  <unicode hex="0062"/>
  <anchor x="522" y="0" name="bottom"/>
  <anchor x="559" y="1520" name="top"/>
  <outline>
    <contour>
      <point x="384" y="50" type="line"/>
      <point x="384" y="1317" type="line" smooth="yes"/>
      <point x="384" y="1428"/>
      <point x="349" y="1471"/>
      <point x="248" y="1471" type="curve" smooth="yes"/>
      <point x="155" y="1471" type="line"/>
      <point x="142" y="1458" type="line"/>
      <point x="142" y="50" type="line"/>
    </contour>
    <contour>
      <point x="985" y="509" type="curve" smooth="yes"/>
      <point x="985" y="800"/>
      <point x="868" y="1010"/>
      <point x="635" y="1010" type="curve" smooth="yes"/>
      <point x="484" y="1010"/>
      <point x="375" y="927"/>
      <point x="306" y="848" type="curve"/>
      <point x="342" y="653" type="line"/>
      <point x="395" y="751"/>
      <point x="488" y="808"/>
      <point x="570" y="807" type="curve" smooth="yes"/>
      <point x="667" y="806"/>
      <point x="732" y="718"/>
      <point x="732" y="505" type="curve" smooth="yes"/>
      <point x="732" y="284"/>
      <point x="651" y="164"/>
      <point x="519" y="164" type="curve" smooth="yes"/>
      <point x="422" y="164"/>
      <point x="341" y="188"/>
      <point x="261" y="237" type="curve"/>
      <point x="142" y="50" type="line"/>
      <point x="251" y="8"/>
      <point x="381" y="-16"/>
      <point x="517" y="-16" type="curve" smooth="yes"/>
      <point x="785" y="-16"/>
      <point x="986" y="168"/>
    </contour>
  </outline>
</glyph>
<glyph name="c" format="2">
  <advance width="945"/>
  <unicode hex="0063"/>
  <anchor x="499" y="0" name="bottom"/>
  <anchor x="503" y="1084" name="top"/>
  <outline>
    <contour>
      <point x="655" y="586" type="curve"/>
      <point x="687" y="580"/>
      <point x="716" y="577"/>
      <point x="756" y="577" type="curve" smooth="yes"/>
      <point x="835" y="577"/>
      <point x="880" y="622"/>
      <point x="880" y="706" type="curve" smooth="yes"/>
      <point x="880" y="867"/>
      <point x="744" y="1019"/>
      <point x="507" y="1019" type="curve" smooth="yes"/>
      <point x="293" y="1019"/>
      <point x="77" y="869"/>
      <point x="77" y="491" type="curve" smooth="yes"/>
      <point x="77" y="198"/>
      <point x="211" y="-27"/>
      <point x="499" y="-27" type="curve" smooth="yes"/>
      <point x="643" y="-27"/>
      <point x="781" y="32"/>
      <point x="870" y="122" type="curve"/>
      <point x="859" y="174"/>
      <point x="813" y="240"/>
      <point x="771" y="265" type="curve"/>
      <point x="704" y="216"/>
      <point x="624" y="171"/>
      <point x="537" y="171" type="curve" smooth="yes"/>
      <point x="405" y="171"/>
      <point x="332" y="262"/>
      <point x="332" y="491" type="curve" smooth="yes"/>
      <point x="332" y="722"/>
      <point x="389" y="832"/>
      <point x="502" y="832" type="curve" smooth="yes"/>
      <point x="631" y="832"/>
      <point x="658" y="725"/>
    </contour>
  </outline>
</glyph>
<glyph name="d" format="2">
  <advance width="1066"/>
  <unicode hex="0064"/>
  <guideline x="537" y="-1" angle="90.0"/>
  <anchor x="554" y="0" name="bottom"/>
  <anchor x="500" y="1520" name="top"/>
  <anchor x="921" y="992" name="topright"/>
  <outline>
    <contour>
      <point x="921" y="284" type="curve" smooth="yes"/>
      <point x="921" y="1317" type="line" smooth="yes"/>
      <point x="921" y="1428"/>
      <point x="888" y="1471"/>
      <point x="787" y="1471" type="curve" smooth="yes"/>
      <point x="692" y="1471" type="line"/>
      <point x="679" y="1458" type="line"/>
      <point x="679" y="263" type="line" smooth="yes"/>
      <point x="679" y="120"/>
      <point x="745" y="2"/>
      <point x="893" y="-15" type="curve"/>
      <point x="929" y="9"/>
      <point x="966" y="68"/>
      <point x="977" y="112" type="curve"/>
      <point x="938" y="145"/>
      <point x="921" y="212"/>
    </contour>
    <contour>
      <point x="79" y="484" type="curve" smooth="yes"/>
      <point x="79" y="182"/>
      <point x="195" y="-27"/>
      <point x="429" y="-27" type="curve" smooth="yes"/>
      <point x="620" y="-27"/>
      <point x="770" y="124"/>
      <point x="801" y="269" type="curve"/>
      <point x="748" y="432" type="line"/>
      <point x="695" y="239"/>
      <point x="575" y="175"/>
      <point x="489" y="175" type="curve" smooth="yes"/>
      <point x="403" y="175"/>
      <point x="332" y="265"/>
      <point x="332" y="483" type="curve" smooth="yes"/>
      <point x="332" y="703"/>
      <point x="402" y="819"/>
      <point x="508" y="819" type="curve" smooth="yes"/>
      <point x="594" y="819"/>
      <point x="686" y="757"/>
      <point x="763" y="695" type="curve"/>
      <point x="797" y="881" type="line"/>
      <point x="705" y="943"/>
      <point x="601" y="1010"/>
      <point x="469" y="1010" type="curve" smooth="yes"/>
      <point x="267" y="1010"/>
      <point x="79" y="836"/>
    </contour>
  </outline>
</glyph>
<glyph name="e" format="2">
  <advance width="998"/>
  <unicode hex="0065"/>
  <anchor x="518" y="0" name="bottom"/>
  <anchor x="698" y="0" name="ogonek"/>
  <anchor x="510" y="1084" name="top"/>
  <outline>
    <contour>
      <point x="234" y="417" type="line"/>
      <point x="892" y="417" type="line"/>
      <point x="906" y="476"/>
      <point x="911" y="520"/>
      <point x="911" y="593" type="curve" smooth="yes"/>
      <point x="911" y="833"/>
      <point x="767" y="1019"/>
      <point x="506" y="1019" type="curve" smooth="yes"/>
      <point x="213" y="1019"/>
      <point x="77" y="791"/>
      <point x="77" y="492" type="curve" smooth="yes"/>
      <point x="77" y="224"/>
      <point x="172" y="-27"/>
      <point x="503" y="-27" type="curve" smooth="yes"/>
      <point x="642" y="-27"/>
      <point x="786" y="16"/>
      <point x="884" y="86" type="curve"/>
      <point x="877" y="135"/>
      <point x="851" y="200"/>
      <point x="813" y="238" type="curve"/>
      <point x="729" y="198"/>
      <point x="638" y="168"/>
      <point x="541" y="168" type="curve" smooth="yes"/>
      <point x="366" y="168"/>
      <point x="329" y="303"/>
      <point x="329" y="472" type="curve" smooth="yes"/>
      <point x="329" y="547" type="line" smooth="yes"/>
      <point x="329" y="734"/>
      <point x="384" y="839"/>
      <point x="505" y="839" type="curve" smooth="yes"/>
      <point x="630" y="839"/>
      <point x="678" y="738"/>
      <point x="678" y="616" type="curve" smooth="yes"/>
      <point x="678" y="592" type="line"/>
      <point x="234" y="592" type="line"/>
    </contour>
  </outline>
</glyph>
<glyph name="f" format="2">
  <advance width="686"/>
  <unicode hex="0066"/>
  <anchor x="458" y="1524" name="top"/>
  <outline>
    <contour>
      <point x="311" y="990" type="line"/>
      <point x="19" y="994" type="line"/>
      <point x="13" y="964"/>
      <point x="10" y="934"/>
      <point x="10" y="905" type="curve" smooth="yes"/>
      <point x="10" y="876"/>
      <point x="13" y="842"/>
      <point x="19" y="814" type="curve"/>
      <point x="309" y="819" type="line"/>
      <point x="691" y="814" type="line"/>
      <point x="697" y="842"/>
      <point x="700" y="876"/>
      <point x="700" y="905" type="curve" smooth="yes"/>
      <point x="700" y="934"/>
      <point x="697" y="964"/>
      <point x="691" y="994" type="curve"/>
    </contour>
    <contour>
      <point x="191" y="887" type="curve"/>
      <point x="191" y="0" type="line"/>
      <point x="229" y="-6"/>
      <point x="272" y="-9"/>
      <point x="311" y="-9" type="curve" smooth="yes"/>
      <point x="352" y="-9"/>
      <point x="396" y="-6"/>
      <point x="434" y="0" type="curve"/>
      <point x="434" y="884" type="line"/>
      <point x="422" y="968"/>
      <point x="404" y="1059"/>
      <point x="404" y="1137" type="curve" smooth="yes"/>
      <point x="404" y="1238"/>
      <point x="457" y="1292"/>
      <point x="547" y="1292" type="curve" smooth="yes"/>
      <point x="603" y="1292"/>
      <point x="665" y="1277"/>
      <point x="713" y="1264" type="curve"/>
      <point x="746" y="1299"/>
      <point x="769" y="1372"/>
      <point x="767" y="1429" type="curve"/>
      <point x="703" y="1453"/>
      <point x="596" y="1479"/>
      <point x="492" y="1479" type="curve" smooth="yes"/>
      <point x="292" y="1479"/>
      <point x="168" y="1338"/>
      <point x="168" y="1153" type="curve" smooth="yes"/>
      <point x="168" y="1068"/>
      <point x="183" y="979"/>
    </contour>
  </outline>
</glyph>
<glyph name="g" format="2">
  <advance width="1062"/>
  <unicode hex="0067"/>
  <anchor x="520" y="-418" name="bottom"/>
  <anchor x="541" y="1084" name="top"/>
  <outline>
    <contour>
      <point x="979" y="879" type="curve"/>
      <point x="971" y="924"/>
      <point x="931" y="982"/>
      <point x="895" y="1007" type="curve"/>
      <point x="747" y="990"/>
      <point x="683" y="872"/>
      <point x="683" y="729" type="curve"/>
      <point x="683" y="-5" type="line" smooth="yes"/>
      <point x="683" y="-145"/>
      <point x="635" y="-253"/>
      <point x="454" y="-253" type="curve" smooth="yes"/>
      <point x="372" y="-253"/>
      <point x="267" y="-230"/>
      <point x="182" y="-192" type="curve"/>
      <point x="146" y="-234"/>
      <point x="120" y="-314"/>
      <point x="119" y="-374" type="curve"/>
      <point x="216" y="-413"/>
      <point x="353" y="-441"/>
      <point x="477" y="-441" type="curve" smooth="yes"/>
      <point x="632" y="-441"/>
      <point x="755" y="-391"/>
      <point x="825" y="-303" type="curve" smooth="yes"/>
      <point x="888" y="-224"/>
      <point x="923" y="-110"/>
      <point x="923" y="140" type="curve" smooth="yes"/>
      <point x="923" y="707" type="line" smooth="yes"/>
      <point x="923" y="780"/>
      <point x="940" y="846"/>
    </contour>
    <contour>
      <point x="79" y="494" type="curve" smooth="yes"/>
      <point x="79" y="190"/>
      <point x="195" y="-18"/>
      <point x="431" y="-18" type="curve" smooth="yes"/>
      <point x="583" y="-18"/>
      <point x="711" y="80"/>
      <point x="771" y="179" type="curve"/>
      <point x="735" y="361" type="line"/>
      <point x="680" y="253"/>
      <point x="584" y="184"/>
      <point x="487" y="184" type="curve" smooth="yes"/>
      <point x="401" y="184"/>
      <point x="332" y="275"/>
      <point x="332" y="493" type="curve" smooth="yes"/>
      <point x="332" y="714"/>
      <point x="400" y="828"/>
      <point x="509" y="828" type="curve" smooth="yes"/>
      <point x="598" y="828"/>
      <point x="703" y="751"/>
      <point x="776" y="628" type="curve"/>
      <point x="813" y="834" type="line"/>
      <point x="753" y="920"/>
      <point x="651" y="1019"/>
      <point x="468" y="1019" type="curve" smooth="yes"/>
      <point x="268" y="1019"/>
      <point x="79" y="844"/>
    </contour>
  </outline>
</glyph>
<glyph name="h" format="2">
  <advance width="1087"/>
  <unicode hex="0068"/>
  <anchor x="559" y="0" name="bottom"/>
  <anchor x="547" y="1520" name="top"/>
  <outline>
    <contour>
      <point x="384" y="0" type="curve"/>
      <point x="384" y="1317" type="line" smooth="yes"/>
      <point x="384" y="1428"/>
      <point x="351" y="1471"/>
      <point x="250" y="1471" type="curve" smooth="yes"/>
      <point x="155" y="1471" type="line"/>
      <point x="142" y="1458" type="line"/>
      <point x="142" y="0" type="line"/>
      <point x="178" y="-6"/>
      <point x="220" y="-9"/>
      <point x="262" y="-9" type="curve" smooth="yes"/>
      <point x="306" y="-9"/>
      <point x="350" y="-6"/>
    </contour>
    <contour>
      <point x="952" y="226" type="curve" smooth="yes"/>
      <point x="952" y="670" type="line" smooth="yes"/>
      <point x="952" y="863"/>
      <point x="867" y="1009"/>
      <point x="681" y="1009" type="curve" smooth="yes"/>
      <point x="538" y="1009"/>
      <point x="414" y="925"/>
      <point x="323" y="826" type="curve"/>
      <point x="323" y="599" type="line"/>
      <point x="386" y="721"/>
      <point x="509" y="786"/>
      <point x="595" y="786" type="curve" smooth="yes"/>
      <point x="681" y="786"/>
      <point x="705" y="734"/>
      <point x="705" y="617" type="curve" smooth="yes"/>
      <point x="705" y="141" type="line" smooth="yes"/>
      <point x="705" y="40"/>
      <point x="739" y="-14"/>
      <point x="837" y="-14" type="curve" smooth="yes"/>
      <point x="898" y="-14"/>
      <point x="955" y="8"/>
      <point x="992" y="39" type="curve"/>
      <point x="962" y="87"/>
      <point x="952" y="153"/>
    </contour>
  </outline>
</glyph>
<glyph name="k" format="2">
  <advance width="1020"/>
  <unicode hex="006B"/>
  <anchor x="552" y="0" name="bottom"/>
  <anchor x="552" y="1084" name="top"/>
  <outline>
    <contour>
      <point x="384" y="0" type="curve"/>
      <point x="384" y="1317" type="line" smooth="yes"/>
      <point x="384" y="1428"/>
      <point x="351" y="1471"/>
      <point x="250" y="1471" type="curve" smooth="yes"/>
      <point x="155" y="1471" type="line"/>
      <point x="142" y="1458" type="line"/>
      <point x="142" y="0" type="line"/>
      <point x="177" y="-6"/>
      <point x="219" y="-9"/>
      <point x="262" y="-9" type="curve" smooth="yes"/>
      <point x="305" y="-9"/>
      <point x="350" y="-6"/>
    </contour>
    <contour>
      <point x="897" y="224" type="curve" smooth="yes"/>
      <point x="837" y="383" type="line" smooth="yes"/>
      <point x="784" y="520"/>
      <point x="689" y="576"/>
      <point x="544" y="576" type="curve" smooth="yes"/>
      <point x="259" y="576" type="line"/>
      <point x="259" y="401" type="line"/>
      <point x="334" y="409" type="line" smooth="yes"/>
      <point x="380" y="415"/>
      <point x="418" y="419"/>
      <point x="464" y="419" type="curve" smooth="yes"/>
      <point x="542" y="419"/>
      <point x="577" y="394"/>
      <point x="614" y="298" type="curve" smooth="yes"/>
      <point x="686" y="111" type="line" smooth="yes"/>
      <point x="717" y="25"/>
      <point x="747" y="-14"/>
      <point x="828" y="-14" type="curve" smooth="yes"/>
      <point x="891" y="-14"/>
      <point x="957" y="20"/>
      <point x="993" y="62" type="curve"/>
      <point x="955" y="90"/>
      <point x="929" y="134"/>
    </contour>
    <contour>
      <point x="741" y="652" type="curve" smooth="yes"/>
      <point x="934" y="980" type="line"/>
      <point x="922" y="996" type="line"/>
      <point x="876" y="998"/>
      <point x="838" y="999"/>
      <point x="787" y="999" type="curve" smooth="yes"/>
      <point x="712" y="999"/>
      <point x="671" y="965"/>
      <point x="637" y="901" type="curve" smooth="yes"/>
      <point x="489" y="654" type="line" smooth="yes"/>
      <point x="475" y="630"/>
      <point x="462" y="623"/>
      <point x="437" y="623" type="curve" smooth="yes"/>
      <point x="286" y="618" type="line"/>
      <point x="286" y="504" type="line"/>
      <point x="455" y="504" type="line" smooth="yes"/>
      <point x="592" y="504"/>
      <point x="684" y="550"/>
    </contour>
  </outline>
</glyph>
<glyph name="l" format="2">
  <advance width="602"/>
  <unicode hex="006C"/>
  <anchor x="346" y="0" name="bottom"/>
  <anchor x="602" y="786" name="periodcentered"/>
  <anchor x="253" y="1551" name="top"/>
  <anchor x="381" y="992" name="topright"/>
  <outline>
    <contour>
      <point x="530" y="183" type="curve"/>
      <point x="463" y="183" type="line"/>
      <point x="406" y="183"/>
      <point x="381" y="214"/>
      <point x="381" y="274" type="curve" smooth="yes"/>
      <point x="381" y="1317" type="line" smooth="yes"/>
      <point x="381" y="1428"/>
      <point x="348" y="1471"/>
      <point x="247" y="1471" type="curve" smooth="yes"/>
      <point x="152" y="1471" type="line"/>
      <point x="139" y="1458" type="line"/>
      <point x="139" y="225" type="line" smooth="yes"/>
      <point x="139" y="66"/>
      <point x="207" y="-9"/>
      <point x="356" y="-9" type="curve" smooth="yes"/>
      <point x="419" y="-9"/>
      <point x="492" y="-1"/>
      <point x="544" y="7" type="curve"/>
      <point x="549" y="24"/>
      <point x="550" y="44"/>
      <point x="550" y="62" type="curve" smooth="yes"/>
      <point x="550" y="104"/>
      <point x="542" y="148"/>
    </contour>
  </outline>
</glyph>
<glyph name="m" format="2">
  <advance width="1603"/>
  <unicode hex="006D"/>
  <anchor x="805" y="0" name="bottom"/>
  <anchor x="792" y="1084" name="top"/>
  <outline>
    <contour>
      <point x="247" y="1002" type="curve" smooth="yes"/>
      <point x="155" y="1002" type="line"/>
      <point x="142" y="988" type="line"/>
      <point x="142" y="0" type="line"/>
      <point x="177" y="-6"/>
      <point x="223" y="-9"/>
      <point x="266" y="-9" type="curve" smooth="yes"/>
      <point x="309" y="-9"/>
      <point x="355" y="-6"/>
      <point x="390" y="0" type="curve"/>
      <point x="390" y="824" type="line" smooth="yes"/>
      <point x="390" y="935"/>
      <point x="346" y="1002"/>
    </contour>
    <contour>
      <point x="681" y="617" type="curve" smooth="yes"/>
      <point x="681" y="0" type="line"/>
      <point x="716" y="-6"/>
      <point x="762" y="-9"/>
      <point x="805" y="-9" type="curve" smooth="yes"/>
      <point x="849" y="-9"/>
      <point x="894" y="-6"/>
      <point x="929" y="0" type="curve"/>
      <point x="929" y="697" type="line" smooth="yes"/>
      <point x="929" y="874"/>
      <point x="838" y="1010"/>
      <point x="664" y="1010" type="curve" smooth="yes"/>
      <point x="525" y="1010"/>
      <point x="397" y="909"/>
      <point x="307" y="792" type="curve"/>
      <point x="307" y="564" type="line"/>
      <point x="354" y="678"/>
      <point x="479" y="785"/>
      <point x="573" y="787" type="curve" smooth="yes"/>
      <point x="638" y="787"/>
      <point x="681" y="744"/>
    </contour>
    <contour>
      <point x="1221" y="619" type="curve"/>
      <point x="1221" y="141" type="line" smooth="yes"/>
      <point x="1221" y="40"/>
      <point x="1255" y="-14"/>
      <point x="1353" y="-14" type="curve" smooth="yes"/>
      <point x="1414" y="-14"/>
      <point x="1472" y="8"/>
      <point x="1508" y="39" type="curve"/>
      <point x="1478" y="87"/>
      <point x="1469" y="153"/>
      <point x="1469" y="226" type="curve" smooth="yes"/>
      <point x="1469" y="695" type="line" smooth="yes"/>
      <point x="1469" y="872"/>
      <point x="1383" y="1010"/>
      <point x="1208" y="1010" type="curve" smooth="yes"/>
      <point x="1072" y="1010"/>
      <point x="935" y="918"/>
      <point x="840" y="810" type="curve"/>
      <point x="840" y="557" type="line"/>
      <point x="898" y="681"/>
      <point x="1022" y="787"/>
      <point x="1111" y="787" type="curve" smooth="yes"/>
      <point x="1176" y="787"/>
      <point x="1221" y="746"/>
    </contour>
  </outline>
</glyph>
<glyph name="n" format="2">
  <advance width="1092"/>
  <unicode hex="006E"/>
  <anchor x="559" y="0" name="bottom"/>
  <anchor x="559" y="1084" name="top"/>
  <outline>
    <contour>
      <point x="249" y="1002" type="curve" smooth="yes"/>
      <point x="155" y="1002" type="line"/>
      <point x="142" y="989" type="line"/>
      <point x="142" y="0" type="line"/>
      <point x="177" y="-6"/>
      <point x="223" y="-9"/>
      <point x="266" y="-9" type="curve" smooth="yes"/>
      <point x="309" y="-9"/>
      <point x="355" y="-6"/>
      <point x="390" y="0" type="curve"/>
      <point x="390" y="824" type="line" smooth="yes"/>
      <point x="390" y="935"/>
      <point x="347" y="1002"/>
    </contour>
    <contour>
      <point x="958" y="226" type="curve" smooth="yes"/>
      <point x="958" y="671" type="line" smooth="yes"/>
      <point x="958" y="864"/>
      <point x="872" y="1010"/>
      <point x="687" y="1010" type="curve" smooth="yes"/>
      <point x="543" y="1010"/>
      <point x="419" y="926"/>
      <point x="328" y="827" type="curve"/>
      <point x="328" y="600" type="line"/>
      <point x="391" y="722"/>
      <point x="515" y="787"/>
      <point x="601" y="787" type="curve" smooth="yes"/>
      <point x="686" y="787"/>
      <point x="710" y="735"/>
      <point x="710" y="618" type="curve" smooth="yes"/>
      <point x="710" y="141" type="line" smooth="yes"/>
      <point x="710" y="40"/>
      <point x="744" y="-14"/>
      <point x="842" y="-14" type="curve" smooth="yes"/>
      <point x="903" y="-14"/>
      <point x="961" y="8"/>
      <point x="997" y="39" type="curve"/>
      <point x="968" y="87"/>
      <point x="958" y="153"/>
    </contour>
  </outline>
</glyph>
<glyph name="o" format="2">
  <advance width="1041"/>
  <unicode hex="006F"/>
  <anchor x="520" y="0" name="bottom"/>
  <anchor x="686" y="0" name="ogonek"/>
  <anchor x="520" y="1084" name="top"/>
  <anchor x="829" y="966" name="topright"/>
  <outline>
    <contour>
      <point x="964" y="496" type="curve" smooth="yes"/>
      <point x="964" y="805"/>
      <point x="814" y="1019"/>
      <point x="520" y="1019" type="curve" smooth="yes"/>
      <point x="230" y="1019"/>
      <point x="77" y="807"/>
      <point x="77" y="496" type="curve" smooth="yes"/>
      <point x="77" y="187"/>
      <point x="227" y="-27"/>
      <point x="520" y="-27" type="curve" smooth="yes"/>
      <point x="811" y="-27"/>
      <point x="964" y="184"/>
    </contour>
    <contour>
      <point x="332" y="496" type="curve" smooth="yes"/>
      <point x="332" y="673"/>
      <point x="368" y="833"/>
      <point x="521" y="833" type="curve" smooth="yes"/>
      <point x="674" y="833"/>
      <point x="710" y="673"/>
      <point x="710" y="496" type="curve" smooth="yes"/>
      <point x="710" y="318"/>
      <point x="674" y="160"/>
      <point x="521" y="160" type="curve" smooth="yes"/>
      <point x="368" y="160"/>
      <point x="332" y="318"/>
    </contour>
  </outline>
</glyph>
<glyph name="p" format="2">
  <advance width="1066"/>
  <unicode hex="0070"/>
  <anchor x="524" y="1084" name="top"/>
  <outline>
    <contour>
      <point x="226" y="1002" type="curve" smooth="yes"/>
      <point x="155" y="1002" type="line"/>
      <point x="142" y="989" type="line"/>
      <point x="142" y="-418" type="line"/>
      <point x="155" y="-431" type="line"/>
      <point x="250" y="-431" type="line" smooth="yes"/>
      <point x="351" y="-431"/>
      <point x="385" y="-388"/>
      <point x="385" y="-277" type="curve" smooth="yes"/>
      <point x="385" y="801" type="line" smooth="yes"/>
      <point x="385" y="927"/>
      <point x="329" y="1002"/>
    </contour>
    <contour>
      <point x="988" y="508" type="curve" smooth="yes"/>
      <point x="988" y="809"/>
      <point x="872" y="1019"/>
      <point x="637" y="1019" type="curve" smooth="yes"/>
      <point x="446" y="1019"/>
      <point x="296" y="868"/>
      <point x="266" y="722" type="curve"/>
      <point x="318" y="560" type="line"/>
      <point x="371" y="752"/>
      <point x="491" y="816"/>
      <point x="577" y="816" type="curve" smooth="yes"/>
      <point x="663" y="816"/>
      <point x="734" y="727"/>
      <point x="734" y="509" type="curve" smooth="yes"/>
      <point x="734" y="288"/>
      <point x="664" y="173"/>
      <point x="559" y="173" type="curve" smooth="yes"/>
      <point x="472" y="173"/>
      <point x="380" y="235"/>
      <point x="303" y="296" type="curve"/>
      <point x="269" y="110" type="line"/>
      <point x="361" y="48"/>
      <point x="466" y="-18"/>
      <point x="597" y="-18" type="curve" smooth="yes"/>
      <point x="799" y="-18"/>
      <point x="988" y="156"/>
    </contour>
  </outline>
</glyph>
<glyph name="q" format="2">
  <advance width="1066"/>
  <unicode hex="0071"/>
  <outline>
    <contour>
      <point x="79" y="494" type="curve" smooth="yes"/>
      <point x="79" y="190"/>
      <point x="195" y="-18"/>
      <point x="431" y="-18" type="curve" smooth="yes"/>
      <point x="583" y="-18"/>
      <point x="711" y="79"/>
      <point x="771" y="178" type="curve"/>
      <point x="735" y="361" type="line"/>
      <point x="680" y="253"/>
      <point x="584" y="184"/>
      <point x="487" y="184" type="curve" smooth="yes"/>
      <point x="402" y="184"/>
      <point x="332" y="275"/>
      <point x="332" y="493" type="curve" smooth="yes"/>
      <point x="332" y="714"/>
      <point x="402" y="828"/>
      <point x="509" y="828" type="curve" smooth="yes"/>
      <point x="598" y="828"/>
      <point x="703" y="751"/>
      <point x="776" y="628" type="curve"/>
      <point x="813" y="836" type="line"/>
      <point x="753" y="922"/>
      <point x="651" y="1019"/>
      <point x="468" y="1019" type="curve" smooth="yes"/>
      <point x="268" y="1019"/>
      <point x="79" y="844"/>
    </contour>
    <contour>
      <point x="680" y="729" type="curve" smooth="yes"/>
      <point x="680" y="-277" type="line" smooth="yes"/>
      <point x="680" y="-388"/>
      <point x="713" y="-431"/>
      <point x="814" y="-431" type="curve" smooth="yes"/>
      <point x="909" y="-431" type="line"/>
      <point x="922" y="-418" type="line"/>
      <point x="922" y="707" type="line" smooth="yes"/>
      <point x="922" y="780"/>
      <point x="939" y="846"/>
      <point x="978" y="879" type="curve"/>
      <point x="967" y="924"/>
      <point x="930" y="982"/>
      <point x="894" y="1007" type="curve"/>
      <point x="746" y="990"/>
      <point x="680" y="872"/>
    </contour>
  </outline>
</glyph>
<glyph name="r" format="2">
  <advance width="759"/>
  <unicode hex="0072"/>
  <anchor x="283" y="0" name="bottom"/>
  <anchor x="409" y="1084" name="top"/>
  <outline>
    <contour>
      <point x="752" y="992" type="curve"/>
      <point x="713" y="1000"/>
      <point x="681" y="1006"/>
      <point x="636" y="1006" type="curve" smooth="yes"/>
      <point x="405" y="1006"/>
      <point x="335" y="773"/>
      <point x="326" y="573" type="curve"/>
      <point x="358" y="532" type="line"/>
      <point x="403" y="656"/>
      <point x="467" y="773"/>
      <point x="601" y="773" type="curve"/>
      <point x="631" y="771"/>
      <point x="661" y="768"/>
      <point x="691" y="759" type="curve"/>
      <point x="733" y="828"/>
      <point x="752" y="929"/>
    </contour>
    <contour>
      <point x="84" y="877" type="curve"/>
      <point x="118" y="849"/>
      <point x="159" y="781"/>
      <point x="159" y="670" type="curve" smooth="yes"/>
      <point x="159" y="0" type="line"/>
      <point x="194" y="-6"/>
      <point x="240" y="-9"/>
      <point x="283" y="-9" type="curve" smooth="yes"/>
      <point x="326" y="-9"/>
      <point x="372" y="-6"/>
      <point x="406" y="0" type="curve"/>
      <point x="406" y="690" type="line"/>
      <point x="393" y="865"/>
      <point x="320" y="984"/>
      <point x="167" y="1007" type="curve"/>
      <point x="132" y="981"/>
      <point x="95" y="921"/>
    </contour>
  </outline>
</glyph>
<glyph name="s" format="2">
  <advance width="880"/>
  <unicode hex="0073"/>
  <anchor x="438" y="0" name="bottom"/>
  <anchor x="440" y="1084" name="top"/>
  <outline>
    <contour>
      <point x="53" y="71" type="curve"/>
      <point x="142" y="18"/>
      <point x="269" y="-27"/>
      <point x="411" y="-27" type="curve" smooth="yes"/>
      <point x="660" y="-27"/>
      <point x="818" y="90"/>
      <point x="818" y="281" type="curve" smooth="yes"/>
      <point x="818" y="442"/>
      <point x="710" y="536"/>
      <point x="560" y="590" type="curve" smooth="yes"/>
      <point x="436" y="635" type="line" smooth="yes"/>
      <point x="364" y="661"/>
      <point x="331" y="691"/>
      <point x="331" y="739" type="curve" smooth="yes"/>
      <point x="331" y="795"/>
      <point x="377" y="835"/>
      <point x="451" y="835" type="curve" smooth="yes"/>
      <point x="549" y="835"/>
      <point x="648" y="799"/>
      <point x="723" y="765" type="curve"/>
      <point x="765" y="799"/>
      <point x="796" y="882"/>
      <point x="793" y="942" type="curve"/>
      <point x="709" y="983"/>
      <point x="566" y="1019"/>
      <point x="451" y="1019" type="curve" smooth="yes"/>
      <point x="236" y="1019"/>
      <point x="84" y="901"/>
      <point x="84" y="710" type="curve" smooth="yes"/>
      <point x="84" y="555"/>
      <point x="197" y="470"/>
      <point x="336" y="419" type="curve" smooth="yes"/>
      <point x="450" y="377" type="line" smooth="yes"/>
      <point x="526" y="350"/>
      <point x="562" y="308"/>
      <point x="562" y="259" type="curve" smooth="yes"/>
      <point x="562" y="198"/>
      <point x="504" y="155"/>
      <point x="408" y="155" type="curve" smooth="yes"/>
      <point x="311" y="155"/>
      <point x="214" y="195"/>
      <point x="129" y="241" type="curve"/>
      <point x="89" y="203"/>
      <point x="55" y="126"/>
    </contour>
  </outline>
</glyph>
<glyph name="t" format="2">
  <advance width="720"/>
  <unicode hex="0074"/>
  <anchor x="407" y="0" name="bottom"/>
  <anchor x="331" y="1366" name="top"/>
  <anchor x="423" y="992" name="topright"/>
  <outline>
    <contour>
      <point x="181" y="1142" type="curve" smooth="yes"/>
      <point x="181" y="225" type="line" smooth="yes"/>
      <point x="181" y="66"/>
      <point x="259" y="-9"/>
      <point x="413" y="-9" type="curve" smooth="yes"/>
      <point x="492" y="-9"/>
      <point x="581" y="-2"/>
      <point x="650" y="7" type="curve"/>
      <point x="654" y="24"/>
      <point x="655" y="44"/>
      <point x="655" y="62" type="curve" smooth="yes"/>
      <point x="655" y="103"/>
      <point x="648" y="148"/>
      <point x="635" y="183" type="curve"/>
      <point x="508" y="183" type="line" smooth="yes"/>
      <point x="446" y="183"/>
      <point x="423" y="217"/>
      <point x="423" y="273" type="curve" smooth="yes"/>
      <point x="423" y="1283" type="line"/>
      <point x="410" y="1296" type="line"/>
      <point x="315" y="1296" type="line" smooth="yes"/>
      <point x="214" y="1296"/>
      <point x="181" y="1253"/>
    </contour>
    <contour>
      <point x="666" y="994" type="curve"/>
      <point x="326" y="988" type="line"/>
      <point x="30" y="994" type="line"/>
      <point x="23" y="962"/>
      <point x="20" y="934"/>
      <point x="20" y="905" type="curve" smooth="yes"/>
      <point x="20" y="873"/>
      <point x="23" y="844"/>
      <point x="30" y="814" type="curve"/>
      <point x="321" y="819" type="line"/>
      <point x="666" y="814" type="line"/>
      <point x="674" y="844"/>
      <point x="677" y="873"/>
      <point x="677" y="905" type="curve" smooth="yes"/>
      <point x="677" y="934"/>
      <point x="674" y="962"/>
    </contour>
  </outline>
</glyph>
<glyph name="u" format="2">
  <advance width="1095"/>
  <unicode hex="0075"/>
  <anchor x="538" y="0" name="bottom"/>
  <anchor x="922" y="-15" name="ogonek"/>
  <anchor x="533" y="1084" name="top"/>
  <anchor x="950" y="992" name="topright"/>
  <outline>
    <contour>
      <point x="950" y="282" type="curve" smooth="yes"/>
      <point x="950" y="992" type="line"/>
      <point x="915" y="998"/>
      <point x="869" y="1001"/>
      <point x="826" y="1001" type="curve" smooth="yes"/>
      <point x="783" y="1001"/>
      <point x="737" y="998"/>
      <point x="703" y="992" type="curve"/>
      <point x="703" y="265" type="line" smooth="yes"/>
      <point x="703" y="122"/>
      <point x="773" y="2"/>
      <point x="922" y="-15" type="curve"/>
      <point x="958" y="9"/>
      <point x="995" y="65"/>
      <point x="1006" y="110" type="curve"/>
      <point x="967" y="143"/>
      <point x="950" y="210"/>
    </contour>
    <contour>
      <point x="135" y="765" type="curve" smooth="yes"/>
      <point x="135" y="321" type="line" smooth="yes"/>
      <point x="135" y="127"/>
      <point x="220" y="-18"/>
      <point x="406" y="-18" type="curve" smooth="yes"/>
      <point x="549" y="-18"/>
      <point x="673" y="66"/>
      <point x="764" y="164" type="curve"/>
      <point x="764" y="392" type="line"/>
      <point x="701" y="270"/>
      <point x="577" y="205"/>
      <point x="492" y="205" type="curve" smooth="yes"/>
      <point x="406" y="205"/>
      <point x="382" y="257"/>
      <point x="382" y="374" type="curve" smooth="yes"/>
      <point x="382" y="850" type="line" smooth="yes"/>
      <point x="382" y="952"/>
      <point x="348" y="1006"/>
      <point x="250" y="1006" type="curve" smooth="yes"/>
      <point x="189" y="1006"/>
      <point x="131" y="983"/>
      <point x="95" y="953" type="curve"/>
      <point x="125" y="904"/>
      <point x="135" y="838"/>
    </contour>
  </outline>
</glyph>
<glyph name="v" format="2">
  <advance width="930"/>
  <unicode hex="0076"/>
  <anchor x="469" y="0" name="bottom"/>
  <anchor x="464" y="1084" name="top"/>
  <outline>
    <contour>
      <point x="694" y="991" type="curve"/>
      <point x="483" y="195" type="line"/>
      <point x="471" y="195"/>
      <point x="466" y="196"/>
      <point x="463" y="211" type="curve" smooth="yes"/>
      <point x="451" y="272"/>
      <point x="425" y="392"/>
      <point x="399" y="483" type="curve" smooth="yes"/>
      <point x="282" y="897" type="line" smooth="yes"/>
      <point x="262" y="979"/>
      <point x="217" y="1008"/>
      <point x="143" y="1008" type="curve" smooth="yes"/>
      <point x="102" y="1008"/>
      <point x="52" y="995"/>
      <point x="3" y="972" type="curve"/>
      <point x="266" y="117" type="line" smooth="yes"/>
      <point x="299" y="9"/>
      <point x="345" y="-11"/>
      <point x="441" y="-11" type="curve" smooth="yes"/>
      <point x="502" y="-11"/>
      <point x="570" y="-8"/>
      <point x="624" y="0" type="curve"/>
      <point x="697" y="224"/>
      <point x="832" y="670"/>
      <point x="920" y="971" type="curve"/>
      <point x="913" y="981" type="line"/>
      <point x="875" y="996"/>
      <point x="829" y="1001"/>
      <point x="786" y="1001" type="curve" smooth="yes"/>
      <point x="756" y="1001"/>
      <point x="725" y="998"/>
    </contour>
  </outline>
</glyph>
<glyph name="w" format="2">
  <advance width="1471"/>
  <unicode hex="0077"/>
  <anchor x="737" y="0" name="bottom"/>
  <anchor x="737" y="1084" name="top"/>
  <outline>
    <contour>
      <point x="31" y="977" type="curve"/>
      <point x="233" y="115" type="line" smooth="yes"/>
      <point x="258" y="10"/>
      <point x="308" y="-10"/>
      <point x="397" y="-10" type="curve" smooth="yes"/>
      <point x="457" y="-10"/>
      <point x="537" y="-7"/>
      <point x="589" y="0" type="curve"/>
      <point x="661" y="369" type="line" smooth="yes"/>
      <point x="680" y="472"/>
      <point x="709" y="627"/>
      <point x="731" y="767" type="curve"/>
      <point x="741" y="767" type="line"/>
      <point x="764" y="626"/>
      <point x="790" y="469"/>
      <point x="809" y="366" type="curve" smooth="yes"/>
      <point x="856" y="113" type="line" smooth="yes"/>
      <point x="874" y="5"/>
      <point x="926" y="-10"/>
      <point x="1021" y="-10" type="curve" smooth="yes"/>
      <point x="1079" y="-10"/>
      <point x="1156" y="-8"/>
      <point x="1205" y="-1" type="curve"/>
      <point x="1444" y="967" type="line"/>
      <point x="1437" y="981" type="line"/>
      <point x="1404" y="998"/>
      <point x="1346" y="1002"/>
      <point x="1309" y="1002" type="curve" smooth="yes"/>
      <point x="1277" y="1002"/>
      <point x="1237" y="999"/>
      <point x="1209" y="991" type="curve"/>
      <point x="1108" y="525" type="line" smooth="yes"/>
      <point x="1082" y="404"/>
      <point x="1062" y="290"/>
      <point x="1042" y="184" type="curve"/>
      <point x="1031" y="184"/>
      <point x="1029" y="187"/>
      <point x="1026" y="200" type="curve" smooth="yes"/>
      <point x="883" y="985" type="line"/>
      <point x="847" y="993"/>
      <point x="770" y="996"/>
      <point x="736" y="996" type="curve" smooth="yes"/>
      <point x="703" y="996"/>
      <point x="629" y="993"/>
      <point x="591" y="985" type="curve"/>
      <point x="445" y="184" type="line"/>
      <point x="435" y="184"/>
      <point x="432" y="187"/>
      <point x="429" y="200" type="curve" smooth="yes"/>
      <point x="418" y="274"/>
      <point x="396" y="398"/>
      <point x="369" y="525" type="curve" smooth="yes"/>
      <point x="290" y="904" type="line" smooth="yes"/>
      <point x="275" y="974"/>
      <point x="245" y="1008"/>
      <point x="172" y="1008" type="curve" smooth="yes"/>
      <point x="130" y="1008"/>
      <point x="83" y="998"/>
    </contour>
  </outline>
</glyph>
<glyph name="x" format="2">
  <advance width="937"/>
  <unicode hex="0078"/>
  <anchor x="464" y="1084" name="top"/>
  <outline>
    <contour>
      <point x="44" y="954" type="curve"/>
      <point x="623" y="58" type="line"/>
      <point x="655" y="9"/>
      <point x="691" y="-16"/>
      <point x="752" y="-16" type="curve" smooth="yes"/>
      <point x="809" y="-16"/>
      <point x="874" y="7"/>
      <point x="922" y="40" type="curve"/>
      <point x="338" y="933" type="line" smooth="yes"/>
      <point x="305" y="983"/>
      <point x="274" y="1010"/>
      <point x="213" y="1010" type="curve" smooth="yes"/>
      <point x="160" y="1010"/>
      <point x="96" y="991"/>
    </contour>
    <contour>
      <point x="656" y="992" type="curve"/>
      <point x="440" y="637" type="line"/>
      <point x="371" y="572" type="line"/>
      <point x="19" y="25" type="line"/>
      <point x="28" y="9" type="line"/>
      <point x="63" y="-5"/>
      <point x="108" y="-11"/>
      <point x="156" y="-11" type="curve" smooth="yes"/>
      <point x="192" y="-11"/>
      <point x="232" y="-8"/>
      <point x="256" y="-1" type="curve"/>
      <point x="500" y="403" type="line"/>
      <point x="563" y="466" type="line"/>
      <point x="885" y="966" type="line"/>
      <point x="878" y="984" type="line"/>
      <point x="844" y="995"/>
      <point x="803" y="1002"/>
      <point x="755" y="1002" type="curve" smooth="yes"/>
      <point x="720" y="1002"/>
      <point x="681" y="998"/>
    </contour>
  </outline>
</glyph>
<glyph name="y" format="2">
  <advance width="958"/>
  <unicode hex="0079"/>
  <anchor x="805" y="-64" name="bottom"/>
  <anchor x="477" y="1084" name="top"/>
  <outline>
    <contour>
      <point x="682" y="29" type="curve" smooth="yes"/>
      <point x="940" y="969" type="line"/>
      <point x="931" y="984" type="line"/>
      <point x="889" y="998"/>
      <point x="844" y="1002"/>
      <point x="801" y="1002" type="curve" smooth="yes"/>
      <point x="769" y="1002"/>
      <point x="728" y="999"/>
      <point x="699" y="991" type="curve"/>
      <point x="497" y="173" type="line"/>
      <point x="487" y="173"/>
      <point x="482" y="175"/>
      <point x="480" y="187" type="curve" smooth="yes"/>
      <point x="465" y="258"/>
      <point x="440" y="386"/>
      <point x="417" y="468" type="curve" smooth="yes"/>
      <point x="297" y="899" type="line" smooth="yes"/>
      <point x="276" y="983"/>
      <point x="235" y="1008"/>
      <point x="175" y="1008" type="curve" smooth="yes"/>
      <point x="135" y="1008"/>
      <point x="77" y="996"/>
      <point x="24" y="972" type="curve"/>
      <point x="275" y="103" type="line" smooth="yes"/>
      <point x="300" y="17"/>
      <point x="357" y="-10"/>
      <point x="450" y="-11" type="curve"/>
      <point x="443" y="-37" type="line" smooth="yes"/>
      <point x="403" y="-169"/>
      <point x="341" y="-252"/>
      <point x="220" y="-252" type="curve" smooth="yes"/>
      <point x="162" y="-252"/>
      <point x="96" y="-237"/>
      <point x="60" y="-225" type="curve"/>
      <point x="27" y="-263"/>
      <point x="2" y="-345"/>
      <point x="8" y="-402" type="curve"/>
      <point x="55" y="-419"/>
      <point x="150" y="-437"/>
      <point x="219" y="-437" type="curve" smooth="yes"/>
      <point x="502" y="-437"/>
      <point x="601" y="-262"/>
    </contour>
  </outline>
</glyph>
<glyph name="z" format="2">
  <advance width="895"/>
  <unicode hex="007A"/>
  <anchor x="449" y="0" name="bottom"/>
  <anchor x="449" y="1084" name="top"/>
  <outline>
    <contour>
      <point x="390" y="617" type="curve" smooth="yes"/>
      <point x="99" y="223" type="line" smooth="yes"/>
      <point x="72" y="187"/>
      <point x="62" y="156"/>
      <point x="62" y="128" type="curve" smooth="yes"/>
      <point x="62" y="97"/>
      <point x="70" y="65"/>
      <point x="93" y="0" type="curve"/>
      <point x="692" y="0" type="line" smooth="yes"/>
      <point x="800" y="0"/>
      <point x="836" y="44"/>
      <point x="836" y="114" type="curve" smooth="yes"/>
      <point x="836" y="148"/>
      <point x="829" y="179"/>
      <point x="811" y="220" type="curve"/>
      <point x="760" y="196"/>
      <point x="686" y="190"/>
      <point x="607" y="190" type="curve" smooth="yes"/>
      <point x="522" y="190" type="line" smooth="yes"/>
      <point x="473" y="190"/>
      <point x="409" y="187"/>
      <point x="348" y="180" type="curve"/>
      <point x="342" y="189" type="line"/>
      <point x="391" y="244"/>
      <point x="450" y="317"/>
      <point x="495" y="378" type="curve" smooth="yes"/>
      <point x="789" y="772" type="line" smooth="yes"/>
      <point x="808" y="797"/>
      <point x="816" y="827"/>
      <point x="816" y="851" type="curve" smooth="yes"/>
      <point x="816" y="886"/>
      <point x="805" y="926"/>
      <point x="782" y="992" type="curve"/>
      <point x="102" y="992" type="line"/>
      <point x="94" y="956"/>
      <point x="88" y="916"/>
      <point x="88" y="882" type="curve" smooth="yes"/>
      <point x="88" y="859"/>
      <point x="91" y="829"/>
      <point x="97" y="804" type="curve"/>
      <point x="285" y="804" type="line" smooth="yes"/>
      <point x="364" y="804"/>
      <point x="481" y="810"/>
      <point x="544" y="817" type="curve"/>
      <point x="550" y="809" type="line"/>
      <point x="503" y="753"/>
      <point x="437" y="680"/>
    </contour>
  </outline>
</glyph>
<glyph name="braceleft" format="2">
  <advance width="733"/>
  <unicode hex="007B"/>
  <outline>
    <contour>
      <point x="87" y="633" type="curve"/>
      <point x="71" y="594"/>
      <point x="71" y="512"/>
      <point x="87" y="472" type="curve"/>
      <point x="182" y="448"/>
      <point x="252" y="356"/>
      <point x="252" y="244" type="curve" smooth="yes"/>
      <point x="252" y="-90" type="line" smooth="yes"/>
      <point x="252" y="-288"/>
      <point x="379" y="-399"/>
      <point x="552" y="-428" type="curve" smooth="yes"/>
      <point x="666" y="-446" type="line"/>
      <point x="700" y="-409"/>
      <point x="722" y="-324"/>
      <point x="712" y="-281" type="curve"/>
      <point x="604" y="-246" type="line" smooth="yes"/>
      <point x="544" y="-227"/>
      <point x="503" y="-173"/>
      <point x="503" y="-88" type="curve" smooth="yes"/>
      <point x="503" y="240" type="line" smooth="yes"/>
      <point x="503" y="370"/>
      <point x="436" y="498"/>
      <point x="332" y="545" type="curve"/>
      <point x="332" y="561" type="line"/>
      <point x="436" y="607"/>
      <point x="503" y="735"/>
      <point x="503" y="866" type="curve" smooth="yes"/>
      <point x="503" y="1192" type="line" smooth="yes"/>
      <point x="503" y="1277"/>
      <point x="544" y="1331"/>
      <point x="604" y="1350" type="curve" smooth="yes"/>
      <point x="712" y="1385" type="line"/>
      <point x="722" y="1428"/>
      <point x="700" y="1514"/>
      <point x="666" y="1551" type="curve"/>
      <point x="552" y="1532" type="line" smooth="yes"/>
      <point x="379" y="1504"/>
      <point x="252" y="1392"/>
      <point x="252" y="1194" type="curve" smooth="yes"/>
      <point x="252" y="862" type="line" smooth="yes"/>
      <point x="252" y="749"/>
      <point x="182" y="657"/>
    </contour>
  </outline>
</glyph>
<glyph name="bar" format="2">
  <advance width="522"/>
  <unicode hex="007C"/>
  <outline>
    <contour>
      <point x="145" y="1548" type="curve"/>
      <point x="145" y="-282" type="line"/>
      <point x="181" y="-291"/>
      <point x="234" y="-293"/>
      <point x="262" y="-293" type="curve" smooth="yes"/>
      <point x="295" y="-293"/>
      <point x="339" y="-291"/>
      <point x="377" y="-282" type="curve"/>
      <point x="377" y="1548" type="line"/>
      <point x="339" y="1556"/>
      <point x="295" y="1558"/>
      <point x="262" y="1558" type="curve" smooth="yes"/>
      <point x="234" y="1558"/>
      <point x="181" y="1556"/>
    </contour>
  </outline>
</glyph>
<glyph name="braceright" format="2">
  <advance width="733"/>
  <unicode hex="007D"/>
  <outline>
    <contour>
      <point x="647" y="633" type="curve"/>
      <point x="662" y="594"/>
      <point x="662" y="512"/>
      <point x="647" y="472" type="curve"/>
      <point x="552" y="448"/>
      <point x="481" y="356"/>
      <point x="481" y="244" type="curve" smooth="yes"/>
      <point x="481" y="-90" type="line" smooth="yes"/>
      <point x="481" y="-288"/>
      <point x="355" y="-399"/>
      <point x="182" y="-428" type="curve" smooth="yes"/>
      <point x="67" y="-446" type="line"/>
      <point x="34" y="-409"/>
      <point x="11" y="-324"/>
      <point x="21" y="-281" type="curve"/>
      <point x="129" y="-246" type="line" smooth="yes"/>
      <point x="189" y="-227"/>
      <point x="231" y="-173"/>
      <point x="231" y="-88" type="curve" smooth="yes"/>
      <point x="231" y="240" type="line" smooth="yes"/>
      <point x="231" y="370"/>
      <point x="297" y="498"/>
      <point x="401" y="545" type="curve"/>
      <point x="401" y="561" type="line"/>
      <point x="297" y="607"/>
      <point x="231" y="735"/>
      <point x="231" y="866" type="curve" smooth="yes"/>
      <point x="231" y="1192" type="line" smooth="yes"/>
      <point x="231" y="1277"/>
      <point x="189" y="1331"/>
      <point x="129" y="1350" type="curve" smooth="yes"/>
      <point x="21" y="1385" type="line"/>
      <point x="11" y="1428"/>
      <point x="34" y="1514"/>
      <point x="67" y="1551" type="curve"/>
      <point x="182" y="1532" type="line" smooth="yes"/>
      <point x="355" y="1504"/>
      <point x="481" y="1392"/>
      <point x="481" y="1194" type="curve" smooth="yes"/>
      <point x="481" y="862" type="line" smooth="yes"/>
      <point x="481" y="749"/>
      <point x="552" y="657"/>
    </contour>
  </outline>
</glyph>
<glyph name="asciitilde" format="2">
  <advance width="1208"/>
  <unicode hex="007E"/>
  <outline>
    <contour>
      <point x="732" y="661" type="curve" smooth="yes"/>
      <point x="571" y="734" type="line" smooth="yes"/>
      <point x="512" y="760"/>
      <point x="453" y="775"/>
      <point x="398" y="775" type="curve" smooth="yes"/>
      <point x="271" y="775"/>
      <point x="171" y="705"/>
      <point x="105" y="588" type="curve" smooth="yes"/>
      <point x="73" y="533" type="line"/>
      <point x="96" y="478"/>
      <point x="168" y="442"/>
      <point x="219" y="438" type="curve"/>
      <point x="262" y="485" type="line" smooth="yes"/>
      <point x="295" y="523"/>
      <point x="333" y="545"/>
      <point x="378" y="545" type="curve" smooth="yes"/>
      <point x="409" y="545"/>
      <point x="441" y="537"/>
      <point x="475" y="522" type="curve" smooth="yes"/>
      <point x="637" y="449" type="line" smooth="yes"/>
      <point x="696" y="423"/>
      <point x="755" y="408"/>
      <point x="810" y="408" type="curve" smooth="yes"/>
      <point x="937" y="408"/>
      <point x="1037" y="478"/>
      <point x="1103" y="595" type="curve" smooth="yes"/>
      <point x="1135" y="650" type="line"/>
      <point x="1112" y="705"/>
      <point x="1040" y="741"/>
      <point x="988" y="745" type="curve"/>
      <point x="946" y="698" type="line" smooth="yes"/>
      <point x="913" y="660"/>
      <point x="874" y="638"/>
      <point x="829" y="638" type="curve" smooth="yes"/>
      <point x="799" y="638"/>
      <point x="767" y="647"/>
    </contour>
  </outline>
</glyph>
<glyph name="cent" format="2">
  <advance width="1080"/>
  <unicode hex="00A2"/>
  <outline>
    <contour>
      <point x="564" y="-52" type="curve" smooth="yes"/>
      <point x="595" y="-52"/>
      <point x="633" y="-49"/>
      <point x="658" y="-43" type="curve"/>
      <point x="658" y="257" type="line"/>
      <point x="470" y="257" type="line"/>
      <point x="470" y="-43" type="line"/>
      <point x="495" y="-49"/>
      <point x="534" y="-52"/>
    </contour>
    <contour>
      <point x="476" y="999" type="line"/>
      <point x="664" y="999" type="line"/>
      <point x="664" y="1309" type="line"/>
      <point x="639" y="1315"/>
      <point x="602" y="1318"/>
      <point x="570" y="1318" type="curve" smooth="yes"/>
      <point x="538" y="1318"/>
      <point x="501" y="1315"/>
      <point x="476" y="1309" type="curve"/>
    </contour>
    <contour>
      <point x="571" y="133" type="curve" smooth="yes"/>
      <point x="717" y="133"/>
      <point x="877" y="199"/>
      <point x="961" y="297" type="curve"/>
      <point x="946" y="348"/>
      <point x="898" y="409"/>
      <point x="855" y="436" type="curve"/>
      <point x="789" y="379"/>
      <point x="696" y="333"/>
      <point x="608" y="333" type="curve" smooth="yes"/>
      <point x="462" y="333"/>
      <point x="368" y="422"/>
      <point x="368" y="629" type="curve" smooth="yes"/>
      <point x="368" y="834"/>
      <point x="437" y="945"/>
      <point x="571" y="945" type="curve" smooth="yes"/>
      <point x="707" y="945"/>
      <point x="749" y="820"/>
      <point x="746" y="701" type="curve"/>
      <point x="773" y="694"/>
      <point x="806" y="690"/>
      <point x="834" y="690" type="curve" smooth="yes"/>
      <point x="925" y="690"/>
      <point x="966" y="737"/>
      <point x="966" y="830" type="curve" smooth="yes"/>
      <point x="966" y="979"/>
      <point x="824" y="1133"/>
      <point x="577" y="1133" type="curve" smooth="yes"/>
      <point x="342" y="1133"/>
      <point x="117" y="983"/>
      <point x="117" y="629" type="curve" smooth="yes"/>
      <point x="117" y="399"/>
      <point x="222" y="133"/>
    </contour>
  </outline>
</glyph>
<glyph name="sterling" format="2">
  <advance width="1080"/>
  <unicode hex="00A3"/>
  <guideline x="140" y="137" angle="90.0"/>
  <outline>
    <contour>
      <point x="171" y="0" type="curve"/>
      <point x="820" y="0" type="line" smooth="yes"/>
      <point x="932" y="0"/>
      <point x="985" y="45"/>
      <point x="985" y="206" type="curve"/>
      <point x="738" y="206" type="line" smooth="yes"/>
      <point x="609" y="206"/>
      <point x="490" y="204"/>
      <point x="394" y="194" type="curve"/>
      <point x="389" y="199" type="line"/>
      <point x="478" y="282"/>
      <point x="545" y="390"/>
      <point x="545" y="511" type="curve" smooth="yes"/>
      <point x="545" y="670"/>
      <point x="476" y="789"/>
      <point x="476" y="909" type="curve" smooth="yes"/>
      <point x="476" y="1039"/>
      <point x="560" y="1090"/>
      <point x="649" y="1090" type="curve" smooth="yes"/>
      <point x="720" y="1090"/>
      <point x="793" y="1052"/>
      <point x="852" y="1000" type="curve"/>
      <point x="910" y="1030"/>
      <point x="957" y="1102"/>
      <point x="970" y="1163" type="curve"/>
      <point x="888" y="1236"/>
      <point x="771" y="1296"/>
      <point x="630" y="1296" type="curve" smooth="yes"/>
      <point x="380" y="1296"/>
      <point x="228" y="1124"/>
      <point x="228" y="926" type="curve" smooth="yes"/>
      <point x="228" y="767"/>
      <point x="319" y="653"/>
      <point x="319" y="491" type="curve" smooth="yes"/>
      <point x="319" y="399"/>
      <point x="276" y="337"/>
      <point x="224" y="280" type="curve" smooth="yes"/>
      <point x="200" y="253" type="line" smooth="yes"/>
      <point x="170" y="221"/>
      <point x="140" y="187"/>
      <point x="140" y="139" type="curve" smooth="yes"/>
      <point x="140" y="110"/>
      <point x="144" y="78"/>
    </contour>
    <contour>
      <point x="149" y="523" type="curve"/>
      <point x="410" y="525" type="line"/>
      <point x="821" y="523" type="line"/>
      <point x="827" y="547"/>
      <point x="830" y="583"/>
      <point x="830" y="613" type="curve" smooth="yes"/>
      <point x="830" y="645"/>
      <point x="827" y="678"/>
      <point x="821" y="702" type="curve"/>
      <point x="410" y="700" type="line"/>
      <point x="149" y="702" type="line"/>
      <point x="143" y="677"/>
      <point x="140" y="646"/>
      <point x="140" y="612" type="curve" smooth="yes"/>
      <point x="140" y="579"/>
      <point x="143" y="547"/>
    </contour>
  </outline>
</glyph>
<glyph name="currency" format="2">
  <advance width="1080"/>
  <unicode hex="00A4"/>
  <outline>
    <contour>
      <point x="538" y="239" type="curve" smooth="yes"/>
      <point x="771" y="239"/>
      <point x="934" y="399"/>
      <point x="934" y="632" type="curve" smooth="yes"/>
      <point x="934" y="867"/>
      <point x="771" y="1027"/>
      <point x="538" y="1027" type="curve" smooth="yes"/>
      <point x="307" y="1027"/>
      <point x="143" y="867"/>
      <point x="143" y="632" type="curve" smooth="yes"/>
      <point x="143" y="399"/>
      <point x="307" y="239"/>
    </contour>
    <contour>
      <point x="538" y="412" type="curve" smooth="yes"/>
      <point x="421" y="412"/>
      <point x="364" y="512"/>
      <point x="364" y="632" type="curve" smooth="yes"/>
      <point x="364" y="755"/>
      <point x="421" y="854"/>
      <point x="538" y="854" type="curve" smooth="yes"/>
      <point x="657" y="854"/>
      <point x="714" y="755"/>
      <point x="714" y="632" type="curve" smooth="yes"/>
      <point x="714" y="510"/>
      <point x="657" y="412"/>
    </contour>
    <contour>
      <point x="178" y="138" type="curve"/>
      <point x="414" y="350" type="line"/>
      <point x="261" y="504" type="line"/>
      <point x="48" y="269" type="line"/>
      <point x="78" y="218"/>
      <point x="127" y="166"/>
    </contour>
    <contour>
      <point x="261" y="759" type="line"/>
      <point x="411" y="912" type="line"/>
      <point x="178" y="1124" type="line"/>
      <point x="127" y="1095"/>
      <point x="74" y="1046"/>
      <point x="48" y="994" type="curve"/>
    </contour>
    <contour>
      <point x="820" y="761" type="line"/>
      <point x="1032" y="997" type="line"/>
      <point x="1002" y="1048"/>
      <point x="953" y="1098"/>
      <point x="902" y="1128" type="curve"/>
      <point x="667" y="915" type="line"/>
    </contour>
    <contour>
      <point x="899" y="137" type="line"/>
      <point x="952" y="168"/>
      <point x="1001" y="217"/>
      <point x="1029" y="268" type="curve"/>
      <point x="817" y="501" type="line"/>
      <point x="664" y="350" type="line"/>
    </contour>
  </outline>
</glyph>
<glyph name="yen" format="2">
  <advance width="1080"/>
  <unicode hex="00A5"/>
  <guideline x="691" y="969" angle="55.926993599999946"/>
  <outline>
    <contour>
      <point x="419" y="442" type="line"/>
      <point x="653" y="442" type="line"/>
      <point x="1007" y="1246" type="line"/>
      <point x="998" y="1265" type="line"/>
      <point x="953" y="1277"/>
      <point x="911" y="1281"/>
      <point x="872" y="1281" type="curve" smooth="yes"/>
      <point x="842" y="1281"/>
      <point x="810" y="1279"/>
      <point x="777" y="1269" type="curve"/>
      <point x="642" y="932" type="line" smooth="yes"/>
      <point x="614" y="861"/>
      <point x="577" y="763"/>
      <point x="549" y="673" type="curve"/>
      <point x="539" y="673" type="line"/>
      <point x="511" y="774"/>
      <point x="482" y="858"/>
      <point x="453" y="933" type="curve" smooth="yes"/>
      <point x="348" y="1195" type="line" smooth="yes"/>
      <point x="324" y="1261"/>
      <point x="291" y="1289"/>
      <point x="232" y="1289" type="curve" smooth="yes"/>
      <point x="180" y="1289"/>
      <point x="121" y="1269"/>
      <point x="73" y="1244" type="curve"/>
    </contour>
    <contour>
      <point x="537" y="-9" type="curve" smooth="yes"/>
      <point x="571" y="-9"/>
      <point x="618" y="-7"/>
      <point x="658" y="0" type="curve"/>
      <point x="658" y="516" type="line"/>
      <point x="414" y="516" type="line"/>
      <point x="414" y="0" type="line"/>
      <point x="453" y="-7"/>
      <point x="507" y="-9"/>
    </contour>
    <contour>
      <point x="134" y="305" type="curve"/>
      <point x="939" y="305" type="line"/>
      <point x="945" y="331"/>
      <point x="949" y="361"/>
      <point x="949" y="390" type="curve" smooth="yes"/>
      <point x="949" y="419"/>
      <point x="945" y="448"/>
      <point x="939" y="472" type="curve"/>
      <point x="134" y="472" type="line"/>
      <point x="128" y="449"/>
      <point x="124" y="420"/>
      <point x="124" y="390" type="curve" smooth="yes"/>
      <point x="124" y="357"/>
      <point x="128" y="330"/>
    </contour>
    <contour>
      <point x="134" y="614" type="curve"/>
      <point x="409" y="614" type="line"/>
      <point x="409" y="783" type="line"/>
      <point x="134" y="784" type="line"/>
      <point x="128" y="759"/>
      <point x="124" y="730"/>
      <point x="124" y="699" type="curve" smooth="yes"/>
      <point x="124" y="667"/>
      <point x="128" y="638"/>
    </contour>
    <contour>
      <point x="663" y="614" type="line"/>
      <point x="939" y="614" type="line"/>
      <point x="945" y="640"/>
      <point x="949" y="669"/>
      <point x="949" y="699" type="curve" smooth="yes"/>
      <point x="949" y="733"/>
      <point x="944" y="763"/>
      <point x="939" y="784" type="curve"/>
      <point x="663" y="783" type="line"/>
    </contour>
  </outline>
</glyph>
<glyph name="brokenbar" format="2">
  <advance width="510"/>
  <unicode hex="00A6"/>
  <outline>
    <contour>
      <point x="141" y="492" type="curve"/>
      <point x="141" y="-282" type="line"/>
      <point x="176" y="-291"/>
      <point x="228" y="-293"/>
      <point x="256" y="-293" type="curve" smooth="yes"/>
      <point x="289" y="-293"/>
      <point x="332" y="-291"/>
      <point x="369" y="-282" type="curve"/>
      <point x="369" y="492" type="line"/>
      <point x="332" y="500"/>
      <point x="289" y="502"/>
      <point x="256" y="502" type="curve" smooth="yes"/>
      <point x="228" y="502"/>
      <point x="176" y="500"/>
    </contour>
    <contour>
      <point x="141" y="1548" type="curve"/>
      <point x="141" y="774" type="line"/>
      <point x="176" y="765"/>
      <point x="228" y="763"/>
      <point x="256" y="763" type="curve" smooth="yes"/>
      <point x="289" y="763"/>
      <point x="332" y="765"/>
      <point x="369" y="774" type="curve"/>
      <point x="369" y="1548" type="line"/>
      <point x="332" y="1556"/>
      <point x="289" y="1558"/>
      <point x="256" y="1558" type="curve" smooth="yes"/>
      <point x="228" y="1558"/>
      <point x="176" y="1556"/>
    </contour>
  </outline>
</glyph>
<glyph name="section" format="2">
  <advance width="982"/>
  <unicode hex="00A7"/>
  <outline>
    <contour>
      <point x="511" y="380" type="curve"/>
      <point x="590" y="260" type="line"/>
      <point x="768" y="318"/>
      <point x="926" y="449"/>
      <point x="926" y="614" type="curve" smooth="yes"/>
      <point x="926" y="794"/>
      <point x="774" y="882"/>
      <point x="601" y="953" type="curve" smooth="yes"/>
      <point x="485" y="1000" type="line" smooth="yes"/>
      <point x="415" y="1028"/>
      <point x="377" y="1059"/>
      <point x="377" y="1110" type="curve" smooth="yes"/>
      <point x="377" y="1171"/>
      <point x="432" y="1209"/>
      <point x="509" y="1209" type="curve" smooth="yes"/>
      <point x="592" y="1209"/>
      <point x="678" y="1180"/>
      <point x="753" y="1149" type="curve"/>
      <point x="795" y="1181"/>
      <point x="827" y="1262"/>
      <point x="824" y="1322" type="curve"/>
      <point x="739" y="1361"/>
      <point x="614" y="1393"/>
      <point x="501" y="1393" type="curve" smooth="yes"/>
      <point x="284" y="1393"/>
      <point x="130" y="1264"/>
      <point x="130" y="1090" type="curve" smooth="yes"/>
      <point x="130" y="938"/>
      <point x="244" y="847"/>
      <point x="386" y="790" type="curve" smooth="yes"/>
      <point x="484" y="752" type="line" smooth="yes"/>
      <point x="595" y="709"/>
      <point x="685" y="658"/>
      <point x="685" y="572" type="curve" smooth="yes"/>
      <point x="685" y="482"/>
      <point x="602" y="414"/>
    </contour>
    <contour>
      <point x="475" y="792" type="curve"/>
      <point x="395" y="912" type="line"/>
      <point x="217" y="854"/>
      <point x="60" y="723"/>
      <point x="60" y="558" type="curve" smooth="yes"/>
      <point x="60" y="378"/>
      <point x="211" y="290"/>
      <point x="385" y="219" type="curve" smooth="yes"/>
      <point x="500" y="172" type="line" smooth="yes"/>
      <point x="570" y="144"/>
      <point x="608" y="111"/>
      <point x="608" y="60" type="curve" smooth="yes"/>
      <point x="608" y="-1"/>
      <point x="554" y="-39"/>
      <point x="471" y="-39" type="curve" smooth="yes"/>
      <point x="369" y="-39"/>
      <point x="271" y="-1"/>
      <point x="202" y="32" type="curve"/>
      <point x="161" y="2"/>
      <point x="125" y="-80"/>
      <point x="129" y="-140" type="curve"/>
      <point x="216" y="-192"/>
      <point x="352" y="-224"/>
      <point x="470" y="-224" type="curve" smooth="yes"/>
      <point x="702" y="-224"/>
      <point x="855" y="-94"/>
      <point x="855" y="80" type="curve" smooth="yes"/>
      <point x="855" y="232"/>
      <point x="741" y="325"/>
      <point x="599" y="382" type="curve" smooth="yes"/>
      <point x="501" y="420" type="line" smooth="yes"/>
      <point x="385" y="466"/>
      <point x="300" y="514"/>
      <point x="300" y="600" type="curve" smooth="yes"/>
      <point x="300" y="690"/>
      <point x="383" y="758"/>
    </contour>
  </outline>
</glyph>
<glyph name="copyright" format="2">
  <advance width="1594"/>
  <unicode hex="00A9"/>
  <outline>
    <contour>
      <point x="74" y="682" type="curve" smooth="yes"/>
      <point x="74" y="274"/>
      <point x="388" y="-41"/>
      <point x="796" y="-41" type="curve" smooth="yes"/>
      <point x="1204" y="-41"/>
      <point x="1521" y="274"/>
      <point x="1521" y="682" type="curve" smooth="yes"/>
      <point x="1521" y="1090"/>
      <point x="1204" y="1407"/>
      <point x="796" y="1407" type="curve" smooth="yes"/>
      <point x="388" y="1407"/>
      <point x="74" y="1090"/>
    </contour>
    <contour>
      <point x="270" y="682" type="curve" smooth="yes"/>
      <point x="270" y="988"/>
      <point x="489" y="1237"/>
      <point x="796" y="1237" type="curve" smooth="yes"/>
      <point x="1103" y="1237"/>
      <point x="1324" y="988"/>
      <point x="1324" y="682" type="curve" smooth="yes"/>
      <point x="1324" y="376"/>
      <point x="1103" y="129"/>
      <point x="796" y="129" type="curve" smooth="yes"/>
      <point x="489" y="129"/>
      <point x="270" y="376"/>
    </contour>
    <contour>
      <point x="918" y="748" type="curve"/>
      <point x="936" y="741"/>
      <point x="967" y="737"/>
      <point x="993" y="737" type="curve" smooth="yes"/>
      <point x="1067" y="737"/>
      <point x="1099" y="776"/>
      <point x="1099" y="841" type="curve" smooth="yes"/>
      <point x="1099" y="959"/>
      <point x="988" y="1078"/>
      <point x="802" y="1078" type="curve" smooth="yes"/>
      <point x="633" y="1078"/>
      <point x="452" y="964"/>
      <point x="452" y="683" type="curve" smooth="yes"/>
      <point x="452" y="474"/>
      <point x="551" y="290"/>
      <point x="797" y="290" type="curve" smooth="yes"/>
      <point x="902" y="290"/>
      <point x="1024" y="341"/>
      <point x="1089" y="407" type="curve"/>
      <point x="1080" y="448"/>
      <point x="1047" y="499"/>
      <point x="1012" y="520" type="curve"/>
      <point x="957" y="481"/>
      <point x="888" y="447"/>
      <point x="828" y="447" type="curve" smooth="yes"/>
      <point x="718" y="447"/>
      <point x="654" y="529"/>
      <point x="654" y="683" type="curve" smooth="yes"/>
      <point x="654" y="845"/>
      <point x="703" y="929"/>
      <point x="795" y="929" type="curve" smooth="yes"/>
      <point x="894" y="929"/>
      <point x="921" y="835"/>
    </contour>
  </outline>
</glyph>
<glyph name="ordfeminine" format="2">
  <advance width="874"/>
  <unicode hex="00AA"/>
  <outline>
    <contour>
      <point x="79" y="706" type="curve" smooth="yes"/>
      <point x="79" y="584"/>
      <point x="165" y="468"/>
      <point x="323" y="468" type="curve" smooth="yes"/>
      <point x="464" y="468"/>
      <point x="563" y="562"/>
      <point x="625" y="634" type="curve"/>
      <point x="592" y="773" type="line"/>
      <point x="537" y="683"/>
      <point x="445" y="624"/>
      <point x="377" y="624" type="curve" smooth="yes"/>
      <point x="319" y="624"/>
      <point x="283" y="668"/>
      <point x="283" y="720" type="curve" smooth="yes"/>
      <point x="283" y="790"/>
      <point x="327" y="833"/>
      <point x="405" y="833" type="curve" smooth="yes"/>
      <point x="463" y="833"/>
      <point x="540" y="828"/>
      <point x="595" y="820" type="curve"/>
      <point x="595" y="958" type="line"/>
      <point x="529" y="965"/>
      <point x="447" y="971"/>
      <point x="390" y="971" type="curve" smooth="yes"/>
      <point x="214" y="971"/>
      <point x="79" y="890"/>
    </contour>
    <contour>
      <point x="789" y="586" type="curve"/>
      <point x="748" y="612"/>
      <point x="738" y="655"/>
      <point x="738" y="712" type="curve" smooth="yes"/>
      <point x="738" y="1024" type="line" smooth="yes"/>
      <point x="738" y="1214"/>
      <point x="613" y="1293"/>
      <point x="462" y="1293" type="curve" smooth="yes"/>
      <point x="351" y="1293"/>
      <point x="212" y="1261"/>
      <point x="114" y="1220" type="curve"/>
      <point x="116" y="1166"/>
      <point x="138" y="1111"/>
      <point x="170" y="1078" type="curve"/>
      <point x="258" y="1110"/>
      <point x="332" y="1130"/>
      <point x="414" y="1130" type="curve" smooth="yes"/>
      <point x="473" y="1130"/>
      <point x="524" y="1098"/>
      <point x="524" y="1017" type="curve" smooth="yes"/>
      <point x="524" y="708" type="line" smooth="yes"/>
      <point x="524" y="574"/>
      <point x="593" y="488"/>
      <point x="707" y="476" type="curve"/>
      <point x="747" y="497"/>
      <point x="783" y="546"/>
    </contour>
  </outline>
</glyph>
<glyph name="logicalnot" format="2">
  <advance width="1080"/>
  <unicode hex="00AC"/>
  <outline>
    <contour>
      <point x="110" y="745" type="curve"/>
      <point x="948" y="745" type="line"/>
      <point x="961" y="732" type="line"/>
      <point x="961" y="539" type="line"/>
      <point x="751" y="541" type="line" smooth="yes"/>
      <point x="711" y="541"/>
      <point x="671" y="539"/>
      <point x="631" y="539" type="curve" smooth="yes"/>
      <point x="110" y="539" type="line"/>
      <point x="101" y="572"/>
      <point x="99" y="616"/>
      <point x="99" y="642" type="curve" smooth="yes"/>
      <point x="99" y="669"/>
      <point x="101" y="711"/>
    </contour>
    <contour>
      <point x="743" y="562" type="curve" smooth="yes"/>
      <point x="741" y="647" type="line"/>
      <point x="961" y="647" type="line"/>
      <point x="961" y="278" type="line"/>
      <point x="928" y="270"/>
      <point x="891" y="268"/>
      <point x="854" y="268" type="curve" smooth="yes"/>
      <point x="815" y="268"/>
      <point x="782" y="270"/>
      <point x="741" y="278" type="curve"/>
      <point x="741" y="436" type="line" smooth="yes"/>
      <point x="741" y="477"/>
      <point x="744" y="523"/>
    </contour>
  </outline>
</glyph>
<glyph name="registered" format="2">
  <advance width="1192"/>
  <unicode hex="00AE"/>
  <outline>
    <contour>
      <point x="63" y="953" type="curve" smooth="yes"/>
      <point x="63" y="654"/>
      <point x="296" y="421"/>
      <point x="595" y="421" type="curve" smooth="yes"/>
      <point x="894" y="421"/>
      <point x="1129" y="654"/>
      <point x="1129" y="953" type="curve" smooth="yes"/>
      <point x="1129" y="1252"/>
      <point x="894" y="1487"/>
      <point x="595" y="1487" type="curve" smooth="yes"/>
      <point x="296" y="1487"/>
      <point x="63" y="1252"/>
    </contour>
    <contour>
      <point x="217" y="953" type="curve" smooth="yes"/>
      <point x="217" y="1170"/>
      <point x="378" y="1347"/>
      <point x="595" y="1347" type="curve" smooth="yes"/>
      <point x="813" y="1347"/>
      <point x="976" y="1170"/>
      <point x="976" y="953" type="curve" smooth="yes"/>
      <point x="976" y="736"/>
      <point x="813" y="561"/>
      <point x="595" y="561" type="curve" smooth="yes"/>
      <point x="378" y="561"/>
      <point x="217" y="736"/>
    </contour>
    <contour>
      <point x="805" y="1067" type="curve" smooth="yes"/>
      <point x="805" y="1150"/>
      <point x="748" y="1216"/>
      <point x="608" y="1216" type="curve" smooth="yes"/>
      <point x="547" y="1216"/>
      <point x="471" y="1212"/>
      <point x="401" y="1210" type="curve"/>
      <point x="395" y="1206" type="line"/>
      <point x="395" y="712" type="line"/>
      <point x="414" y="706"/>
      <point x="439" y="703"/>
      <point x="464" y="703" type="curve" smooth="yes"/>
      <point x="489" y="703"/>
      <point x="513" y="706"/>
      <point x="531" y="712" type="curve"/>
      <point x="531" y="1112" type="line"/>
      <point x="551" y="1112"/>
      <point x="573" y="1112"/>
      <point x="597" y="1112" type="curve" smooth="yes"/>
      <point x="644" y="1112"/>
      <point x="664" y="1086"/>
      <point x="664" y="1055" type="curve" smooth="yes"/>
      <point x="664" y="1022"/>
      <point x="644" y="995"/>
      <point x="590" y="995" type="curve" smooth="yes"/>
      <point x="567" y="995"/>
      <point x="502" y="994"/>
      <point x="469" y="993" type="curve"/>
      <point x="469" y="890" type="line"/>
      <point x="563" y="890" type="line" smooth="yes"/>
      <point x="595" y="890"/>
      <point x="608" y="877"/>
      <point x="620" y="853" type="curve" smooth="yes"/>
      <point x="667" y="763" type="line" smooth="yes"/>
      <point x="687" y="722"/>
      <point x="708" y="702"/>
      <point x="746" y="702" type="curve" smooth="yes"/>
      <point x="784" y="702"/>
      <point x="822" y="723"/>
      <point x="841" y="751" type="curve"/>
      <point x="821" y="763"/>
      <point x="807" y="785"/>
      <point x="795" y="809" type="curve" smooth="yes"/>
      <point x="770" y="857" type="line" smooth="yes"/>
      <point x="749" y="897"/>
      <point x="734" y="920"/>
      <point x="704" y="934" type="curve"/>
      <point x="754" y="947"/>
      <point x="805" y="989"/>
    </contour>
  </outline>
</glyph>
<glyph name="degree" format="2">
  <advance width="764"/>
  <unicode hex="00B0"/>
  <outline>
    <contour>
      <point x="59" y="969" type="curve" smooth="yes"/>
      <point x="59" y="780"/>
      <point x="196" y="644"/>
      <point x="382" y="644" type="curve" smooth="yes"/>
      <point x="568" y="644"/>
      <point x="705" y="780"/>
      <point x="705" y="969" type="curve" smooth="yes"/>
      <point x="705" y="1157"/>
      <point x="568" y="1293"/>
      <point x="382" y="1293" type="curve" smooth="yes"/>
      <point x="196" y="1293"/>
      <point x="59" y="1157"/>
    </contour>
    <contour>
      <point x="239" y="969" type="curve" smooth="yes"/>
      <point x="239" y="1065"/>
      <point x="294" y="1132"/>
      <point x="382" y="1132" type="curve" smooth="yes"/>
      <point x="468" y="1132"/>
      <point x="523" y="1065"/>
      <point x="523" y="969" type="curve" smooth="yes"/>
      <point x="523" y="871"/>
      <point x="468" y="805"/>
      <point x="382" y="805" type="curve" smooth="yes"/>
      <point x="294" y="805"/>
      <point x="239" y="871"/>
    </contour>
  </outline>
</glyph>
<glyph name="plusminus" format="2">
  <advance width="1080"/>
  <unicode hex="00B1"/>
  <outline>
    <contour>
      <point x="141" y="800" type="curve"/>
      <point x="325" y="800" type="line" smooth="yes"/>
      <point x="365" y="800"/>
      <point x="405" y="798"/>
      <point x="443" y="798" type="curve" smooth="yes"/>
      <point x="637" y="798" type="line" smooth="yes"/>
      <point x="675" y="798"/>
      <point x="715" y="800"/>
      <point x="755" y="800" type="curve" smooth="yes"/>
      <point x="939" y="800" type="line"/>
      <point x="946" y="765"/>
      <point x="948" y="744"/>
      <point x="948" y="707" type="curve" smooth="yes"/>
      <point x="948" y="669"/>
      <point x="946" y="646"/>
      <point x="939" y="611" type="curve"/>
      <point x="755" y="611" type="line" smooth="yes"/>
      <point x="715" y="611"/>
      <point x="675" y="613"/>
      <point x="637" y="613" type="curve" smooth="yes"/>
      <point x="443" y="613" type="line" smooth="yes"/>
      <point x="405" y="613"/>
      <point x="365" y="611"/>
      <point x="325" y="611" type="curve" smooth="yes"/>
      <point x="141" y="611" type="line"/>
      <point x="134" y="646"/>
      <point x="132" y="669"/>
      <point x="132" y="707" type="curve" smooth="yes"/>
      <point x="132" y="744"/>
      <point x="134" y="765"/>
    </contour>
    <contour>
      <point x="433" y="915" type="curve" smooth="yes"/>
      <point x="433" y="1098" type="line"/>
      <point x="468" y="1106"/>
      <point x="504" y="1108"/>
      <point x="541" y="1108" type="curve" smooth="yes"/>
      <point x="578" y="1108"/>
      <point x="614" y="1106"/>
      <point x="648" y="1098" type="curve"/>
      <point x="648" y="915" type="line" smooth="yes"/>
      <point x="648" y="875"/>
      <point x="646" y="830"/>
      <point x="646" y="792" type="curve" smooth="yes"/>
      <point x="646" y="621" type="line" smooth="yes"/>
      <point x="646" y="582"/>
      <point x="648" y="538"/>
      <point x="648" y="498" type="curve" smooth="yes"/>
      <point x="648" y="325" type="line"/>
      <point x="614" y="317"/>
      <point x="578" y="315"/>
      <point x="541" y="315" type="curve" smooth="yes"/>
      <point x="504" y="315"/>
      <point x="468" y="317"/>
      <point x="433" y="325" type="curve"/>
      <point x="433" y="498" type="line" smooth="yes"/>
      <point x="433" y="538"/>
      <point x="435" y="582"/>
      <point x="435" y="621" type="curve" smooth="yes"/>
      <point x="435" y="792" type="line" smooth="yes"/>
      <point x="435" y="830"/>
      <point x="433" y="875"/>
    </contour>
    <contour>
      <point x="141" y="0" type="curve"/>
      <point x="939" y="0" type="line"/>
      <point x="946" y="36"/>
      <point x="948" y="62"/>
      <point x="948" y="98" type="curve" smooth="yes"/>
      <point x="948" y="137"/>
      <point x="946" y="159"/>
      <point x="939" y="195" type="curve"/>
      <point x="141" y="195" type="line"/>
      <point x="134" y="159"/>
      <point x="132" y="137"/>
      <point x="132" y="98" type="curve" smooth="yes"/>
      <point x="132" y="62"/>
      <point x="134" y="36"/>
    </contour>
  </outline>
</glyph>
<glyph name="twosuperior" format="2">
  <advance width="830"/>
  <unicode hex="00B2"/>
  <outline>
    <contour>
      <point x="106" y="1290" type="curve"/>
      <point x="131" y="1255"/>
      <point x="213" y="1223"/>
      <point x="264" y="1221" type="curve"/>
      <point x="283" y="1280"/>
      <point x="325" y="1328"/>
      <point x="383" y="1330" type="curve" smooth="yes"/>
      <point x="438" y="1331"/>
      <point x="475" y="1292"/>
      <point x="475" y="1236" type="curve" smooth="yes"/>
      <point x="475" y="1169"/>
      <point x="424" y="1125"/>
      <point x="374" y="1086" type="curve" smooth="yes"/>
      <point x="248" y="989" type="line" smooth="yes"/>
      <point x="166" y="927"/>
      <point x="96" y="841"/>
      <point x="96" y="762" type="curve" smooth="yes"/>
      <point x="96" y="725"/>
      <point x="111" y="695"/>
      <point x="162" y="635" type="curve"/>
      <point x="300" y="635" type="line"/>
      <point x="300" y="759" type="line" smooth="yes"/>
      <point x="300" y="799"/>
      <point x="352" y="845"/>
      <point x="430" y="900" type="curve" smooth="yes"/>
      <point x="517" y="963" type="line" smooth="yes"/>
      <point x="582" y="1010"/>
      <point x="687" y="1094"/>
      <point x="687" y="1241" type="curve" smooth="yes"/>
      <point x="687" y="1393"/>
      <point x="573" y="1508"/>
      <point x="401" y="1508" type="curve" smooth="yes"/>
      <point x="245" y="1508"/>
      <point x="138" y="1412"/>
    </contour>
    <contour>
      <point x="711" y="819" type="curve"/>
      <point x="536" y="819" type="line" smooth="yes"/>
      <point x="388" y="819"/>
      <point x="262" y="801"/>
      <point x="168" y="759" type="curve"/>
      <point x="192" y="635" type="line"/>
      <point x="588" y="635" type="line" smooth="yes"/>
      <point x="664" y="635"/>
      <point x="711" y="660"/>
    </contour>
  </outline>
</glyph>
<glyph name="threesuperior" format="2">
  <advance width="831"/>
  <unicode hex="00B3"/>
  <outline>
    <contour>
      <point x="499" y="912" type="curve" smooth="yes"/>
      <point x="499" y="836"/>
      <point x="444" y="790"/>
      <point x="363" y="790" type="curve" smooth="yes"/>
      <point x="291" y="790"/>
      <point x="230" y="817"/>
      <point x="179" y="853" type="curve"/>
      <point x="140" y="820"/>
      <point x="106" y="765"/>
      <point x="97" y="714" type="curve"/>
      <point x="160" y="662"/>
      <point x="259" y="624"/>
      <point x="376" y="624" type="curve" smooth="yes"/>
      <point x="546" y="624"/>
      <point x="710" y="719"/>
      <point x="710" y="910" type="curve" smooth="yes"/>
      <point x="710" y="1068"/>
      <point x="588" y="1164"/>
      <point x="455" y="1164" type="curve" smooth="yes"/>
      <point x="385" y="1164"/>
      <point x="300" y="1149"/>
      <point x="220" y="1126" type="curve"/>
      <point x="229" y="1081"/>
      <point x="265" y="1032"/>
      <point x="302" y="1016" type="curve"/>
      <point x="324" y="1026"/>
      <point x="350" y="1032"/>
      <point x="375" y="1032" type="curve" smooth="yes"/>
      <point x="442" y="1032"/>
      <point x="499" y="989"/>
    </contour>
    <contour>
      <point x="541" y="1200" type="curve" smooth="yes"/>
      <point x="625" y="1282" type="line"/>
      <point x="657" y="1309"/>
      <point x="675" y="1333"/>
      <point x="675" y="1373" type="curve" smooth="yes"/>
      <point x="675" y="1412"/>
      <point x="652" y="1460"/>
      <point x="633" y="1494" type="curve"/>
      <point x="145" y="1494" type="line"/>
      <point x="132" y="1460"/>
      <point x="128" y="1424"/>
      <point x="128" y="1398" type="curve" smooth="yes"/>
      <point x="128" y="1377"/>
      <point x="131" y="1351"/>
      <point x="138" y="1323" type="curve"/>
      <point x="285" y="1323" type="line" smooth="yes"/>
      <point x="325" y="1323"/>
      <point x="403" y="1326"/>
      <point x="438" y="1333" type="curve"/>
      <point x="442" y="1327" type="line"/>
      <point x="418" y="1310"/>
      <point x="386" y="1283"/>
      <point x="363" y="1263" type="curve" smooth="yes"/>
      <point x="220" y="1126" type="line"/>
      <point x="332" y="1087" type="line"/>
      <point x="412" y="1112"/>
      <point x="499" y="1163"/>
    </contour>
  </outline>
</glyph>
<glyph name="micro" format="2">
  <advance width="1107"/>
  <unicode hex="00B5"/>
  <outline>
    <contour>
      <point x="229" y="465" type="line"/>
      <point x="385" y="465" type="line"/>
      <point x="385" y="371" type="line" smooth="yes"/>
      <point x="385" y="261"/>
      <point x="441" y="193"/>
      <point x="539" y="193" type="curve" smooth="yes"/>
      <point x="638" y="193"/>
      <point x="713" y="268"/>
      <point x="765" y="385" type="curve"/>
      <point x="781" y="173" type="line"/>
      <point x="733" y="63"/>
      <point x="640" y="-19"/>
      <point x="510" y="-19" type="curve" smooth="yes"/>
      <point x="339" y="-19"/>
      <point x="229" y="145"/>
      <point x="229" y="331" type="curve" smooth="yes"/>
    </contour>
    <contour>
      <point x="959" y="992" type="curve"/>
      <point x="959" y="283" type="line" smooth="yes"/>
      <point x="959" y="211"/>
      <point x="976" y="143"/>
      <point x="1015" y="110" type="curve"/>
      <point x="1004" y="65"/>
      <point x="966" y="9"/>
      <point x="931" y="-15" type="curve"/>
      <point x="781" y="2"/>
      <point x="712" y="123"/>
      <point x="712" y="266" type="curve" smooth="yes"/>
      <point x="712" y="992" type="line"/>
      <point x="746" y="998"/>
      <point x="792" y="1001"/>
      <point x="835" y="1001" type="curve" smooth="yes"/>
      <point x="878" y="1001"/>
      <point x="924" y="998"/>
    </contour>
    <contour>
      <point x="385" y="992" type="curve"/>
      <point x="385" y="161" type="line"/>
      <point x="371" y="161" type="line"/>
      <point x="371" y="-270" type="line" smooth="yes"/>
      <point x="371" y="-370"/>
      <point x="353" y="-437"/>
      <point x="252" y="-437" type="curve" smooth="yes"/>
      <point x="192" y="-437"/>
      <point x="142" y="-419"/>
      <point x="101" y="-387" type="curve"/>
      <point x="134" y="-334"/>
      <point x="141" y="-251"/>
      <point x="141" y="-197" type="curve" smooth="yes"/>
      <point x="141" y="992" type="line"/>
      <point x="175" y="998"/>
      <point x="220" y="1001"/>
      <point x="263" y="1001" type="curve" smooth="yes"/>
      <point x="306" y="1001"/>
      <point x="350" y="998"/>
    </contour>
  </outline>
</glyph>
<glyph name="paragraph" format="2">
  <advance width="1404"/>
  <unicode hex="00B6"/>
  <outline>
    <contour>
      <point x="565" y="123" type="curve" smooth="yes"/>
      <point x="565" y="491" type="line"/>
      <point x="533" y="491" type="line" smooth="yes"/>
      <point x="271" y="491"/>
      <point x="72" y="638"/>
      <point x="72" y="936" type="curve" smooth="yes"/>
      <point x="72" y="1245"/>
      <point x="272" y="1376"/>
      <point x="544" y="1376" type="curve" smooth="yes"/>
      <point x="635" y="1376"/>
      <point x="704" y="1372"/>
      <point x="802" y="1368" type="curve"/>
      <point x="815" y="1355" type="line"/>
      <point x="815" y="169" type="line" smooth="yes"/>
      <point x="815" y="-145"/>
      <point x="715" y="-314"/>
      <point x="401" y="-314" type="curve" smooth="yes"/>
      <point x="296" y="-314"/>
      <point x="188" y="-289"/>
      <point x="128" y="-266" type="curve"/>
      <point x="127" y="-216"/>
      <point x="148" y="-130"/>
      <point x="184" y="-82" type="curve"/>
      <point x="240" y="-103"/>
      <point x="314" y="-123"/>
      <point x="378" y="-123" type="curve" smooth="yes"/>
      <point x="528" y="-123"/>
      <point x="565" y="-39"/>
    </contour>
    <contour>
      <point x="942" y="1353" type="line"/>
      <point x="942" y="-263" type="line"/>
      <point x="981" y="-272"/>
      <point x="1035" y="-274"/>
      <point x="1070" y="-274" type="curve" smooth="yes"/>
      <point x="1107" y="-274"/>
      <point x="1154" y="-272"/>
      <point x="1194" y="-263" type="curve"/>
      <point x="1194" y="1366" type="line"/>
      <point x="955" y="1366" type="line"/>
    </contour>
    <contour>
      <point x="1070" y="1366" type="line"/>
      <point x="1070" y="1155" type="line"/>
      <point x="1152" y="1155" type="line" smooth="yes"/>
      <point x="1194" y="1155"/>
      <point x="1240" y="1150"/>
      <point x="1286" y="1150" type="curve" smooth="yes"/>
      <point x="1355" y="1150" type="line"/>
      <point x="1371" y="1199"/>
      <point x="1371" y="1318"/>
      <point x="1355" y="1366" type="curve"/>
    </contour>
  </outline>
</glyph>
<glyph name="onesuperior" format="2">
  <advance width="830"/>
  <unicode hex="00B9"/>
  <outline>
    <contour>
      <point x="559" y="727" type="line"/>
      <point x="559" y="1490" type="line"/>
      <point x="520" y="1497"/>
      <point x="494" y="1501"/>
      <point x="463" y="1501" type="curve" smooth="yes"/>
      <point x="432" y="1501"/>
      <point x="398" y="1497"/>
      <point x="364" y="1490" type="curve"/>
      <point x="366" y="1284" type="line" smooth="yes"/>
      <point x="366" y="1216"/>
      <point x="357" y="1113"/>
      <point x="357" y="1068" type="curve" smooth="yes"/>
      <point x="357" y="727" type="line"/>
    </contour>
    <contour>
      <point x="260" y="806" type="curve" smooth="yes"/>
      <point x="157" y="806" type="line"/>
      <point x="151" y="780"/>
      <point x="148" y="747"/>
      <point x="148" y="720" type="curve" smooth="yes"/>
      <point x="148" y="692"/>
      <point x="151" y="665"/>
      <point x="157" y="635" type="curve"/>
      <point x="720" y="635" type="line"/>
      <point x="728" y="663"/>
      <point x="731" y="695"/>
      <point x="731" y="720" type="curve" smooth="yes"/>
      <point x="731" y="749"/>
      <point x="728" y="780"/>
      <point x="720" y="806" type="curve"/>
      <point x="662" y="806" type="line" smooth="yes"/>
      <point x="639" y="806"/>
      <point x="582" y="805"/>
      <point x="559" y="805" type="curve" smooth="yes"/>
      <point x="357" y="805" type="line" smooth="yes"/>
      <point x="335" y="805"/>
      <point x="285" y="806"/>
    </contour>
    <contour>
      <point x="97" y="1211" type="curve"/>
      <point x="106" y="1163"/>
      <point x="143" y="1105"/>
      <point x="189" y="1082" type="curve"/>
      <point x="322" y="1144"/>
      <point x="397" y="1220"/>
      <point x="435" y="1358" type="curve"/>
      <point x="364" y="1490" type="line"/>
      <point x="310" y="1374"/>
      <point x="241" y="1296"/>
    </contour>
  </outline>
</glyph>
<glyph name="ordmasculine" format="2">
  <advance width="859"/>
  <unicode hex="00BA"/>
  <outline>
    <contour>
      <point x="783" y="881" type="curve" smooth="yes"/>
      <point x="783" y="1006"/>
      <point x="751" y="1121"/>
      <point x="667" y="1207" type="curve" smooth="yes"/>
      <point x="610" y="1266"/>
      <point x="523" y="1293"/>
      <point x="429" y="1293" type="curve" smooth="yes"/>
      <point x="333" y="1293"/>
      <point x="250" y="1264"/>
      <point x="192" y="1207" type="curve" smooth="yes"/>
      <point x="105" y="1123"/>
      <point x="76" y="1006"/>
      <point x="76" y="881" type="curve" smooth="yes"/>
      <point x="76" y="755"/>
      <point x="107" y="639"/>
      <point x="192" y="553" type="curve" smooth="yes"/>
      <point x="249" y="495"/>
      <point x="333" y="467"/>
      <point x="429" y="467" type="curve" smooth="yes"/>
      <point x="523" y="467"/>
      <point x="609" y="496"/>
      <point x="667" y="553" type="curve" smooth="yes"/>
      <point x="753" y="637"/>
      <point x="783" y="755"/>
    </contour>
    <contour>
      <point x="285" y="881" type="curve" smooth="yes"/>
      <point x="285" y="1022"/>
      <point x="322" y="1133"/>
      <point x="430" y="1133" type="curve" smooth="yes"/>
      <point x="537" y="1133"/>
      <point x="574" y="1022"/>
      <point x="574" y="881" type="curve" smooth="yes"/>
      <point x="574" y="740"/>
      <point x="537" y="629"/>
      <point x="430" y="629" type="curve" smooth="yes"/>
      <point x="322" y="629"/>
      <point x="285" y="740"/>
    </contour>
  </outline>
</glyph>
